<?xml version="1.0" standalone="no"?>
<!DOCTYPE svg PUBLIC "-//W3C//DTD SVG 1.1//EN" "http://www.w3.org/Graphics/SVG/1.1/DTD/svg11.dtd" >
<svg>
<metadata>
Created by FontForge 20090622 at Thu Jan  9 09:29:28 2020
 By deploy user
Copyright &#194;&#169; 2012 Linotype GmbH, www.linotype.com. All rights reserved. This font software may not be reproduced, modified, disclosed or transferred without the express written approval of Linotype GmbH. Avenir is a trademark of Linotype GmbH registered in the U.S. Patent and Trademark Office and may be registered in certain other jurisdictions. This typeface is original artwork of Adrian Frutiger, Akira Kobayashi. The design may be protected in certain jurisdictions.
</metadata>
<defs>
<font id="AvenirNextRoundedStd-Reg" horiz-adv-x="240" >
  <font-face 
    font-family="Avenir Next Rounded Std"
    font-weight="400"
    font-stretch="normal"
    units-per-em="1000"
    panose-1="2 11 5 3 2 2 2 2 2 4"
    ascent="750"
    descent="-250"
    x-height="468"
    cap-height="715"
    bbox="-196 -257 975 945"
    underline-thickness="50"
    underline-position="-150"
    unicode-range="U+000D-U+FB02"
  />
<missing-glyph horiz-adv-x="512" 
d="M222 146v8q0 18 9 25t19 7t19 -7t9 -25v-8q0 -18 -9 -25t-19 -7t-19 7t-9 25zM50 50h412v617h-412v-617zM0 32v654q0 32 31 32h450q31 0 31 -32v-654q0 -32 -31 -32h-450q-31 0 -31 32zM223 254q0 50 12.5 78t46.5 59q31 29 39.5 47.5t8.5 41.5q0 35 -21.5 57t-52.5 22
q-61 0 -79 -75q-6 -23 -26 -23q-11 0 -18 7.5t-7 17.5q0 5 2 14q24 109 131 109q54 0 89 -34t35 -91q0 -35 -13 -63t-52 -65q-31 -30 -39 -46t-8 -56q0 -27 -24 -27t-24 27z" />
    <glyph glyph-name="fi" unicode="fi" horiz-adv-x="543" 
d="M110 411h-73q-32 0 -32 29q0 10 7 19t25 9h73v128q0 81 40 126.5t119 45.5q57 0 57 -32q0 -29 -33 -29q-2 0 -11.5 0.5t-15.5 0.5q-51 0 -69.5 -31t-18.5 -89v-120h85q18 0 25 -9t7 -19q0 -29 -32 -29h-85v-381q0 -21 -11 -29t-23 -8q-7 0 -14 2t-13.5 11t-6.5 24v381z
M466 648q0 -20 -14.5 -34t-33.5 -14t-33.5 14t-14.5 34t14.5 34t33.5 14t33.5 -14t14.5 -34zM452 30q0 -21 -11 -29t-23 -8q-7 0 -14 2t-13.5 11t-6.5 24v408q0 21 11 29t23 8q7 0 14 -2t13.5 -11t6.5 -24v-408z" />
    <glyph glyph-name="fl" unicode="fl" horiz-adv-x="544" 
d="M110 411h-73q-32 0 -32 29q0 10 7 19t25 9h73v128q0 81 40 126.5t119 45.5q57 0 57 -32q0 -29 -33 -29q-2 0 -11.5 0.5t-15.5 0.5q-51 0 -69.5 -31t-18.5 -89v-120h85q18 0 25 -9t7 -19q0 -29 -32 -29h-85v-381q0 -21 -11 -29t-23 -8q-7 0 -14 2t-13.5 11t-6.5 24v381z
M384 30v696q0 21 11 29t23 8q7 0 14 -2t13.5 -11t6.5 -24v-696q0 -21 -11 -29t-23 -8q-7 0 -14 2t-13.5 11t-6.5 24z" />
    <glyph glyph-name=".notdef" horiz-adv-x="512" 
d="M222 146v8q0 18 9 25t19 7t19 -7t9 -25v-8q0 -18 -9 -25t-19 -7t-19 7t-9 25zM50 50h412v617h-412v-617zM0 32v654q0 32 31 32h450q31 0 31 -32v-654q0 -32 -31 -32h-450q-31 0 -31 32zM223 254q0 50 12.5 78t46.5 59q31 29 39.5 47.5t8.5 41.5q0 35 -21.5 57t-52.5 22
q-61 0 -79 -75q-6 -23 -26 -23q-11 0 -18 7.5t-7 17.5q0 5 2 14q24 109 131 109q54 0 89 -34t35 -91q0 -35 -13 -63t-52 -65q-31 -30 -39 -46t-8 -56q0 -27 -24 -27t-24 27z" />
    <glyph glyph-name=".null" horiz-adv-x="490" 
 />
    <glyph glyph-name=".null" horiz-adv-x="490" 
 />
    <glyph glyph-name="nonmarkingreturn" horiz-adv-x="333" 
 />
    <glyph glyph-name="CR" unicode="&#xd;" horiz-adv-x="0" 
 />
    <glyph glyph-name="space" unicode=" " horiz-adv-x="250" 
 />
    <glyph glyph-name="exclam" unicode="!" horiz-adv-x="328" 
d="M218 48q0 -22 -15.5 -38t-38.5 -16t-38.5 16t-15.5 38t15.5 38t38.5 16t38.5 -16t15.5 -38zM128 225v450q0 22 11.5 31t24.5 9q8 0 15 -2.5t14 -12t7 -25.5v-450q0 -22 -11.5 -31t-24.5 -9q-8 0 -15 2.5t-14 12t-7 25.5z" />
    <glyph glyph-name="quotedbl" unicode="&#x22;" horiz-adv-x="405" 
d="M100 499v183q0 13 6 21t12 10t12 2t12 -2t12 -10t6 -21v-183q0 -13 -6 -21t-12 -10t-12 -2t-12 2t-12 10t-6 21zM245 499v183q0 13 6 21t12 10t12 2t12 -2t12 -10t6 -21v-183q0 -13 -6 -21t-12 -10t-12 -2t-12 2t-12 10t-6 21z" />
    <glyph glyph-name="numbersign" unicode="#" horiz-adv-x="556" 
d="M228 436l-22 -162h133l22 162h-133zM112 35l25 179h-79q-33 0 -33 30t33 30h87l22 162h-82q-33 0 -33 30t33 30h91l26 189q4 30 29 30q31 0 31 -29q0 -6 -1 -13l-24 -177h133l26 189q4 30 29 30q31 0 31 -29q0 -6 -1 -13l-24 -177h64q33 0 33 -30t-33 -30h-73l-22 -162
h69q33 0 33 -30t-33 -30h-77l-27 -191q-5 -30 -29 -30q-31 0 -31 29q0 6 1 13l25 179h-133l-27 -191q-5 -30 -29 -30q-31 0 -31 29q0 6 1 13z" />
    <glyph glyph-name="dollar" unicode="$" horiz-adv-x="580" 
d="M263 406v258q-53 -2 -88.5 -37.5t-35.5 -90.5q0 -96 124 -130zM311 321v-275q52 2 91.5 35t39.5 101q0 49 -35.5 84.5t-95.5 54.5zM75 69q-12 13 -12 28q0 13 9.5 21.5t22.5 8.5q15 0 33 -19q26 -28 65.5 -44.5t69.5 -17.5v287q-40 12 -69.5 26t-60 36.5t-47 56.5
t-16.5 78q0 84 55.5 135t137.5 55v52q0 27 24 27t24 -27v-52q99 -5 158 -58q15 -14 15 -29q0 -13 -8 -21.5t-22 -8.5t-30 15q-49 44 -113 46v-275q45 -16 75.5 -30.5t62.5 -39t48.5 -60t16.5 -82.5q0 -82 -58 -134.5t-145 -54.5v-52q0 -27 -24 -27t-24 27v52q-112 3 -188 81
z" />
    <glyph glyph-name="percent" unicode="%" horiz-adv-x="833" 
d="M390 545q0 -74 -51 -124.5t-125 -50.5t-125 50.5t-51 124.5t51 124.5t125 50.5t125 -50.5t51 -124.5zM330 545q0 49 -34 82t-82 33t-82 -33t-34 -82t34 -82t82 -33t82 33t34 82zM795 163q0 -74 -51 -124.5t-125 -50.5t-125 50.5t-51 124.5t51 124.5t125 50.5t125 -50.5
t51 -124.5zM735 163q0 49 -34 82t-82 33t-82 -33t-34 -82t34 -82t82 -33t82 33t34 82zM179 19l424 699q11 17 27 17q12 0 20.5 -7.5t8.5 -20.5q0 -9 -6 -19l-424 -699q-11 -17 -27 -17q-12 0 -20.5 7.5t-8.5 20.5q0 9 6 19z" />
    <glyph glyph-name="ampersand" unicode="&#x26;" horiz-adv-x="704" 
d="M592 7l-101 102q-46 -64 -98 -92.5t-123 -28.5q-95 0 -158 52t-63 144q0 137 161 209q-83 92 -83 166q0 77 50.5 122t125.5 45q73 0 122 -43t49 -116q0 -108 -160 -186l166 -164l92 153q12 20 31 20q14 0 24.5 -9t10.5 -23q0 -11 -7 -24l-103 -164l115 -113
q14 -14 14 -28q0 -15 -10 -25.5t-25 -10.5q-17 0 -30 14zM271 48q56 0 95 25.5t77 83.5l-190 191q-130 -59 -130 -165q0 -59 43 -97t105 -38zM197 558q0 -57 75 -135q132 60 132 144q0 43 -28.5 71.5t-71.5 28.5q-47 0 -77 -30t-30 -79z" />
    <glyph glyph-name="quotesingle" unicode="'" horiz-adv-x="260" 
d="M100 499v183q0 13 6 21t12 10t12 2t12 -2t12 -10t6 -21v-183q0 -13 -6 -21t-12 -10t-12 -2t-12 2t-12 10t-6 21z" />
    <glyph glyph-name="parenleft" unicode="(" horiz-adv-x="300" 
d="M32 288q0 117 36 229.5t95 196.5q12 17 28 17q13 0 22 -8.5t9 -21.5q0 -10 -8 -23q-53 -82 -84.5 -184t-31.5 -206t31.5 -206t84.5 -184q8 -13 8 -23q0 -13 -9 -21.5t-22 -8.5q-16 0 -28 17q-59 84 -95 196.5t-36 229.5z" />
    <glyph glyph-name="parenright" unicode=")" horiz-adv-x="300" 
d="M268 288q0 -117 -36 -229.5t-95 -196.5q-12 -17 -28 -17q-13 0 -22 8.5t-9 21.5q0 10 8 23q53 82 84.5 184t31.5 206t-31.5 206t-84.5 184q-8 13 -8 23q0 13 9 21.5t22 8.5q16 0 28 -17q59 -84 95 -196.5t36 -229.5z" />
    <glyph glyph-name="asterisk" unicode="*" horiz-adv-x="444" 
d="M299 372l-77 104l-77 -104q-12 -15 -25 -15t-22 8t-9 21q0 10 9 23l74 100l-113 36q-24 8 -24 29q0 12 8 21t20 9q8 0 17 -3l112 -36v117q0 13 6 21t12 10t12 2t12 -2t12 -10t6 -21v-117l112 36q9 3 17 3q12 0 20 -9t8 -21q0 -21 -24 -29l-113 -36l74 -100q9 -13 9 -23
q0 -13 -9 -21t-22 -8q-14 0 -25 15z" />
    <glyph glyph-name="plus" unicode="+" horiz-adv-x="666" 
d="M562 273h-199v-199q0 -13 -6 -21t-12 -10t-12 -2t-12 2t-12 10t-6 21v199h-199q-33 0 -33 30t33 30h199v199q0 13 6 21t12 10t12 2t12 -2t12 -10t6 -21v-199h199q33 0 33 -30t-33 -30z" />
    <glyph glyph-name="comma" unicode="," horiz-adv-x="260" 
d="M171 53l-57 -174q-9 -26 -31 -26q-14 0 -24 8.5t-10 22.5q0 8 3 18l53 171q8 29 34 29q15 0 25 -9t10 -24q0 -5 -3 -16z" />
    <glyph glyph-name="hyphen" unicode="-" horiz-adv-x="320" 
d="M247 214h-174q-32 0 -32 29q0 10 7 19t25 9h174q18 0 25 -9t7 -19q0 -29 -32 -29z" />
    <glyph glyph-name="period" unicode="." horiz-adv-x="260" 
d="M184 48q0 -22 -15.5 -38t-38.5 -16t-38.5 16t-15.5 38t15.5 38t38.5 16t38.5 -16t15.5 -38z" />
    <glyph glyph-name="slash" unicode="/" horiz-adv-x="370" 
d="M16 27l283 677q9 21 27 21q13 0 22.5 -7.5t9.5 -21.5q0 -6 -3 -15l-283 -677q-9 -21 -27 -21q-13 0 -22.5 7.5t-9.5 21.5q0 6 3 15z" />
    <glyph glyph-name="zero" unicode="0" horiz-adv-x="580" 
d="M522 353q0 -73 -12 -136t-37.5 -117.5t-72.5 -86t-110 -31.5q-64 0 -111 31.5t-72.5 86t-37 117t-11.5 136.5q0 58 7 109.5t23.5 101t42.5 84.5t66.5 56.5t92.5 21.5q63 0 110 -31.5t72.5 -86.5t37.5 -118.5t12 -136.5zM449 353q0 57 -8 109t-25 99.5t-49.5 75.5
t-76.5 28q-45 0 -77.5 -28t-49.5 -76t-24.5 -99t-7.5 -109t7.5 -108.5t24.5 -98t49.5 -75t77.5 -27.5q44 0 76.5 27.5t49.5 74.5t25 98.5t8 108.5z" />
    <glyph glyph-name="one" unicode="1" horiz-adv-x="580" 
d="M286 33v586l-108 -92q-12 -11 -25 -11q-14 0 -23.5 9.5t-9.5 24.5q0 14 15 27l142 117q25 21 43 21q14 0 26 -9t12 -33v-640q0 -22 -11.5 -31t-24.5 -9q-8 0 -15 2.5t-14 12t-7 25.5z" />
    <glyph glyph-name="two" unicode="2" horiz-adv-x="580" 
d="M81 592q23 59 78.5 96.5t126.5 37.5q91 0 152 -51t61 -144q0 -62 -29 -109.5t-86 -104.5l-251 -253h343q20 0 27.5 -10.5t7.5 -21.5t-7.5 -21.5t-27.5 -10.5h-384q-28 0 -38 13t-10 28q0 19 22 42l275 285q85 87 85 162q0 60 -40.5 97.5t-99.5 37.5q-47 0 -83 -25.5
t-54 -69.5q-13 -33 -37 -33q-35 0 -35 33q0 11 4 22z" />
    <glyph glyph-name="three" unicode="3" horiz-adv-x="580" 
d="M129 124q52 -80 144 -80q64 0 110 41.5t46 110.5q0 75 -53.5 109.5t-134.5 34.5q-19 0 -26.5 10t-7.5 21t7.5 21t26.5 10q77 0 123 31.5t46 98.5q0 58 -41 95.5t-99 37.5q-76 0 -121 -60q-13 -17 -29 -17q-15 0 -24.5 8.5t-9.5 23.5q0 14 10 26q65 80 178 80
q88 0 147.5 -50.5t59.5 -139.5q0 -61 -34.5 -104t-88.5 -58v-2q63 -13 103 -60t40 -116q0 -98 -66 -156t-162 -58q-138 0 -205 109q-8 13 -8 25q0 14 10 23.5t24 9.5q18 0 35 -25z" />
    <glyph glyph-name="four" unicode="4" horiz-adv-x="580" 
d="M366 234v372h-2l-247 -372h249zM436 234h76q20 0 27.5 -10t7.5 -21t-7.5 -21.5t-27.5 -10.5h-76v-138q0 -22 -11 -31t-24 -9q-8 0 -15 2.5t-13.5 12t-6.5 25.5v138h-283q-27 0 -37.5 13.5t-10.5 28.5q0 18 16 42l289 427q22 33 50 33q16 0 31 -12t15 -42v-427z" />
    <glyph glyph-name="five" unicode="5" horiz-adv-x="580" 
d="M77 76q-10 14 -10 27q0 14 10.5 23.5t24.5 9.5q18 0 32 -20q48 -72 130 -72q72 0 119 48t47 120q0 77 -49.5 123.5t-126.5 46.5q-41 0 -86 -14q-21 -7 -30 -7q-6 0 -12 2t-12 10t-6 21l5 271q1 43 43 43h291q20 0 27.5 -10.5t7.5 -21.5t-7.5 -21.5t-27.5 -10.5h-267
l-5 -219q44 16 98 16q100 0 165 -62t65 -160q0 -103 -65.5 -170t-169.5 -67q-125 0 -191 94z" />
    <glyph glyph-name="six" unicode="6" horiz-adv-x="580" 
d="M369 657l-168 -258l2 -2q34 26 101 26q93 0 154.5 -61t61.5 -157q0 -98 -65 -160.5t-165 -62.5t-165 62.5t-65 160.5q0 88 64 192l187 298q13 20 31 20q15 0 25.5 -9t10.5 -24q0 -12 -9 -25zM132 205q0 -70 44.5 -116t113.5 -46t113.5 46t44.5 116t-43 115t-115 45
t-115 -45t-43 -115z" />
    <glyph glyph-name="seven" unicode="7" horiz-adv-x="580" 
d="M497 639l-277 -619q-12 -27 -35 -27q-16 0 -26.5 9.5t-10.5 25.5q0 10 5 22l272 594h-320q-20 0 -27.5 10.5t-7.5 21.5t7.5 21.5t27.5 10.5h357q24 0 33.5 -13t9.5 -27q0 -12 -8 -29z" />
    <glyph glyph-name="eight" unicode="8" horiz-adv-x="580" 
d="M490 537q0 -55 -30 -99.5t-77 -60.5v-2q59 -17 96.5 -68t37.5 -121q0 -90 -66.5 -147t-160.5 -57t-160.5 57t-66.5 147q0 70 37.5 120.5t96.5 68.5v2q-47 16 -77 60.5t-30 99.5q0 84 58.5 136.5t141.5 52.5t141.5 -52.5t58.5 -136.5zM420 533q0 57 -37 94.5t-93 37.5
t-93 -37.5t-37 -94.5q0 -55 37.5 -91t92.5 -36t92.5 36t37.5 91zM445 194q0 64 -43 106t-112 42t-112 -42t-43 -106q0 -65 43 -108t112 -43t112 43t43 108z" />
    <glyph glyph-name="nine" unicode="9" horiz-adv-x="580" 
d="M458 311l-187 -298q-13 -20 -31 -20q-15 0 -25.5 9t-10.5 24q0 12 9 25l168 258l-2 2q-34 -26 -101 -26q-93 0 -154.5 61t-61.5 157q0 98 65 160.5t165 62.5t165 -62.5t65 -160.5q0 -88 -64 -192zM450 503q0 70 -44.5 116t-113.5 46t-113.5 -46t-44.5 -116t43 -115
t115 -45t115 45t43 115z" />
    <glyph glyph-name="colon" unicode=":" horiz-adv-x="300" 
d="M204 420q0 -22 -15.5 -38t-38.5 -16t-38.5 16t-15.5 38t15.5 38t38.5 16t38.5 -16t15.5 -38zM204 48q0 -22 -15.5 -38t-38.5 -16t-38.5 16t-15.5 38t15.5 38t38.5 16t38.5 -16t15.5 -38z" />
    <glyph glyph-name="semicolon" unicode=";" horiz-adv-x="300" 
d="M204 420q0 -22 -15.5 -38t-38.5 -16t-38.5 16t-15.5 38t15.5 38t38.5 16t38.5 -16t15.5 -38zM185 53l-57 -174q-9 -26 -31 -26q-14 0 -24 8.5t-10 22.5q0 8 3 18l53 171q8 29 34 29q15 0 25 -9t10 -24q0 -5 -3 -16z" />
    <glyph glyph-name="less" unicode="&#x3c;" horiz-adv-x="666" 
d="M547 61l-454 212q-22 10 -22 30t22 30l454 212q13 6 22 6q11 0 18.5 -8t7.5 -19q0 -17 -18 -25l-418 -196l418 -196q18 -8 18 -25q0 -11 -7.5 -19t-18.5 -8q-9 0 -22 6z" />
    <glyph glyph-name="equal" unicode="=" horiz-adv-x="666" 
d="M562 348h-458q-33 0 -33 30t33 30h458q33 0 33 -30t-33 -30zM562 198h-458q-33 0 -33 30t33 30h458q33 0 33 -30t-33 -30z" />
    <glyph glyph-name="greater" unicode="&#x3e;" horiz-adv-x="666" 
d="M573 273l-454 -212q-13 -6 -22 -6q-11 0 -18.5 8t-7.5 19q0 17 18 25l418 196l-418 196q-18 8 -18 25q0 11 7.5 19t18.5 8q9 0 22 -6l454 -212q22 -10 22 -30t-22 -30z" />
    <glyph glyph-name="question" unicode="?" horiz-adv-x="482" 
d="M300 48q0 -22 -15.5 -38t-38.5 -16t-38.5 16t-15.5 38t15.5 38t38.5 16t38.5 -16t15.5 -38zM274 225q0 -22 -11 -31t-24 -9q-8 0 -15 2.5t-13.5 12t-6.5 25.5v27q0 51 20.5 84.5t59.5 67.5l28 25q58 51 58 111q0 55 -35.5 86.5t-89.5 31.5q-45 0 -77.5 -24.5t-46.5 -68.5
q-9 -28 -33 -28q-14 0 -23.5 9.5t-9.5 24.5q0 9 4 20q22 60 71.5 94.5t117.5 34.5q83 0 138.5 -47t55.5 -129q0 -41 -14 -73t-30 -49t-48 -43q-45 -37 -60.5 -63t-15.5 -78v-13z" />
    <glyph glyph-name="at" unicode="@" horiz-adv-x="800" 
d="M412 489q-56 0 -89.5 -52t-33.5 -116q0 -38 18.5 -70.5t61.5 -32.5q62 0 94 53.5t32 114.5q0 103 -83 103zM711 82q-115 -100 -294 -100q-171 0 -276.5 103.5t-105.5 267.5q0 159 111.5 266t270.5 107q70 0 132.5 -20.5t112.5 -59t79.5 -101t29.5 -140.5q0 -115 -56 -180
t-138 -65q-42 0 -64.5 21t-22.5 52h-4q-12 -26 -46 -49.5t-79 -23.5q-67 0 -106 46t-39 119q0 89 55.5 156.5t143.5 67.5q37 0 65 -17t39 -43h4l5 24q6 28 30 28q13 0 22 -7.5t9 -21.5q0 -6 -2 -15l-32 -149q-11 -50 -11 -80q0 -50 49 -50t80 51.5t31 128.5q0 126 -79.5 196
t-208.5 70q-136 0 -221 -89.5t-85 -224.5q0 -141 86.5 -224.5t227.5 -83.5q144 0 247 84q13 10 23 10q12 0 20.5 -8t8.5 -21q0 -14 -12 -25z" />
    <glyph glyph-name="A" unicode="A" horiz-adv-x="700" 
d="M608 19l-71 167h-376l-71 -168q-11 -25 -34 -25q-15 0 -25.5 9.5t-10.5 24.5q0 9 5 22l277 626q17 40 49 40t49 -40l274 -624q6 -13 6 -23q0 -15 -11 -25t-26 -10q-24 0 -35 26zM349 628l-160 -376h320z" />
    <glyph glyph-name="B" unicode="B" horiz-adv-x="636" 
d="M166 646v-248h145q61 0 105.5 30t44.5 94t-47 94t-123 30h-125zM166 339v-277h134q85 0 140 34t55 104q0 69 -47 104t-135 35h-147zM304 0h-167q-43 0 -43 43v622q0 43 43 43h168q44 0 82 -8.5t72 -28t54 -56.5t20 -88q0 -56 -34.5 -97.5t-90.5 -54.5v-2q71 -8 115.5 -55
t44.5 -122q0 -89 -71 -142.5t-193 -53.5z" />
    <glyph glyph-name="C" unicode="C" horiz-adv-x="720" 
d="M425 -18q-160 0 -264.5 105.5t-104.5 266.5t105 266.5t264 105.5q66 0 126 -22t100 -62q13 -13 13 -27q0 -15 -10 -25t-26 -10q-17 0 -36 19q-64 64 -166 64q-133 0 -213.5 -90t-80.5 -219t81 -219t213 -90q121 0 191 83q15 18 31 18q14 0 23.5 -9t9.5 -24q0 -14 -12 -27
q-92 -104 -244 -104z" />
    <glyph glyph-name="D" unicode="D" horiz-adv-x="757" 
d="M329 0h-192q-43 0 -43 43v622q0 43 43 43h192q68 0 133 -22.5t119 -65t87 -112t33 -154.5t-33 -154.5t-87 -112t-119 -65t-133 -22.5zM166 644v-580h143q77 0 138.5 24.5t99.5 66t58 92.5t20 107t-20 107t-58 92.5t-99.5 66t-138.5 24.5h-143z" />
    <glyph glyph-name="E" unicode="E" horiz-adv-x="592" 
d="M481 337h-315v-273h351q20 0 27.5 -10.5t7.5 -21.5t-7.5 -21.5t-27.5 -10.5h-380q-43 0 -43 43v622q0 43 43 43h368q20 0 27.5 -10.5t7.5 -21.5t-7.5 -21.5t-27.5 -10.5h-339v-244h315q20 0 27.5 -10t7.5 -21t-7.5 -21.5t-27.5 -10.5z" />
    <glyph glyph-name="F" unicode="F" horiz-adv-x="562" 
d="M166 335v-302q0 -22 -11.5 -31t-24.5 -9q-8 0 -15 2.5t-14 12t-7 25.5v632q0 43 43 43h356q20 0 27.5 -10.5t7.5 -21.5t-7.5 -21.5t-27.5 -10.5h-327v-246h302q20 0 27.5 -10t7.5 -21t-7.5 -21.5t-27.5 -10.5h-302z" />
    <glyph glyph-name="G" unicode="G" horiz-adv-x="779" 
d="M689 327v-247q0 -19 -8 -29t-29 -20q-105 -49 -227 -49q-160 0 -264.5 105.5t-104.5 266.5t105 266.5t264 105.5q140 0 228 -71q16 -13 16 -29q0 -15 -9.5 -24.5t-24.5 -9.5t-30 13q-71 58 -179 58q-132 0 -213 -90t-81 -219q0 -128 81 -218t213 -90q121 0 191 46v215
h-137q-20 0 -27.5 10.5t-7.5 21.5t7.5 21t27.5 10h166q43 0 43 -43z" />
    <glyph glyph-name="H" unicode="H" horiz-adv-x="718" 
d="M552 33v302h-386v-302q0 -22 -11.5 -31t-24.5 -9q-8 0 -15 2.5t-14 12t-7 25.5v642q0 22 11.5 31t24.5 9q8 0 15 -2.5t14 -12t7 -25.5v-274h386v274q0 22 11.5 31t24.5 9q8 0 15 -2.5t14 -12t7 -25.5v-642q0 -22 -11.5 -31t-24.5 -9q-8 0 -15 2.5t-14 12t-7 25.5z" />
    <glyph glyph-name="I" unicode="I" horiz-adv-x="260" 
d="M166 675v-642q0 -22 -11.5 -31t-24.5 -9q-8 0 -15 2.5t-14 12t-7 25.5v642q0 22 11.5 31t24.5 9q8 0 15 -2.5t14 -12t7 -25.5z" />
    <glyph glyph-name="J" unicode="J" horiz-adv-x="492" 
d="M404 204q0 -30 -4.5 -58.5t-17.5 -59t-33.5 -53t-54.5 -37t-79 -14.5q-65 0 -110 28.5t-67 75.5q-6 12 -6 24q0 14 9.5 23t23.5 9q21 0 35 -27q37 -70 107 -70q125 0 125 164v466q0 22 11.5 31t24.5 9q8 0 15 -2.5t14 -12t7 -25.5v-471z" />
    <glyph glyph-name="K" unicode="K" horiz-adv-x="628" 
d="M585 61q15 -15 15 -30q0 -17 -11 -27.5t-28 -10.5q-15 0 -30 15l-364 369h-1v-344q0 -22 -11.5 -31t-24.5 -9q-8 0 -15 2.5t-14 12t-7 25.5v642q0 22 11.5 31t24.5 9q8 0 15 -2.5t14 -12t7 -25.5v-285h1l349 312q14 13 29 13t24.5 -9.5t9.5 -23.5q0 -16 -15 -29
l-314 -266z" />
    <glyph glyph-name="L" unicode="L" horiz-adv-x="510" 
d="M94 43v632q0 22 11.5 31t24.5 9q8 0 15 -2.5t14 -12t7 -25.5v-611h302q20 0 27.5 -10.5t7.5 -21.5t-7.5 -21.5t-27.5 -10.5h-331q-43 0 -43 43z" />
    <glyph glyph-name="M" unicode="M" horiz-adv-x="886" 
d="M792 33q0 -22 -11.5 -31t-24.5 -9q-8 0 -15 2.5t-14 12t-7 25.5v519h-2l-231 -528q-13 -31 -44 -31t-44 31l-231 525h-2v-516q0 -22 -11.5 -31t-24.5 -9q-8 0 -15 2.5t-14 12t-7 25.5v633q0 27 14 38t30 11q32 0 49 -39l257 -587h1l254 587q17 39 49 39q16 0 30 -11
t14 -38v-633z" />
    <glyph glyph-name="N" unicode="N" horiz-adv-x="764" 
d="M563 37l-395 559h-2v-563q0 -22 -11.5 -31t-24.5 -9q-8 0 -15 2.5t-14 12t-7 25.5v626q0 31 14.5 43.5t32.5 12.5q29 0 60 -44l395 -553h2v557q0 22 11.5 31t24.5 9q8 0 15 -2.5t14 -12t7 -25.5v-626q0 -31 -15 -43.5t-33 -12.5q-28 0 -59 44z" />
    <glyph glyph-name="O" unicode="O" horiz-adv-x="850" 
d="M794 354q0 -161 -105 -266.5t-264 -105.5t-264 105.5t-105 266.5t105 266.5t264 105.5t264 -105.5t105 -266.5zM718 354q0 129 -80.5 219t-212.5 90t-212.5 -90t-80.5 -219t80.5 -218.5t212.5 -89.5t212.5 89.5t80.5 218.5z" />
    <glyph glyph-name="P" unicode="P" horiz-adv-x="580" 
d="M166 646v-256h122q84 0 128.5 33t44.5 96q0 127 -173 127h-122zM137 708h157q111 0 175 -48t64 -141t-65 -141.5t-176 -48.5h-126v-296q0 -22 -11.5 -31t-24.5 -9q-8 0 -15 2.5t-14 12t-7 25.5v632q0 43 43 43z" />
    <glyph glyph-name="Q" unicode="Q" horiz-adv-x="843" 
d="M697 363q0 124 -78.5 212t-204.5 88q-127 0 -204.5 -88t-77.5 -212t77.5 -212t204.5 -88q126 0 204.5 88t78.5 212zM771 363q0 -95 -42.5 -173t-123.5 -124v-2h186q20 0 27.5 -10.5t7.5 -21.5t-7.5 -21.5t-27.5 -10.5h-377q-154 0 -256 103t-102 260t102 260t256 103
q153 0 255 -103t102 -260z" />
    <glyph glyph-name="R" unicode="R" horiz-adv-x="599" 
d="M166 646v-253h125q87 0 134 32t47 94q0 127 -178 127h-128zM484 13l-198 318h-120v-298q0 -22 -11.5 -31t-24.5 -9q-8 0 -15 2.5t-14 12t-7 25.5v632q0 43 43 43h165q112 0 177 -45.5t65 -143.5q0 -77 -50.5 -125t-130.5 -57l184 -283q8 -12 8 -25q0 -16 -10.5 -26
t-27.5 -10q-20 0 -33 20z" />
    <glyph glyph-name="S" unicode="S" horiz-adv-x="564" 
d="M127 110q66 -66 147 -66q61 0 109 36.5t48 100.5q0 29 -10.5 51.5t-23.5 36.5t-40.5 27.5t-45 19.5t-53.5 17q-42 13 -70.5 26t-58.5 35t-45.5 56.5t-15.5 80.5q0 65 35.5 110.5t85 65t105.5 19.5q114 0 176 -62q12 -12 12 -27q0 -14 -9.5 -23.5t-24.5 -9.5t-32 15
q-52 46 -125 46q-59 0 -105 -35t-46 -98q0 -26 9.5 -47t20.5 -33t36.5 -25t40 -18l47.5 -16l44.5 -14.5t40 -15.5t41 -20.5t32 -25.5t29 -34t16 -42t7.5 -55q0 -99 -69 -151.5t-162 -52.5q-117 0 -194 74q-15 15 -15 32q0 14 10 24.5t25 10.5t28 -13z" />
    <glyph glyph-name="T" unicode="T" horiz-adv-x="570" 
d="M40 708h490q20 0 27.5 -10.5t7.5 -21.5t-7.5 -21.5t-27.5 -10.5h-209v-611q0 -22 -11.5 -31t-24.5 -9q-8 0 -15 2.5t-14 12t-7 25.5v611h-209q-20 0 -27.5 10.5t-7.5 21.5t7.5 21.5t27.5 10.5z" />
    <glyph glyph-name="U" unicode="U" horiz-adv-x="710" 
d="M548 272v403q0 22 11.5 31t24.5 9q8 0 15 -2.5t14 -12t7 -25.5v-411q0 -38 -7 -74.5t-25.5 -75.5t-47.5 -67t-76.5 -46.5t-108.5 -18.5t-108.5 18.5t-76.5 46.5t-47.5 67t-25.5 75.5t-7 74.5v411q0 22 11.5 31t24.5 9q8 0 15 -2.5t14 -12t7 -25.5v-403q0 -96 46.5 -161
t146.5 -65t146.5 65t46.5 161z" />
    <glyph glyph-name="V" unicode="V" horiz-adv-x="623" 
d="M605 658l-243 -624q-16 -41 -51 -41t-51 41l-242 624q-5 12 -5 23q0 14 10 24t26 10q24 0 35 -27l227 -595h2l226 595q11 27 35 27q16 0 26 -10t10 -24q0 -11 -5 -23z" />
    <glyph glyph-name="W" unicode="W" horiz-adv-x="972" 
d="M949 661l-186 -621q-14 -47 -54 -47t-54 47l-168 565h-2l-168 -565q-14 -47 -54 -47t-54 47l-186 621q-3 11 -3 19q0 15 11 25t26 10q27 0 36 -32l170 -584h2l170 569q14 47 52 47t52 -47l170 -569h2l168 584q9 32 37 32q15 0 25.5 -10t10.5 -26q0 -6 -3 -18z" />
    <glyph glyph-name="X" unicode="X" horiz-adv-x="649" 
d="M611 56q11 -15 11 -29q0 -15 -11 -25t-26 -10q-17 0 -32 19l-229 308l-227 -307q-15 -19 -32 -19q-15 0 -26 10t-11 25q0 14 11 29l240 315l-214 282q-9 12 -9 27q0 14 11 24t25 10q20 0 33 -19l201 -274l200 274q14 19 32 19q14 0 24.5 -9.5t10.5 -23.5q0 -13 -9 -26
l-214 -285z" />
    <glyph glyph-name="Y" unicode="Y" horiz-adv-x="602" 
d="M580 658l-243 -353v-272q0 -22 -11.5 -31t-24.5 -9q-8 0 -15 2.5t-14 12t-7 25.5v272l-240 348q-9 14 -9 26q0 16 11 26t27 10q20 0 34 -22l215 -328l218 330q13 20 32 20q14 0 24.5 -9t10.5 -24q0 -12 -8 -24z" />
    <glyph glyph-name="Z" unicode="Z" horiz-adv-x="572" 
d="M513 0h-450q-22 0 -30.5 12t-8.5 24q0 14 17 38l404 570h-375q-20 0 -27.5 10.5t-7.5 21.5t7.5 21.5t27.5 10.5h433q22 0 30.5 -12t8.5 -24q0 -14 -17 -38l-403 -570h391q20 0 27.5 -10.5t7.5 -21.5t-7.5 -21.5t-27.5 -10.5z" />
    <glyph glyph-name="bracketleft" unicode="[" horiz-adv-x="300" 
d="M197 -156h-100q-39 0 -39 39v810q0 39 39 39h100q30 0 30 -27t-30 -27h-73v-780h73q30 0 30 -27t-30 -27z" />
    <glyph glyph-name="backslash" unicode="\" horiz-adv-x="370" 
d="M72 704l283 -677q3 -9 3 -15q0 -14 -9.5 -21.5t-22.5 -7.5q-18 0 -27 21l-283 677q-3 9 -3 15q0 14 9.5 21.5t22.5 7.5q18 0 27 -21z" />
    <glyph glyph-name="bracketright" unicode="]" horiz-adv-x="300" 
d="M203 -156h-100q-30 0 -30 27t30 27h73v780h-73q-30 0 -30 27t30 27h100q39 0 39 -39v-810q0 -39 -39 -39z" />
    <glyph glyph-name="asciicircum" unicode="^" horiz-adv-x="666" 
d="M366 691l203 -378q5 -10 5 -18q0 -12 -8 -19.5t-20 -7.5q-16 0 -26 20l-187 348l-187 -348q-10 -20 -26 -20q-12 0 -20 7.5t-8 19.5q0 8 5 18l203 378q13 24 33 24t33 -24z" />
    <glyph glyph-name="underscore" unicode="_" horiz-adv-x="500" 
d="M472 -125h-444q-28 0 -28 25t28 25h444q28 0 28 -25t-28 -25z" />
    <glyph glyph-name="grave" unicode="`" 
d="M81 701l79 -91q11 -12 11 -25q0 -11 -8 -19.5t-20 -8.5q-15 0 -28 14l-81 89q-11 12 -11 24q0 13 8.5 21.5t21.5 9.5q16 0 28 -14z" />
    <glyph glyph-name="a" unicode="a" horiz-adv-x="534" 
d="M385 234h-20q-48 0 -85.5 -3.5t-75 -13.5t-58.5 -31t-21 -53q0 -46 32 -67.5t78 -21.5q69 0 109.5 45t40.5 110v35zM449 105q0 -34 3 -61q2 -16 2 -19q0 -15 -8.5 -23.5t-21.5 -8.5q-27 0 -32 34q-3 24 -3 49h-2q-61 -88 -170 -88q-63 0 -112.5 35.5t-49.5 106.5
q0 35 12 61.5t36 43.5t52 27.5t69 16t76.5 7t84.5 1.5v15q0 121 -125 121q-65 0 -120 -39q-14 -9 -24 -9q-12 0 -19.5 7.5t-7.5 20.5t13 25q61 52 165 52q80 0 131 -44t51 -126v-205z" />
    <glyph glyph-name="b" unicode="b" horiz-adv-x="637" 
d="M509 234q0 81 -47.5 135t-129.5 54q-78 0 -129 -54t-51 -135t51 -134.5t129 -53.5q82 0 129.5 53.5t47.5 134.5zM92 30v696q0 21 11 29t23 8q7 0 14 -2t13.5 -11t6.5 -24v-339h2q29 44 77 68.5t100 24.5q108 0 175 -70.5t67 -175.5t-67 -175.5t-175 -70.5q-52 0 -100 24
t-77 67h-2v-49q0 -21 -11 -29t-23 -8q-7 0 -14 2t-13.5 11t-6.5 24z" />
    <glyph glyph-name="c" unicode="c" horiz-adv-x="500" 
d="M418 89q14 13 27 13t21.5 -8.5t8.5 -20.5q0 -14 -12 -26q-61 -59 -157 -59q-112 0 -181 69.5t-69 176.5t69 176.5t181 69.5q90 0 151 -56q13 -13 13 -27q0 -13 -9 -21.5t-22 -8.5q-14 0 -34 19q-39 37 -98 37q-80 0 -129.5 -53.5t-49.5 -135.5q0 -81 49 -134.5t129 -53.5
q66 0 112 43z" />
    <glyph glyph-name="d" unicode="d" horiz-adv-x="637" 
d="M128 234q0 -81 47.5 -134.5t129.5 -53.5q78 0 129 53.5t51 134.5t-51 135t-129 54q-82 0 -129.5 -54t-47.5 -135zM545 30q0 -21 -11 -29t-23 -8q-7 0 -14 2t-13.5 11t-6.5 24v49h-2q-29 -43 -77 -67t-100 -24q-108 0 -175 70.5t-67 175.5t67 175.5t175 70.5
q52 0 100 -24.5t77 -68.5h2v339q0 21 11 29t23 8q7 0 14 -2t13.5 -11t6.5 -24v-696z" />
    <glyph glyph-name="e" unicode="e" horiz-adv-x="572" 
d="M479 216h-352q2 -71 51 -120.5t120 -49.5q80 0 135 61q12 13 26 13q13 0 22 -8t9 -22q0 -13 -10 -24q-70 -78 -182 -78q-104 0 -173 70t-69 176q0 105 68 175.5t168 70.5q101 0 162.5 -62.5t61.5 -166.5q0 -35 -37 -35zM128 270h319q-3 68 -43.5 110.5t-111.5 42.5
q-66 0 -112.5 -45.5t-51.5 -107.5z" />
    <glyph glyph-name="f" unicode="f" horiz-adv-x="295" 
d="M110 411h-73q-32 0 -32 29q0 10 7 19t25 9h73v128q0 81 40 126.5t119 45.5q57 0 57 -32q0 -29 -33 -29q-2 0 -11.5 0.5t-15.5 0.5q-51 0 -69.5 -31t-18.5 -89v-120h85q18 0 25 -9t7 -19q0 -29 -32 -29h-85v-381q0 -21 -11 -29t-23 -8q-7 0 -14 2t-13.5 11t-6.5 24v381z
" />
    <glyph glyph-name="g" unicode="g" horiz-adv-x="632" 
d="M91 -168q-16 14 -16 30q0 13 9.5 23t23.5 10q13 0 28 -12q74 -63 158 -63q95 0 139 51t44 133v88h-2q-26 -42 -75.5 -67t-101.5 -25q-108 0 -175 67t-67 171q0 102 67.5 172t174.5 70q53 0 101.5 -24.5t75.5 -68.5h2v51q0 21 11 29t23 8q7 0 14 -2t13.5 -11t6.5 -24v-434
q0 -43 -11.5 -82t-37.5 -77.5t-78.5 -61.5t-126.5 -23q-118 0 -200 72zM128 240q0 -77 47.5 -129.5t129.5 -52.5q79 0 129.5 50.5t50.5 131.5q0 75 -51.5 129t-128.5 54q-82 0 -129.5 -53t-47.5 -130z" />
    <glyph glyph-name="h" unicode="h" horiz-adv-x="583" 
d="M429 30v229q0 79 -28.5 121.5t-98.5 42.5q-59 0 -100.5 -47.5t-41.5 -135.5v-210q0 -21 -11 -29t-23 -8q-7 0 -14 2t-13.5 11t-6.5 24v696q0 21 11 29t23 8q7 0 14 -2t13.5 -11t6.5 -24v-335h2q18 40 62.5 64.5t94.5 24.5q87 0 132.5 -52t45.5 -141v-257q0 -21 -11 -29
t-23 -8q-7 0 -14 2t-13.5 11t-6.5 24z" />
    <glyph glyph-name="i" unicode="i" horiz-adv-x="250" 
d="M173 648q0 -20 -14.5 -34t-33.5 -14t-33.5 14t-14.5 34t14.5 34t33.5 14t33.5 -14t14.5 -34zM159 30q0 -21 -11 -29t-23 -8q-7 0 -14 2t-13.5 11t-6.5 24v408q0 21 11 29t23 8q7 0 14 -2t13.5 -11t6.5 -24v-408z" />
    <glyph glyph-name="j" unicode="j" horiz-adv-x="251" 
d="M174 648q0 -20 -14.5 -34t-33.5 -14t-33.5 14t-14.5 34t14.5 34t33.5 14t33.5 -14t14.5 -34zM27 -240q-56 0 -56 32q0 13 7.5 21t20.5 8q4 0 14.5 -1.5t15.5 -1.5q37 0 50 25t13 75v520q0 21 11 29t23 8q7 0 14 -2t13.5 -11t6.5 -24v-531q0 -147 -133 -147z" />
    <glyph glyph-name="k" unicode="k" horiz-adv-x="510" 
d="M460 56q14 -13 14 -28t-10 -25t-25 -10q-14 0 -28 13l-248 240h-3v-216q0 -21 -11 -29t-23 -8q-7 0 -14 2t-13.5 11t-6.5 24v696q0 21 11 29t23 8q7 0 14 -2t13.5 -11t6.5 -24v-469h3l228 207q12 11 25 11q14 0 23.5 -9t9.5 -23q0 -15 -14 -28l-187 -161z" />
    <glyph glyph-name="l" unicode="l" horiz-adv-x="252" 
d="M92 30v696q0 21 11 29t23 8q7 0 14 -2t13.5 -11t6.5 -24v-696q0 -21 -11 -29t-23 -8q-7 0 -14 2t-13.5 11t-6.5 24z" />
    <glyph glyph-name="m" unicode="m" horiz-adv-x="883" 
d="M90 30v335q0 21 -2 75q-1 20 9.5 27.5t22.5 7.5q32 0 33 -35l2 -52h2q21 41 62.5 66.5t91.5 25.5q106 0 144 -99q49 99 164 99q87 0 132.5 -52t45.5 -141v-257q0 -21 -11 -29t-23 -8q-7 0 -14 2t-13.5 11t-6.5 24v229q0 164 -121 164q-68 0 -100.5 -50.5t-32.5 -123.5
v-219q0 -21 -11 -29t-23 -8q-7 0 -14 2t-13.5 11t-6.5 24v243q0 74 -24.5 112t-88.5 38q-54 0 -95 -47.5t-41 -135.5v-210q0 -21 -11 -29t-23 -8q-7 0 -14 2t-13.5 11t-6.5 24z" />
    <glyph glyph-name="n" unicode="n" horiz-adv-x="581" 
d="M153 440l2 -52h2q19 40 64.5 66t95.5 26q87 0 132.5 -52t45.5 -141v-257q0 -21 -11 -29t-23 -8q-7 0 -14 2t-13.5 11t-6.5 24v229q0 79 -28.5 121.5t-98.5 42.5q-59 0 -100.5 -47.5t-41.5 -135.5v-210q0 -21 -11 -29t-23 -8q-7 0 -14 2t-13.5 11t-6.5 24v335q0 43 -2 75
q-1 20 9.5 27.5t22.5 7.5q32 0 33 -35z" />
    <glyph glyph-name="o" unicode="o" horiz-adv-x="611" 
d="M555 234q0 -106 -70.5 -176t-179.5 -70q-108 0 -178.5 70t-70.5 176t70.5 176t178.5 70q109 0 179.5 -70t70.5 -176zM483 234q0 81 -49 135t-129 54q-79 0 -128 -54t-49 -135q0 -80 49 -134t128 -54q80 0 129 53.5t49 134.5z" />
    <glyph glyph-name="p" unicode="p" horiz-adv-x="635" 
d="M507 234q0 81 -47.5 135t-129.5 54q-78 0 -129 -54t-51 -135t51 -134.5t129 -53.5q82 0 129.5 53.5t47.5 134.5zM579 234q0 -105 -67 -175.5t-175 -70.5q-51 0 -99 24t-77 67h-3v-289q0 -21 -11 -29t-23 -8q-7 0 -14 2t-13.5 11t-6.5 24v648q0 21 11 29t23 8q7 0 14 -2
t13.5 -11t6.5 -24v-51h3q28 44 76 68.5t100 24.5q108 0 175 -70.5t67 -175.5z" />
    <glyph glyph-name="q" unicode="q" horiz-adv-x="635" 
d="M128 234q0 -81 47.5 -134.5t129.5 -53.5q78 0 129 53.5t51 134.5t-51 135t-129 54q-82 0 -129.5 -54t-47.5 -135zM477 -210v289h-3q-29 -43 -77 -67t-99 -24q-108 0 -175 70.5t-67 175.5t67 175.5t175 70.5q52 0 100 -24.5t76 -68.5h3v51q0 21 11 29t23 8q7 0 14 -2
t13.5 -11t6.5 -24v-648q0 -21 -11 -29t-23 -8q-7 0 -14 2t-13.5 11t-6.5 24z" />
    <glyph glyph-name="r" unicode="r" horiz-adv-x="360" 
d="M158 30q0 -21 -11 -29t-23 -8q-7 0 -14 2t-13.5 11t-6.5 24v335q0 43 -2 75q-1 20 9.5 27.5t22.5 7.5q32 0 33 -35l2 -52h2q20 41 60.5 66.5t89.5 25.5q20 0 29 -4q19 -8 19 -27q0 -33 -37 -33q-5 0 -12.5 0.5t-10.5 0.5q-59 0 -98 -44.5t-39 -132.5v-210z" />
    <glyph glyph-name="s" unicode="s" horiz-adv-x="444" 
d="M325 379q-41 44 -101 44q-41 0 -70 -18.5t-29 -54.5q0 -32 26 -50t86 -30q83 -17 122.5 -50t39.5 -87q0 -74 -51.5 -109.5t-124.5 -35.5q-99 0 -162 63q-13 13 -13 28q0 14 9 23t23 9t29 -15q47 -50 113 -50q48 0 79 19.5t31 62.5q0 35 -32.5 54t-105.5 36q-26 6 -45 13
t-41.5 21t-35 37.5t-12.5 54.5q0 67 48.5 101.5t118.5 34.5q86 0 142 -56q13 -13 13 -27q0 -13 -9 -22t-22 -9q-14 0 -26 13z" />
    <glyph glyph-name="t" unicode="t" horiz-adv-x="317" 
d="M284 4q-23 -10 -63 -10q-48 0 -84 28t-36 97v292h-72q-18 0 -25 9t-7 19q0 29 32 29h72v102q0 21 11 29t23 8q7 0 14 -2t13.5 -11t6.5 -24v-102h107q32 0 32 -29q0 -10 -7 -19t-25 -9h-107v-273q0 -48 17.5 -67t50.5 -19q14 0 29 6q9 3 14 3q12 0 19.5 -7.5t7.5 -20.5
q0 -19 -23 -29z" />
    <glyph glyph-name="u" unicode="u" horiz-adv-x="581" 
d="M491 438v-335q0 -43 2 -75q1 -20 -9.5 -27.5t-22.5 -7.5q-32 0 -33 35q-2 38 -2 52h-2q-19 -40 -64.5 -66t-95.5 -26q-87 0 -132.5 52t-45.5 141v257q0 21 11 29t23 8q7 0 14 -2t13.5 -11t6.5 -24v-229q0 -79 28.5 -121.5t98.5 -42.5q59 0 100.5 47.5t41.5 135.5v210
q0 21 11 29t23 8q7 0 14 -2t13.5 -11t6.5 -24z" />
    <glyph glyph-name="v" unicode="v" horiz-adv-x="488" 
d="M294 31q-15 -38 -50 -38t-50 38l-165 392q-4 11 -4 19q0 14 10 23.5t26 9.5q23 0 34 -27l149 -376h2l150 376q10 27 33 27q16 0 25.5 -9t9.5 -23q0 -7 -4 -18z" />
    <glyph glyph-name="w" unicode="w" horiz-adv-x="746" 
d="M583 32q-13 -39 -47 -39t-47 39l-116 347h-2l-114 -347q-13 -39 -47 -39t-47 39l-129 394q-3 9 -3 16q0 15 10 24t26 9q24 0 33 -28l111 -359h2l118 353q12 34 42 34t42 -34l120 -353h2l110 359q9 28 33 28q15 0 25 -9t10 -23q0 -8 -3 -17z" />
    <glyph glyph-name="x" unicode="x" horiz-adv-x="484" 
d="M443 53q10 -13 10 -25q0 -15 -10 -25t-25 -10q-17 0 -31 18l-146 184l-151 -187q-11 -15 -28 -15q-14 0 -23 9t-9 23q0 13 10 25l160 192l-144 175q-10 13 -10 24q0 14 10 24t24 10q18 0 32 -18l130 -167l131 169q12 16 29 16q14 0 23.5 -9.5t9.5 -22.5t-10 -25
l-143 -173z" />
    <glyph glyph-name="y" unicode="y" horiz-adv-x="488" 
d="M460 425l-221 -546q-24 -59 -57 -89t-90 -30q-25 0 -40 4q-25 7 -25 30q0 12 8 20.5t21 8.5q4 0 16 -2q8 -1 17 -1q32 0 52.5 20.5t36.5 62.5l38 98l-186 422q-4 11 -4 19q0 14 10.5 23.5t24.5 9.5q23 0 34 -27l156 -375h2l143 375q10 27 33 27q15 0 25 -9t10 -23
q0 -7 -4 -18z" />
    <glyph glyph-name="z" unicode="z" horiz-adv-x="442" 
d="M385 0h-329q-18 0 -25 9.5t-7 20.5q0 14 14 32l277 349h-245q-32 0 -32 29q0 10 7 19t25 9h306q18 0 25 -9.5t7 -20.5q0 -14 -14 -32l-277 -347h268q19 0 26 -9.5t7 -19.5q0 -30 -33 -30z" />
    <glyph glyph-name="braceleft" unicode="{" horiz-adv-x="300" 
d="M-7 288q0 24 29 33q30 10 43.5 37t13.5 81v168q0 66 30 95.5t93 29.5h25q30 0 30 -27t-30 -27h-20q-35 0 -48.5 -20.5t-13.5 -62.5v-171q0 -113 -89 -135v-2q89 -22 89 -135v-171q0 -42 13.5 -62.5t48.5 -20.5h20q30 0 30 -27t-30 -27h-25q-63 0 -93 29.5t-30 95.5v168
q0 54 -13.5 81t-43.5 37q-29 9 -29 33z" />
    <glyph glyph-name="bar" unicode="|" horiz-adv-x="222" 
d="M81 -224v948q0 13 6 21t12 10t12 2t12 -2t12 -10t6 -21v-948q0 -13 -6 -21t-12 -10t-12 -2t-12 2t-12 10t-6 21z" />
    <glyph glyph-name="braceright" unicode="}" horiz-adv-x="300" 
d="M307 288q0 -24 -29 -33q-30 -10 -43.5 -37t-13.5 -81v-168q0 -66 -30 -95.5t-93 -29.5h-25q-30 0 -30 27t30 27h20q35 0 48.5 20.5t13.5 62.5v171q0 113 89 135v2q-89 22 -89 135v171q0 42 -13.5 62.5t-48.5 20.5h-20q-30 0 -30 27t30 27h25q63 0 93 -29.5t30 -95.5v-168
q0 -54 13.5 -81t43.5 -37q29 -9 29 -33z" />
    <glyph glyph-name="asciitilde" unicode="~" horiz-adv-x="666" 
d="M439 295q45 0 77 46q12 18 27 18q12 0 20 -8t8 -19t-11 -26q-53 -71 -119 -71q-55 0 -111 36q-63 40 -103 40q-45 0 -77 -46q-12 -18 -27 -18q-12 0 -20 8t-8 19t11 26q53 71 119 71q57 0 110 -35q64 -41 104 -41z" />
    <glyph glyph-name="uni00A0" unicode="&#xa0;" horiz-adv-x="250" 
 />
    <glyph glyph-name="exclamdown" unicode="&#xa1;" horiz-adv-x="328" 
d="M110 431q0 22 15.5 38t38.5 16t38.5 -16t15.5 -38t-15.5 -38t-38.5 -16t-38.5 16t-15.5 38zM200 254v-450q0 -22 -11.5 -31t-24.5 -9q-8 0 -15 2.5t-14 12t-7 25.5v450q0 22 11.5 31t24.5 9q8 0 15 -2.5t14 -12t7 -25.5z" />
    <glyph glyph-name="cent" unicode="&#xa2;" horiz-adv-x="580" 
d="M298 51v366q-64 -11 -101 -61.5t-37 -121.5t37 -121.5t101 -61.5zM484 47q-53 -53 -138 -58v-41q0 -27 -24 -27t-24 27v43q-97 10 -153.5 77.5t-56.5 165.5t56.5 165.5t153.5 77.5v43q0 27 24 27t24 -27v-41q82 -3 137 -57q13 -13 13 -27q0 -13 -9 -21.5t-22 -8.5
q-14 0 -34 19q-35 32 -85 35v-370q51 3 93 41q13 13 26 13t22 -8.5t9 -21.5q0 -14 -12 -26z" />
    <glyph glyph-name="sterling" unicode="&#xa3;" horiz-adv-x="580" 
d="M473 637q-35 28 -87 28q-42 0 -71 -18t-42.5 -48.5t-18.5 -58.5t-5 -58v-87h142q33 0 33 -30t-33 -30h-142v-275h236q33 0 33 -30t-33 -30h-384q-33 0 -33 30t33 30h76v275h-70q-33 0 -33 30t33 30h70v93q0 46 11 86t34.5 75.5t66 56t100.5 20.5q77 0 126 -37
q19 -14 19 -30q0 -14 -9.5 -23.5t-23.5 -9.5t-28 11z" />
    <glyph glyph-name="currency" unicode="&#xa4;" horiz-adv-x="860" 
d="M431 496q-81 0 -131.5 -54t-50.5 -133q0 -80 50.5 -134.5t131.5 -54.5t131.5 54.5t50.5 134.5q0 79 -50.5 133t-131.5 54zM662 29l-74 74q-67 -51 -157 -51t-158 53l-76 -76q-11 -11 -23 -11q-14 0 -23 9t-9 21q0 13 12 25l75 75q-53 64 -53 161q0 91 50 157l-72 71
q-12 11 -12 25q0 12 9 21t23 9q12 0 23 -11l72 -72q70 55 162 55q93 0 160 -54l71 71q11 11 23 11q14 0 23 -9t9 -21q0 -13 -12 -25l-69 -69q51 -67 51 -159q0 -96 -55 -164l73 -72q12 -12 12 -25q0 -12 -9 -21t-23 -9q-12 0 -23 11z" />
    <glyph glyph-name="yen" unicode="&#xa5;" horiz-adv-x="580" 
d="M543 656l-197 -274h120q16 0 23 -8.5t7 -18.5q0 -6 -2 -11.5t-9.5 -10.5t-18.5 -5h-142v-105h142q16 0 23 -8.5t7 -18.5q0 -6 -2 -11.5t-9.5 -10.5t-18.5 -5h-142v-139q0 -21 -11 -29t-23 -8q-7 0 -14 2t-13.5 11t-6.5 24v139h-142q-16 0 -23 8.5t-7 18.5q0 6 2 11.5
t9.5 10.5t18.5 5h142v105h-142q-16 0 -23 8.5t-7 18.5q0 6 2 11.5t9.5 10.5t18.5 5h122l-198 273q-9 13 -9 25q0 15 10.5 25t26.5 10q18 0 31 -19l195 -288l194 289q12 18 30 18q16 0 26 -9.5t10 -24.5q0 -12 -9 -25z" />
    <glyph glyph-name="brokenbar" unicode="&#xa6;" horiz-adv-x="222" 
d="M81 351v298q0 13 6 21t12 10t12 2t12 -2t12 -10t6 -21v-298q0 -13 -6 -21t-12 -10t-12 -2t-12 2t-12 10t-6 21zM81 -149v298q0 13 6 21t12 10t12 2t12 -2t12 -10t6 -21v-298q0 -13 -6 -21t-12 -10t-12 -2t-12 2t-12 10t-6 21z" />
    <glyph glyph-name="section" unicode="&#xa7;" horiz-adv-x="580" 
d="M160 -12q44 -61 121 -61q45 0 80.5 23t35.5 75q0 60 -75 96l-127 61q-45 22 -70 52.5t-25 81.5q0 48 28.5 82.5t75.5 49.5q-77 46 -77 120q0 76 52.5 117t128.5 41q104 0 150 -65q8 -11 8 -23q0 -14 -9.5 -23t-23.5 -9q-13 0 -30 18q-37 42 -96 42q-49 0 -78.5 -24
t-29.5 -65q0 -22 7.5 -39t24 -30t29 -20t37.5 -19l87 -41q103 -50 103 -142q0 -47 -25 -82t-64 -49q71 -43 71 -125q0 -79 -54.5 -121t-133.5 -42q-124 0 -180 82q-9 12 -9 25q0 15 10 24.5t25 9.5q19 0 33 -20zM320 384l-61 26q-34 -4 -61.5 -26.5t-27.5 -63.5
q0 -36 24 -55.5t84 -47.5l66 -30q29 7 51 30t22 59q0 41 -24.5 64t-72.5 44z" />
    <glyph glyph-name="dieresis" unicode="&#xa8;" 
d="M-27 647q0 20 14.5 35.5t36.5 15.5t36.5 -15.5t14.5 -35.5t-14.5 -35.5t-36.5 -15.5t-36.5 15.5t-14.5 35.5zM165 647q0 20 14.5 35.5t36.5 15.5t36.5 -15.5t14.5 -35.5t-14.5 -35.5t-36.5 -15.5t-36.5 15.5t-14.5 35.5z" />
    <glyph glyph-name="copyright" unicode="&#xa9;" horiz-adv-x="800" 
d="M20 353q0 157 111.5 267t269.5 110q157 0 268 -110t111 -267q0 -156 -111 -265.5t-268 -109.5q-158 0 -269.5 109.5t-111.5 265.5zM80 353q0 -132 94 -225.5t227 -93.5q132 0 225.5 93.5t93.5 225.5q0 133 -93.5 227t-225.5 94q-133 0 -227 -94t-94 -227zM560 198
q-61 -65 -150 -65q-98 0 -162 64t-64 162q0 97 64 161t162 64q82 0 139 -52q13 -13 13 -27t-9 -23t-23 -9q-15 0 -28 13q-38 38 -90 38q-71 0 -115 -48.5t-44 -116.5q0 -69 43 -117.5t114 -48.5q60 0 102 45q13 14 28 14q12 0 21 -8t9 -21q0 -14 -10 -25z" />
    <glyph glyph-name="ordfeminine" unicode="&#xaa;" horiz-adv-x="360" 
d="M299 487q0 -6 0.5 -19.5t0.5 -16.5q0 -27 -26 -27q-22 0 -26 25q-2 16 -2 23h-2q-33 -48 -98 -48q-42 0 -74 21t-32 66q0 30 17 50.5t49 29.5t63.5 12t74.5 3v8q0 30 -20 45.5t-53 15.5q-38 0 -70 -21q-10 -7 -19 -7q-22 0 -22 22q0 12 12 21q42 30 104 30
q60 0 91.5 -30.5t31.5 -79.5v-123zM244 566h-15q-130 0 -130 -54q0 -44 59 -44q40 0 63 23t23 60v15z" />
    <glyph glyph-name="guillemotleft" unicode="&#xab;" horiz-adv-x="482" 
d="M177 54l-109 162q-9 13 -9 24t9 24l109 162q11 16 26 16q12 0 20 -7.5t8 -19.5q0 -10 -7 -22l-100 -153l100 -153q7 -12 7 -22q0 -12 -8 -19.5t-20 -7.5q-15 0 -26 16zM359 54l-109 162q-9 13 -9 24t9 24l109 162q11 16 26 16q12 0 20 -7.5t8 -19.5q0 -10 -7 -22
l-100 -153l100 -153q7 -12 7 -22q0 -12 -8 -19.5t-20 -7.5q-15 0 -26 16z" />
    <glyph glyph-name="logicalnot" unicode="&#xac;" horiz-adv-x="666" 
d="M588 372v-216q0 -33 -30 -33t-30 33v192h-424q-33 0 -33 30t33 30h448q36 0 36 -36z" />
    <glyph glyph-name="uni00AD" unicode="&#xad;" horiz-adv-x="320" 
d="M247 214h-174q-32 0 -32 29q0 10 7 19t25 9h174q18 0 25 -9t7 -19q0 -29 -32 -29z" />
    <glyph glyph-name="registered" unicode="&#xae;" horiz-adv-x="600" 
d="M72 493q0 94 66.5 160.5t161.5 66.5t161.5 -66.5t66.5 -160.5t-66.5 -159.5t-161.5 -65.5t-161.5 65.5t-66.5 159.5zM108 493q0 -79 56.5 -135.5t135.5 -56.5t135.5 56.5t56.5 135.5t-56 135.5t-136 56.5t-136 -56.5t-56 -135.5zM257 510h37q56 0 56 38q0 35 -51 35h-42
v-73zM211 384v211q0 27 27 27h63q40 0 67.5 -18.5t27.5 -56.5q0 -56 -59 -69l55 -81q5 -8 5 -15q0 -10 -6.5 -16.5t-15.5 -6.5q-15 0 -23 14l-62 100h-33v-89q0 -25 -23 -25t-23 25z" />
    <glyph glyph-name="macron" unicode="&#xaf;" 
d="M7 654h226q17 0 23.5 -8.5t6.5 -18.5t-6.5 -18.5t-23.5 -8.5h-226q-17 0 -23.5 8.5t-6.5 18.5t6.5 18.5t23.5 8.5z" />
    <glyph glyph-name="degree" unicode="&#xb0;" horiz-adv-x="400" 
d="M349 571q0 -65 -42.5 -107t-106.5 -42t-106.5 42t-42.5 107t42.5 107t106.5 42t106.5 -42t42.5 -107zM301 571q0 42 -29.5 71.5t-71.5 29.5t-71.5 -29.5t-29.5 -71.5t29.5 -71.5t71.5 -29.5t71.5 29.5t29.5 71.5z" />
    <glyph glyph-name="plusminus" unicode="&#xb1;" horiz-adv-x="666" 
d="M562 48h-458q-33 0 -33 30t33 30h458q33 0 33 -30t-33 -30zM363 407h199q33 0 33 -30t-33 -30h-199v-125q0 -13 -6 -21t-12 -10t-12 -2t-12 2t-12 10t-6 21v125h-199q-33 0 -33 30t33 30h199v130q0 13 6 21t12 10t12 2t12 -2t12 -10t6 -21v-130z" />
    <glyph glyph-name="twosuperior" unicode="&#xb2;" horiz-adv-x="370" 
d="M297 290h-227q-19 0 -26.5 9.5t-7.5 20.5q0 17 20 37l154 159q43 45 43 86q0 28 -19 45t-48 17q-47 0 -69 -50q-10 -23 -30 -23q-11 0 -20 7.5t-9 20.5q0 11 6 23q16 34 49 55.5t73 21.5q56 0 93.5 -30.5t37.5 -86.5q0 -27 -12 -53t-24 -40t-35 -37l-128 -128h179
q29 0 29 -27t-29 -27z" />
    <glyph glyph-name="threesuperior" unicode="&#xb3;" horiz-adv-x="370" 
d="M107 377q24 -39 73 -39q33 0 56.5 19t23.5 54q0 38 -27.5 55.5t-68.5 17.5h-6q-28 0 -28 25q0 26 28 26h6q84 0 84 70q0 27 -20 44.5t-49 17.5q-37 0 -65 -34q-9 -12 -23 -12q-12 0 -20 7t-8 19q0 11 9 22q41 51 109 51q55 0 91 -29.5t36 -84.5q0 -63 -57 -93
q69 -26 69 -102q0 -60 -40.5 -93.5t-99.5 -33.5q-84 0 -124 65q-6 10 -6 21t8.5 19t20.5 8q16 0 28 -20z" />
    <glyph glyph-name="acute" unicode="&#xb4;" 
d="M80 610l79 91q12 14 28 14q13 -1 21.5 -9.5t8.5 -21.5q0 -12 -11 -24l-81 -89q-13 -14 -28 -14q-12 0 -20 8.5t-8 19.5q0 13 11 25z" />
    <glyph glyph-name="mu" unicode="&#xb5;" horiz-adv-x="556" 
d="M476 30q1 -21 -10.5 -29t-24.5 -8q-7 0 -14 2t-13.5 11t-6.5 24v46h-2q-56 -88 -157 -88q-69 0 -110 29v-215q0 -37 -33 -37t-33 37v636q0 37 33 37t33 -37v-229q0 -88 28 -124.5t99 -36.5q62 0 102 48t40 132v210q0 37 33 37t33 -37v-335q0 -21 3 -73z" />
    <glyph glyph-name="paragraph" unicode="&#xb6;" horiz-adv-x="600" 
d="M257 -96v412q-91 0 -150 53.5t-59 132.5q0 97 61 151.5t167 54.5h197q40 0 40 -39v-765q0 -37 -33 -37t-33 37v750h-124v-750q0 -37 -33 -37t-33 37z" />
    <glyph glyph-name="periodcentered" unicode="&#xb7;" horiz-adv-x="260" 
d="M184 314q0 -22 -15.5 -38t-38.5 -16t-38.5 16t-15.5 38t15.5 38t38.5 16t38.5 -16t15.5 -38z" />
    <glyph glyph-name="cedilla" unicode="&#xb8;" 
d="M38 -170q8 0 26 -6q20 -6 42 -6q61 0 61 39q0 35 -45 35q-12 0 -24 -3t-21 -3q-22 0 -22 20q0 8 6 18l51 80h51l-48 -74q12 3 31 3q33 0 56.5 -18.5t23.5 -56.5q0 -45 -34.5 -66.5t-83.5 -21.5q-38 0 -72 12q-21 7 -21 25q0 23 23 23z" />
    <glyph glyph-name="onesuperior" unicode="&#xb9;" horiz-adv-x="370" 
d="M89 632l84 71q14 12 28 12q11 0 21 -7t10 -27v-368q0 -19 -10 -26.5t-20 -7.5q-11 0 -21 7.5t-10 26.5v319l-46 -41q-10 -9 -21 -9t-19 7.5t-8 19.5t12 23z" />
    <glyph glyph-name="ordmasculine" unicode="&#xba;" horiz-adv-x="360" 
d="M332 572q0 -64 -43 -106t-109 -42t-109 42t-43 106q0 65 43 106.5t109 41.5t109 -41.5t43 -106.5zM274 572q0 43 -25 72.5t-69 29.5t-69 -29.5t-25 -72.5q0 -42 25 -72t69 -30t69 30t25 72z" />
    <glyph glyph-name="guillemotright" unicode="&#xbb;" horiz-adv-x="482" 
d="M414 216l-109 -162q-11 -16 -26 -16q-12 0 -20 7.5t-8 19.5q0 10 7 22l100 153l-100 153q-7 12 -7 22q0 12 8 19.5t20 7.5q15 0 26 -16l109 -162q9 -13 9 -24t-9 -24zM232 216l-109 -162q-11 -16 -26 -16q-12 0 -20 7.5t-8 19.5q0 10 7 22l100 153l-100 153q-7 12 -7 22
q0 12 8 19.5t20 7.5q15 0 26 -16l109 -162q9 -13 9 -24t-9 -24z" />
    <glyph glyph-name="onequarter" unicode="&#xbc;" horiz-adv-x="840" 
d="M668 152v184h-3l-122 -184h125zM485 158l168 248q15 23 36 23q7 0 14 -2.5t13.5 -11.5t6.5 -23v-240h37q30 0 30 -27t-30 -27h-37v-74q0 -17 -9 -24t-18 -7q-10 0 -19 7t-9 24v74h-161q-34 0 -34 29q0 14 12 31zM89 632l84 71q14 12 28 12q11 0 21 -7t10 -27v-368
q0 -19 -10 -26.5t-20 -7.5q-11 0 -21 7.5t-10 26.5v319l-46 -41q-10 -9 -21 -9t-19 7.5t-8 19.5t12 23zM180 21l423 697q11 17 26 17q12 0 21 -7.5t9 -20.5q0 -8 -6 -19l-423 -697q-11 -17 -26 -17q-12 0 -21 7.5t-9 20.5q0 8 6 19z" />
    <glyph glyph-name="onehalf" unicode="&#xbd;" horiz-adv-x="840" 
d="M89 632l84 71q14 12 28 12q11 0 21 -7t10 -27v-368q0 -19 -10 -26.5t-20 -7.5q-11 0 -21 7.5t-10 26.5v319l-46 -41q-10 -9 -21 -9t-19 7.5t-8 19.5t12 23zM180 21l423 697q11 17 26 17q12 0 21 -7.5t9 -20.5q0 -8 -6 -19l-423 -697q-11 -17 -26 -17q-12 0 -21 7.5
t-9 20.5q0 8 6 19zM764 0h-227q-19 0 -26.5 9.5t-7.5 20.5q0 17 20 37l154 159q43 45 43 86q0 28 -19 45t-48 17q-47 0 -69 -50q-10 -23 -30 -23q-11 0 -20 7.5t-9 20.5q0 11 6 23q16 34 49 55.5t73 21.5q56 0 93.5 -30.5t37.5 -86.5q0 -27 -12 -53t-24 -40t-35 -37
l-128 -128h179q29 0 29 -27t-29 -27z" />
    <glyph glyph-name="threequarters" unicode="&#xbe;" horiz-adv-x="840" 
d="M668 152v184h-3l-122 -184h125zM485 158l168 248q15 23 36 23q7 0 14 -2.5t13.5 -11.5t6.5 -23v-240h37q30 0 30 -27t-30 -27h-37v-74q0 -17 -9 -24t-18 -7q-10 0 -19 7t-9 24v74h-161q-34 0 -34 29q0 14 12 31zM107 377q24 -39 73 -39q33 0 56.5 19t23.5 54
q0 38 -27.5 55.5t-68.5 17.5h-6q-28 0 -28 25q0 26 28 26h6q84 0 84 70q0 27 -20 44.5t-49 17.5q-37 0 -65 -34q-9 -12 -23 -12q-12 0 -20 7t-8 19q0 11 9 22q41 51 109 51q55 0 91 -29.5t36 -84.5q0 -63 -57 -93q69 -26 69 -102q0 -60 -40.5 -93.5t-99.5 -33.5
q-84 0 -124 65q-6 10 -6 21t8.5 19t20.5 8q16 0 28 -20zM180 21l423 697q11 17 26 17q12 0 21 -7.5t9 -20.5q0 -8 -6 -19l-423 -697q-11 -17 -26 -17q-12 0 -21 7.5t-9 20.5q0 8 6 19z" />
    <glyph glyph-name="questiondown" unicode="&#xbf;" horiz-adv-x="482" 
d="M188 432q0 22 15.5 38t38.5 16t38.5 -16t15.5 -38t-15.5 -38t-38.5 -16t-38.5 16t-15.5 38zM214 255q0 22 11 31t24 9q8 0 15 -2.5t13.5 -12t6.5 -25.5v-27q0 -51 -20.5 -84.5t-59.5 -67.5l-28 -25q-58 -51 -58 -111q0 -55 35.5 -86.5t89.5 -31.5q45 0 77.5 24.5
t46.5 68.5q9 28 33 28q14 0 23.5 -9.5t9.5 -24.5q0 -9 -4 -20q-22 -60 -71.5 -94.5t-117.5 -34.5q-83 0 -138.5 47t-55.5 129q0 41 14 73t30 49t48 43q45 37 60.5 63t15.5 78v13z" />
    <glyph glyph-name="Agrave" unicode="&#xc0;" horiz-adv-x="700" 
d="M608 19l-71 167h-376l-71 -168q-11 -25 -34 -25q-15 0 -25.5 9.5t-10.5 24.5q0 9 5 22l277 626q17 40 49 40t49 -40l274 -624q6 -13 6 -23q0 -15 -11 -25t-26 -10q-24 0 -35 26zM349 628l-160 -376h320zM283 901l79 -91q11 -12 11 -25q0 -11 -8 -19.5t-20 -8.5
q-15 0 -28 14l-81 89q-11 12 -11 24q0 13 8.5 21.5t21.5 9.5q16 0 28 -14z" />
    <glyph glyph-name="Aacute" unicode="&#xc1;" horiz-adv-x="700" 
d="M608 19l-71 167h-376l-71 -168q-11 -25 -34 -25q-15 0 -25.5 9.5t-10.5 24.5q0 9 5 22l277 626q17 40 49 40t49 -40l274 -624q6 -13 6 -23q0 -15 -11 -25t-26 -10q-24 0 -35 26zM349 628l-160 -376h320zM341 810l79 91q12 14 28 14q13 -1 21.5 -9.5t8.5 -21.5
q0 -12 -11 -24l-81 -89q-13 -14 -28 -14q-12 0 -20 8.5t-8 19.5q0 13 11 25z" />
    <glyph glyph-name="Acircumflex" unicode="&#xc2;" horiz-adv-x="700" 
d="M608 19l-71 167h-376l-71 -168q-11 -25 -34 -25q-15 0 -25.5 9.5t-10.5 24.5q0 9 5 22l277 626q17 40 49 40t49 -40l274 -624q6 -13 6 -23q0 -15 -11 -25t-26 -10q-24 0 -35 26zM349 628l-160 -376h320zM434 769l-85 90l-85 -90q-11 -12 -23 -12q-11 0 -18.5 7t-7.5 18
t10 22l78 85q24 26 46 26t46 -26l78 -85q10 -11 10 -22t-7.5 -18t-18.5 -7q-12 0 -23 12z" />
    <glyph glyph-name="Atilde" unicode="&#xc3;" horiz-adv-x="700" 
d="M608 19l-71 167h-376l-71 -168q-11 -25 -34 -25q-15 0 -25.5 9.5t-10.5 24.5q0 9 5 22l277 626q17 40 49 40t49 -40l274 -624q6 -13 6 -23q0 -15 -11 -25t-26 -10q-24 0 -35 26zM349 628l-160 -376h320zM418 834q25 0 39 36q7 20 25 20q26 0 26 -26q0 -10 -5 -23
q-26 -62 -85 -62q-25 0 -71 24q-44 23 -66 23q-25 0 -39 -36q-8 -20 -25 -20q-26 0 -26 26q0 10 5 23q26 62 85 62q24 0 72 -24q50 -23 65 -23z" />
    <glyph glyph-name="Adieresis" unicode="&#xc4;" horiz-adv-x="700" 
d="M608 19l-71 167h-376l-71 -168q-11 -25 -34 -25q-15 0 -25.5 9.5t-10.5 24.5q0 9 5 22l277 626q17 40 49 40t49 -40l274 -624q6 -13 6 -23q0 -15 -11 -25t-26 -10q-24 0 -35 26zM349 628l-160 -376h320zM204 847q0 20 14.5 35.5t36.5 15.5t36.5 -15.5t14.5 -35.5
t-14.5 -35.5t-36.5 -15.5t-36.5 15.5t-14.5 35.5zM396 847q0 20 14.5 35.5t36.5 15.5t36.5 -15.5t14.5 -35.5t-14.5 -35.5t-36.5 -15.5t-36.5 15.5t-14.5 35.5z" />
    <glyph glyph-name="Aring" unicode="&#xc5;" horiz-adv-x="700" 
d="M608 19l-71 167h-376l-71 -168q-11 -25 -34 -25q-15 0 -25.5 9.5t-10.5 24.5q0 9 5 22l277 626q17 40 49 40t49 -40l274 -624q6 -13 6 -23q0 -15 -11 -25t-26 -10q-24 0 -35 26zM349 628l-160 -376h320zM446 850q0 -40 -28.5 -67.5t-67.5 -27.5t-67.5 27.5t-28.5 67.5
t28.5 67.5t67.5 27.5t67.5 -27.5t28.5 -67.5zM410 850q0 25 -17.5 42t-42.5 17t-42.5 -17t-17.5 -42t17.5 -42t42.5 -17t42.5 17t17.5 42z" />
    <glyph glyph-name="AE" unicode="&#xc6;" horiz-adv-x="990" 
d="M519 198h-304l-120 -185q-13 -20 -32 -20q-14 0 -24 9t-10 23q0 13 9 27l419 633q16 23 45 23h394q20 0 27.5 -10.5t7.5 -21.5t-7.5 -21.5t-27.5 -10.5h-305v-244h281q20 0 27.5 -10t7.5 -21t-7.5 -21.5t-27.5 -10.5h-281v-273h317q20 0 27.5 -10.5t7.5 -21.5t-7.5 -21.5
t-27.5 -10.5h-346q-43 0 -43 43v155zM505 644l-249 -383h263v383h-14z" />
    <glyph glyph-name="Ccedilla" unicode="&#xc7;" horiz-adv-x="720" 
d="M319 -170q8 0 26 -6q20 -6 42 -6q61 0 61 39q0 35 -45 35q-12 0 -24 -3t-21 -3q-22 0 -22 20q0 8 6 18l38 61q-143 14 -233.5 116.5t-90.5 252.5q0 161 105 266.5t264 105.5q66 0 126 -22t100 -62q13 -13 13 -27q0 -15 -10 -25t-26 -10q-17 0 -36 19q-64 64 -166 64
q-133 0 -213.5 -90t-80.5 -219t81 -219t213 -90q121 0 191 83q15 18 31 18q14 0 23.5 -9t9.5 -24q0 -14 -12 -27q-92 -103 -240 -104l-33 -52q12 3 31 3q33 0 56.5 -18.5t23.5 -56.5q0 -45 -34.5 -66.5t-83.5 -21.5q-38 0 -72 12q-21 7 -21 25q0 23 23 23z" />
    <glyph glyph-name="Egrave" unicode="&#xc8;" horiz-adv-x="592" 
d="M481 337h-315v-273h351q20 0 27.5 -10.5t7.5 -21.5t-7.5 -21.5t-27.5 -10.5h-380q-43 0 -43 43v622q0 43 43 43h368q20 0 27.5 -10.5t7.5 -21.5t-7.5 -21.5t-27.5 -10.5h-339v-244h315q20 0 27.5 -10t7.5 -21t-7.5 -21.5t-27.5 -10.5zM278 901l79 -91q11 -12 11 -25
q0 -11 -8 -19.5t-20 -8.5q-15 0 -28 14l-81 89q-11 12 -11 24q0 13 8.5 21.5t21.5 9.5q16 0 28 -14z" />
    <glyph glyph-name="Eacute" unicode="&#xc9;" horiz-adv-x="592" 
d="M481 337h-315v-273h351q20 0 27.5 -10.5t7.5 -21.5t-7.5 -21.5t-27.5 -10.5h-380q-43 0 -43 43v622q0 43 43 43h368q20 0 27.5 -10.5t7.5 -21.5t-7.5 -21.5t-27.5 -10.5h-339v-244h315q20 0 27.5 -10t7.5 -21t-7.5 -21.5t-27.5 -10.5zM289 810l79 91q12 14 28 14
q13 -1 21.5 -9.5t8.5 -21.5q0 -12 -11 -24l-81 -89q-13 -14 -28 -14q-12 0 -20 8.5t-8 19.5q0 13 11 25z" />
    <glyph glyph-name="Ecircumflex" unicode="&#xca;" horiz-adv-x="592" 
d="M481 337h-315v-273h351q20 0 27.5 -10.5t7.5 -21.5t-7.5 -21.5t-27.5 -10.5h-380q-43 0 -43 43v622q0 43 43 43h368q20 0 27.5 -10.5t7.5 -21.5t-7.5 -21.5t-27.5 -10.5h-339v-244h315q20 0 27.5 -10t7.5 -21t-7.5 -21.5t-27.5 -10.5zM404 769l-85 90l-85 -90
q-11 -12 -23 -12q-11 0 -18.5 7t-7.5 18t10 22l78 85q24 26 46 26t46 -26l78 -85q10 -11 10 -22t-7.5 -18t-18.5 -7q-12 0 -23 12z" />
    <glyph glyph-name="Edieresis" unicode="&#xcb;" horiz-adv-x="592" 
d="M481 337h-315v-273h351q20 0 27.5 -10.5t7.5 -21.5t-7.5 -21.5t-27.5 -10.5h-380q-43 0 -43 43v622q0 43 43 43h368q20 0 27.5 -10.5t7.5 -21.5t-7.5 -21.5t-27.5 -10.5h-339v-244h315q20 0 27.5 -10t7.5 -21t-7.5 -21.5t-27.5 -10.5zM172 847q0 20 14.5 35.5t36.5 15.5
t36.5 -15.5t14.5 -35.5t-14.5 -35.5t-36.5 -15.5t-36.5 15.5t-14.5 35.5zM364 847q0 20 14.5 35.5t36.5 15.5t36.5 -15.5t14.5 -35.5t-14.5 -35.5t-36.5 -15.5t-36.5 15.5t-14.5 35.5z" />
    <glyph glyph-name="Igrave" unicode="&#xcc;" horiz-adv-x="260" 
d="M166 675v-642q0 -22 -11.5 -31t-24.5 -9q-8 0 -15 2.5t-14 12t-7 25.5v642q0 22 11.5 31t24.5 9q8 0 15 -2.5t14 -12t7 -25.5zM65 901l79 -91q11 -12 11 -25q0 -11 -8 -19.5t-20 -8.5q-15 0 -28 14l-81 89q-11 12 -11 24q0 13 8.5 21.5t21.5 9.5q16 0 28 -14z" />
    <glyph glyph-name="Iacute" unicode="&#xcd;" horiz-adv-x="260" 
d="M166 675v-642q0 -22 -11.5 -31t-24.5 -9q-8 0 -15 2.5t-14 12t-7 25.5v642q0 22 11.5 31t24.5 9q8 0 15 -2.5t14 -12t7 -25.5zM115 810l79 91q12 14 28 14q13 -1 21.5 -9.5t8.5 -21.5q0 -12 -11 -24l-81 -89q-13 -14 -28 -14q-12 0 -20 8.5t-8 19.5q0 13 11 25z" />
    <glyph glyph-name="Icircumflex" unicode="&#xce;" horiz-adv-x="260" 
d="M166 675v-642q0 -22 -11.5 -31t-24.5 -9q-8 0 -15 2.5t-14 12t-7 25.5v642q0 22 11.5 31t24.5 9q8 0 15 -2.5t14 -12t7 -25.5zM215 769l-85 90l-85 -90q-11 -12 -23 -12q-11 0 -18.5 7t-7.5 18t10 22l78 85q24 26 46 26t46 -26l78 -85q10 -11 10 -22t-7.5 -18t-18.5 -7
q-12 0 -23 12z" />
    <glyph glyph-name="Idieresis" unicode="&#xcf;" horiz-adv-x="260" 
d="M166 675v-642q0 -22 -11.5 -31t-24.5 -9q-8 0 -15 2.5t-14 12t-7 25.5v642q0 22 11.5 31t24.5 9q8 0 15 -2.5t14 -12t7 -25.5zM-17 847q0 20 14.5 35.5t36.5 15.5t36.5 -15.5t14.5 -35.5t-14.5 -35.5t-36.5 -15.5t-36.5 15.5t-14.5 35.5zM175 847q0 20 14.5 35.5
t36.5 15.5t36.5 -15.5t14.5 -35.5t-14.5 -35.5t-36.5 -15.5t-36.5 15.5t-14.5 35.5z" />
    <glyph glyph-name="Eth" unicode="&#xd0;" horiz-adv-x="757" 
d="M329 0h-192q-43 0 -43 43v304h-50q-30 0 -30 27t30 27h50v264q0 43 43 43h192q68 0 133 -22.5t119 -65t87 -112t33 -154.5t-33 -154.5t-87 -112t-119 -65t-133 -22.5zM166 644v-243h235q30 0 30 -27t-30 -27h-235v-283h143q77 0 138.5 24.5t99.5 66t58 92.5t20 107
t-20 107t-58 92.5t-99.5 66t-138.5 24.5h-143z" />
    <glyph glyph-name="Ntilde" unicode="&#xd1;" horiz-adv-x="764" 
d="M563 37l-395 559h-2v-563q0 -22 -11.5 -31t-24.5 -9q-8 0 -15 2.5t-14 12t-7 25.5v626q0 31 14.5 43.5t32.5 12.5q29 0 60 -44l395 -553h2v557q0 22 11.5 31t24.5 9q8 0 15 -2.5t14 -12t7 -25.5v-626q0 -31 -15 -43.5t-33 -12.5q-28 0 -59 44zM454 834q25 0 39 36
q7 20 25 20q26 0 26 -26q0 -10 -5 -23q-26 -62 -85 -62q-25 0 -71 24q-44 23 -66 23q-25 0 -39 -36q-8 -20 -25 -20q-26 0 -26 26q0 10 5 23q26 62 85 62q24 0 72 -24q50 -23 65 -23z" />
    <glyph glyph-name="Ograve" unicode="&#xd2;" horiz-adv-x="850" 
d="M794 354q0 -161 -105 -266.5t-264 -105.5t-264 105.5t-105 266.5t105 266.5t264 105.5t264 -105.5t105 -266.5zM718 354q0 129 -80.5 219t-212.5 90t-212.5 -90t-80.5 -219t80.5 -218.5t212.5 -89.5t212.5 89.5t80.5 218.5zM398 901l79 -91q11 -12 11 -25q0 -11 -8 -19.5
t-20 -8.5q-15 0 -28 14l-81 89q-11 12 -11 24q0 13 8.5 21.5t21.5 9.5q16 0 28 -14z" />
    <glyph glyph-name="Oacute" unicode="&#xd3;" horiz-adv-x="850" 
d="M794 354q0 -161 -105 -266.5t-264 -105.5t-264 105.5t-105 266.5t105 266.5t264 105.5t264 -105.5t105 -266.5zM718 354q0 129 -80.5 219t-212.5 90t-212.5 -90t-80.5 -219t80.5 -218.5t212.5 -89.5t212.5 89.5t80.5 218.5zM388 810l79 91q12 14 28 14q13 -1 21.5 -9.5
t8.5 -21.5q0 -12 -11 -24l-81 -89q-13 -14 -28 -14q-12 0 -20 8.5t-8 19.5q0 13 11 25z" />
    <glyph glyph-name="Ocircumflex" unicode="&#xd4;" horiz-adv-x="850" 
d="M794 354q0 -161 -105 -266.5t-264 -105.5t-264 105.5t-105 266.5t105 266.5t264 105.5t264 -105.5t105 -266.5zM718 354q0 129 -80.5 219t-212.5 90t-212.5 -90t-80.5 -219t80.5 -218.5t212.5 -89.5t212.5 89.5t80.5 218.5zM510 769l-85 90l-85 -90q-11 -12 -23 -12
q-11 0 -18.5 7t-7.5 18t10 22l78 85q24 26 46 26t46 -26l78 -85q10 -11 10 -22t-7.5 -18t-18.5 -7q-12 0 -23 12z" />
    <glyph glyph-name="Otilde" unicode="&#xd5;" horiz-adv-x="850" 
d="M794 354q0 -161 -105 -266.5t-264 -105.5t-264 105.5t-105 266.5t105 266.5t264 105.5t264 -105.5t105 -266.5zM718 354q0 129 -80.5 219t-212.5 90t-212.5 -90t-80.5 -219t80.5 -218.5t212.5 -89.5t212.5 89.5t80.5 218.5zM493 834q25 0 39 36q8 20 25 20q26 0 26 -26
q0 -10 -5 -23q-26 -62 -85 -62q-25 0 -71 24q-44 23 -66 23q-25 0 -39 -36q-7 -20 -25 -20q-26 0 -26 26q0 10 5 23q26 62 85 62q24 0 72 -24q50 -23 65 -23z" />
    <glyph glyph-name="Odieresis" unicode="&#xd6;" horiz-adv-x="850" 
d="M794 354q0 -161 -105 -266.5t-264 -105.5t-264 105.5t-105 266.5t105 266.5t264 105.5t264 -105.5t105 -266.5zM718 354q0 129 -80.5 219t-212.5 90t-212.5 -90t-80.5 -219t80.5 -218.5t212.5 -89.5t212.5 89.5t80.5 218.5zM278 847q0 20 14.5 35.5t36.5 15.5t36.5 -15.5
t14.5 -35.5t-14.5 -35.5t-36.5 -15.5t-36.5 15.5t-14.5 35.5zM470 847q0 20 14.5 35.5t36.5 15.5t36.5 -15.5t14.5 -35.5t-14.5 -35.5t-36.5 -15.5t-36.5 15.5t-14.5 35.5z" />
    <glyph glyph-name="multiply" unicode="&#xd7;" horiz-adv-x="666" 
d="M514 443l-139 -140l139 -139q11 -11 11 -24t-8.5 -21.5t-21.5 -8.5t-23 10l-139 140l-140 -140q-11 -11 -23 -11q-13 0 -21.5 8.5t-8.5 20.5q0 14 11 25l140 140l-139 140q-12 12 -12 26q0 11 8 19.5t21 8.5t24 -11l140 -140l139 140q11 11 23 11q13 0 21.5 -8.5
t8.5 -20.5q0 -14 -11 -25z" />
    <glyph glyph-name="Oslash" unicode="&#xd8;" horiz-adv-x="850" 
d="M794 354q0 -161 -105 -266.5t-264 -105.5q-136 0 -236 81l-60 -64q-10 -10 -21 -10t-18 7t-7 17q0 11 9 20l60 65q-96 102 -96 256q0 161 105 266.5t264 105.5q136 0 236 -81l61 65q10 10 21 10t18 -7t7 -17q0 -11 -9 -20l-61 -66q96 -102 96 -256zM132 354
q0 -122 69 -204l415 445q-76 68 -191 68q-132 0 -212.5 -90t-80.5 -219zM718 354q0 120 -67 204l-415 -445q76 -67 189 -67q132 0 212.5 89.5t80.5 218.5z" />
    <glyph glyph-name="Ugrave" unicode="&#xd9;" horiz-adv-x="710" 
d="M548 272v403q0 22 11.5 31t24.5 9q8 0 15 -2.5t14 -12t7 -25.5v-411q0 -38 -7 -74.5t-25.5 -75.5t-47.5 -67t-76.5 -46.5t-108.5 -18.5t-108.5 18.5t-76.5 46.5t-47.5 67t-25.5 75.5t-7 74.5v411q0 22 11.5 31t24.5 9q8 0 15 -2.5t14 -12t7 -25.5v-403q0 -96 46.5 -161
t146.5 -65t146.5 65t46.5 161zM315 901l79 -91q11 -12 11 -25q0 -11 -8 -19.5t-20 -8.5q-15 0 -28 14l-81 89q-11 12 -11 24q0 13 8.5 21.5t21.5 9.5q16 0 28 -14z" />
    <glyph glyph-name="Uacute" unicode="&#xda;" horiz-adv-x="710" 
d="M548 272v403q0 22 11.5 31t24.5 9q8 0 15 -2.5t14 -12t7 -25.5v-411q0 -38 -7 -74.5t-25.5 -75.5t-47.5 -67t-76.5 -46.5t-108.5 -18.5t-108.5 18.5t-76.5 46.5t-47.5 67t-25.5 75.5t-7 74.5v411q0 22 11.5 31t24.5 9q8 0 15 -2.5t14 -12t7 -25.5v-403q0 -96 46.5 -161
t146.5 -65t146.5 65t46.5 161zM327 810l79 91q12 14 28 14q13 -1 21.5 -9.5t8.5 -21.5q0 -12 -11 -24l-81 -89q-13 -14 -28 -14q-12 0 -20 8.5t-8 19.5q0 13 11 25z" />
    <glyph glyph-name="Ucircumflex" unicode="&#xdb;" horiz-adv-x="710" 
d="M548 272v403q0 22 11.5 31t24.5 9q8 0 15 -2.5t14 -12t7 -25.5v-411q0 -38 -7 -74.5t-25.5 -75.5t-47.5 -67t-76.5 -46.5t-108.5 -18.5t-108.5 18.5t-76.5 46.5t-47.5 67t-25.5 75.5t-7 74.5v411q0 22 11.5 31t24.5 9q8 0 15 -2.5t14 -12t7 -25.5v-403q0 -96 46.5 -161
t146.5 -65t146.5 65t46.5 161zM440 769l-85 90l-85 -90q-11 -12 -23 -12q-11 0 -18.5 7t-7.5 18t10 22l78 85q24 26 46 26t46 -26l78 -85q10 -11 10 -22t-7.5 -18t-18.5 -7q-12 0 -23 12z" />
    <glyph glyph-name="Udieresis" unicode="&#xdc;" horiz-adv-x="710" 
d="M548 272v403q0 22 11.5 31t24.5 9q8 0 15 -2.5t14 -12t7 -25.5v-411q0 -38 -7 -74.5t-25.5 -75.5t-47.5 -67t-76.5 -46.5t-108.5 -18.5t-108.5 18.5t-76.5 46.5t-47.5 67t-25.5 75.5t-7 74.5v411q0 22 11.5 31t24.5 9q8 0 15 -2.5t14 -12t7 -25.5v-403q0 -96 46.5 -161
t146.5 -65t146.5 65t46.5 161zM209 847q0 20 14.5 35.5t36.5 15.5t36.5 -15.5t14.5 -35.5t-14.5 -35.5t-36.5 -15.5t-36.5 15.5t-14.5 35.5zM401 847q0 20 14.5 35.5t36.5 15.5t36.5 -15.5t14.5 -35.5t-14.5 -35.5t-36.5 -15.5t-36.5 15.5t-14.5 35.5z" />
    <glyph glyph-name="Yacute" unicode="&#xdd;" horiz-adv-x="602" 
d="M580 658l-243 -353v-272q0 -22 -11.5 -31t-24.5 -9q-8 0 -15 2.5t-14 12t-7 25.5v272l-240 348q-9 14 -9 26q0 16 11 26t27 10q20 0 34 -22l215 -328l218 330q13 20 32 20q14 0 24.5 -9t10.5 -24q0 -12 -8 -24zM291 810l79 91q12 14 28 14q13 -1 21.5 -9.5t8.5 -21.5
q0 -12 -11 -24l-81 -89q-13 -14 -28 -14q-12 0 -20 8.5t-8 19.5q0 13 11 25z" />
    <glyph glyph-name="Thorn" unicode="&#xde;" horiz-adv-x="580" 
d="M166 174v-141q0 -22 -11.5 -31t-24.5 -9q-8 0 -15 2.5t-14 12t-7 25.5v642q0 22 11.5 31t24.5 9q8 0 15 -2.5t14 -12t7 -25.5v-122h128q111 0 175 -48t64 -141t-65 -141.5t-176 -48.5h-126zM166 237h116q173 0 173 127q0 125 -173 125h-116v-252z" />
    <glyph glyph-name="germandbls" unicode="&#xdf;" horiz-adv-x="597" 
d="M88 30v514q0 42 10 79.5t32.5 71t65.5 53.5t102 20q79 0 135.5 -48t56.5 -129q0 -117 -116 -159v-2q76 -9 123.5 -65.5t47.5 -141.5q0 -107 -65.5 -171t-174.5 -64q-22 0 -34 2q-28 4 -28 29q0 28 30 28q3 0 12.5 -0.5t12.5 -0.5q80 0 128 47.5t48 130.5q0 81 -47 125.5
t-130 49.5q-32 2 -32 30t32 30q57 5 90.5 36t33.5 90q0 58 -36 90.5t-90 32.5q-42 0 -71 -15.5t-43 -42t-19.5 -52.5t-5.5 -56v-512q0 -21 -11 -29t-23 -8q-7 0 -14 2t-13.5 11t-6.5 24z" />
    <glyph glyph-name="agrave" unicode="&#xe0;" horiz-adv-x="534" 
d="M385 234h-20q-48 0 -85.5 -3.5t-75 -13.5t-58.5 -31t-21 -53q0 -46 32 -67.5t78 -21.5q69 0 109.5 45t40.5 110v35zM449 105q0 -34 3 -61q2 -16 2 -19q0 -15 -8.5 -23.5t-21.5 -8.5q-27 0 -32 34q-3 24 -3 49h-2q-61 -88 -170 -88q-63 0 -112.5 35.5t-49.5 106.5
q0 35 12 61.5t36 43.5t52 27.5t69 16t76.5 7t84.5 1.5v15q0 121 -125 121q-65 0 -120 -39q-14 -9 -24 -9q-12 0 -19.5 7.5t-7.5 20.5t13 25q61 52 165 52q80 0 131 -44t51 -126v-205zM235 701l79 -91q11 -12 11 -25q0 -11 -8 -19.5t-20 -8.5q-15 0 -28 14l-81 89
q-11 12 -11 24q0 13 8.5 21.5t21.5 9.5q16 0 28 -14z" />
    <glyph glyph-name="aacute" unicode="&#xe1;" horiz-adv-x="534" 
d="M385 234h-20q-48 0 -85.5 -3.5t-75 -13.5t-58.5 -31t-21 -53q0 -46 32 -67.5t78 -21.5q69 0 109.5 45t40.5 110v35zM449 105q0 -34 3 -61q2 -16 2 -19q0 -15 -8.5 -23.5t-21.5 -8.5q-27 0 -32 34q-3 24 -3 49h-2q-61 -88 -170 -88q-63 0 -112.5 35.5t-49.5 106.5
q0 35 12 61.5t36 43.5t52 27.5t69 16t76.5 7t84.5 1.5v15q0 121 -125 121q-65 0 -120 -39q-14 -9 -24 -9q-12 0 -19.5 7.5t-7.5 20.5t13 25q61 52 165 52q80 0 131 -44t51 -126v-205zM236 610l79 91q12 14 28 14q13 -1 21.5 -9.5t8.5 -21.5q0 -12 -11 -24l-81 -89
q-13 -14 -28 -14q-12 0 -20 8.5t-8 19.5q0 13 11 25z" />
    <glyph glyph-name="acircumflex" unicode="&#xe2;" horiz-adv-x="534" 
d="M385 234h-20q-48 0 -85.5 -3.5t-75 -13.5t-58.5 -31t-21 -53q0 -46 32 -67.5t78 -21.5q69 0 109.5 45t40.5 110v35zM449 105q0 -34 3 -61q2 -16 2 -19q0 -15 -8.5 -23.5t-21.5 -8.5q-27 0 -32 34q-3 24 -3 49h-2q-61 -88 -170 -88q-63 0 -112.5 35.5t-49.5 106.5
q0 35 12 61.5t36 43.5t52 27.5t69 16t76.5 7t84.5 1.5v15q0 121 -125 121q-65 0 -120 -39q-14 -9 -24 -9q-12 0 -19.5 7.5t-7.5 20.5t13 25q61 52 165 52q80 0 131 -44t51 -126v-205zM353 569l-85 90l-85 -90q-11 -12 -23 -12q-11 0 -18.5 7t-7.5 18t10 22l78 85
q24 26 46 26t46 -26l78 -85q10 -11 10 -22t-7.5 -18t-18.5 -7q-12 0 -23 12z" />
    <glyph glyph-name="atilde" unicode="&#xe3;" horiz-adv-x="534" 
d="M385 234h-20q-48 0 -85.5 -3.5t-75 -13.5t-58.5 -31t-21 -53q0 -46 32 -67.5t78 -21.5q69 0 109.5 45t40.5 110v35zM449 105q0 -34 3 -61q2 -16 2 -19q0 -15 -8.5 -23.5t-21.5 -8.5q-27 0 -32 34q-3 24 -3 49h-2q-61 -88 -170 -88q-63 0 -112.5 35.5t-49.5 106.5
q0 35 12 61.5t36 43.5t52 27.5t69 16t76.5 7t84.5 1.5v15q0 121 -125 121q-65 0 -120 -39q-14 -9 -24 -9q-12 0 -19.5 7.5t-7.5 20.5t13 25q61 52 165 52q80 0 131 -44t51 -126v-205zM334 634q25 0 39 36q7 20 25 20q26 0 26 -26q0 -10 -5 -23q-26 -62 -85 -62q-25 0 -71 24
q-44 23 -66 23q-25 0 -39 -36q-8 -20 -25 -20q-26 0 -26 26q0 10 5 23q26 62 85 62q24 0 72 -24q50 -23 65 -23z" />
    <glyph glyph-name="adieresis" unicode="&#xe4;" horiz-adv-x="534" 
d="M385 234h-20q-48 0 -85.5 -3.5t-75 -13.5t-58.5 -31t-21 -53q0 -46 32 -67.5t78 -21.5q69 0 109.5 45t40.5 110v35zM449 105q0 -34 3 -61q2 -16 2 -19q0 -15 -8.5 -23.5t-21.5 -8.5q-27 0 -32 34q-3 24 -3 49h-2q-61 -88 -170 -88q-63 0 -112.5 35.5t-49.5 106.5
q0 35 12 61.5t36 43.5t52 27.5t69 16t76.5 7t84.5 1.5v15q0 121 -125 121q-65 0 -120 -39q-14 -9 -24 -9q-12 0 -19.5 7.5t-7.5 20.5t13 25q61 52 165 52q80 0 131 -44t51 -126v-205zM119 647q0 20 14.5 35.5t36.5 15.5t36.5 -15.5t14.5 -35.5t-14.5 -35.5t-36.5 -15.5
t-36.5 15.5t-14.5 35.5zM311 647q0 20 14.5 35.5t36.5 15.5t36.5 -15.5t14.5 -35.5t-14.5 -35.5t-36.5 -15.5t-36.5 15.5t-14.5 35.5z" />
    <glyph glyph-name="aring" unicode="&#xe5;" horiz-adv-x="534" 
d="M385 234h-20q-48 0 -85.5 -3.5t-75 -13.5t-58.5 -31t-21 -53q0 -46 32 -67.5t78 -21.5q69 0 109.5 45t40.5 110v35zM449 105q0 -34 3 -61q2 -16 2 -19q0 -15 -8.5 -23.5t-21.5 -8.5q-27 0 -32 34q-3 24 -3 49h-2q-61 -88 -170 -88q-63 0 -112.5 35.5t-49.5 106.5
q0 35 12 61.5t36 43.5t52 27.5t69 16t76.5 7t84.5 1.5v15q0 121 -125 121q-65 0 -120 -39q-14 -9 -24 -9q-12 0 -19.5 7.5t-7.5 20.5t13 25q61 52 165 52q80 0 131 -44t51 -126v-205zM361 650q0 -40 -28.5 -67.5t-67.5 -27.5t-67.5 27.5t-28.5 67.5t28.5 67.5t67.5 27.5
t67.5 -27.5t28.5 -67.5zM325 650q0 25 -17.5 42t-42.5 17t-42.5 -17t-17.5 -42t17.5 -42t42.5 -17t42.5 17t17.5 42z" />
    <glyph glyph-name="ae" unicode="&#xe6;" horiz-adv-x="870" 
d="M781 66q-69 -78 -175 -78q-65 0 -113.5 29t-72.5 80q-46 -109 -195 -109q-69 0 -119 34t-50 103q0 38 19 66t47.5 43t74.5 23.5t86.5 10.5t96.5 2v15q0 63 -30.5 100.5t-89.5 37.5q-66 0 -123 -39q-13 -9 -24 -9t-19 7.5t-8 20.5t13 25q26 23 74 37.5t97 14.5
q56 0 96.5 -26t57.5 -72q28 45 75 71.5t102 26.5q101 0 157 -65t56 -164q0 -35 -37 -35h-334q2 -71 48.5 -121t114.5 -50q79 0 127 59q13 15 28 15q13 0 21.5 -8t8.5 -22q0 -12 -10 -23zM380 216h-20q-53 0 -89 -3t-72.5 -11.5t-54.5 -27.5t-18 -48q0 -83 111 -83
q70 0 106.5 37.5t36.5 101.5v34zM446 270h299q0 68 -39 110.5t-105 42.5q-61 0 -107 -46t-48 -107z" />
    <glyph glyph-name="ccedilla" unicode="&#xe7;" horiz-adv-x="500" 
d="M202 -170q8 0 26 -6q20 -6 42 -6q61 0 61 39q0 35 -45 35q-12 0 -24 -3t-21 -3q-22 0 -22 20q0 8 6 18l42 67q-96 12 -153.5 79t-57.5 164q0 107 69 176.5t181 69.5q90 0 151 -56q13 -13 13 -27q0 -13 -9 -21.5t-22 -8.5q-14 0 -34 19q-39 37 -98 37q-80 0 -129.5 -53.5
t-49.5 -135.5q0 -81 49 -134.5t129 -53.5q66 0 112 43q14 13 27 13t21.5 -8.5t8.5 -20.5q0 -14 -12 -26q-58 -56 -147 -59l-37 -58q12 3 31 3q33 0 56.5 -18.5t23.5 -56.5q0 -45 -34.5 -66.5t-83.5 -21.5q-38 0 -72 12q-21 7 -21 25q0 23 23 23z" />
    <glyph glyph-name="egrave" unicode="&#xe8;" horiz-adv-x="572" 
d="M479 216h-352q2 -71 51 -120.5t120 -49.5q80 0 135 61q12 13 26 13q13 0 22 -8t9 -22q0 -13 -10 -24q-70 -78 -182 -78q-104 0 -173 70t-69 176q0 105 68 175.5t168 70.5q101 0 162.5 -62.5t61.5 -166.5q0 -35 -37 -35zM128 270h319q-3 68 -43.5 110.5t-111.5 42.5
q-66 0 -112.5 -45.5t-51.5 -107.5zM241 701l79 -91q11 -12 11 -25q0 -11 -8 -19.5t-20 -8.5q-15 0 -28 14l-81 89q-11 12 -11 24q0 13 8.5 21.5t21.5 9.5q16 0 28 -14z" />
    <glyph glyph-name="eacute" unicode="&#xe9;" horiz-adv-x="572" 
d="M479 216h-352q2 -71 51 -120.5t120 -49.5q80 0 135 61q12 13 26 13q13 0 22 -8t9 -22q0 -13 -10 -24q-70 -78 -182 -78q-104 0 -173 70t-69 176q0 105 68 175.5t168 70.5q101 0 162.5 -62.5t61.5 -166.5q0 -35 -37 -35zM128 270h319q-3 68 -43.5 110.5t-111.5 42.5
q-66 0 -112.5 -45.5t-51.5 -107.5zM272 610l79 91q12 14 28 14q13 -1 21.5 -9.5t8.5 -21.5q0 -12 -11 -24l-81 -89q-13 -14 -28 -14q-12 0 -20 8.5t-8 19.5q0 13 11 25z" />
    <glyph glyph-name="ecircumflex" unicode="&#xea;" horiz-adv-x="572" 
d="M479 216h-352q2 -71 51 -120.5t120 -49.5q80 0 135 61q12 13 26 13q13 0 22 -8t9 -22q0 -13 -10 -24q-70 -78 -182 -78q-104 0 -173 70t-69 176q0 105 68 175.5t168 70.5q101 0 162.5 -62.5t61.5 -166.5q0 -35 -37 -35zM128 270h319q-3 68 -43.5 110.5t-111.5 42.5
q-66 0 -112.5 -45.5t-51.5 -107.5zM384 569l-85 90l-85 -90q-11 -12 -23 -12q-11 0 -18.5 7t-7.5 18t10 22l78 85q24 26 46 26t46 -26l78 -85q10 -11 10 -22t-7.5 -18t-18.5 -7q-12 0 -23 12z" />
    <glyph glyph-name="edieresis" unicode="&#xeb;" horiz-adv-x="572" 
d="M479 216h-352q2 -71 51 -120.5t120 -49.5q80 0 135 61q12 13 26 13q13 0 22 -8t9 -22q0 -13 -10 -24q-70 -78 -182 -78q-104 0 -173 70t-69 176q0 105 68 175.5t168 70.5q101 0 162.5 -62.5t61.5 -166.5q0 -35 -37 -35zM128 270h319q-3 68 -43.5 110.5t-111.5 42.5
q-66 0 -112.5 -45.5t-51.5 -107.5zM152 647q0 20 14.5 35.5t36.5 15.5t36.5 -15.5t14.5 -35.5t-14.5 -35.5t-36.5 -15.5t-36.5 15.5t-14.5 35.5zM344 647q0 20 14.5 35.5t36.5 15.5t36.5 -15.5t14.5 -35.5t-14.5 -35.5t-36.5 -15.5t-36.5 15.5t-14.5 35.5z" />
    <glyph glyph-name="igrave" unicode="&#xec;" horiz-adv-x="250" 
d="M91 30v408q0 21 11 29t23 8q7 0 14 -2t13.5 -11t6.5 -24v-408q0 -21 -11 -29t-23 -8q-7 0 -14 2t-13.5 11t-6.5 24zM59 701l79 -91q11 -12 11 -25q0 -11 -8 -19.5t-20 -8.5q-15 0 -28 14l-81 89q-11 12 -11 24q0 13 8.5 21.5t21.5 9.5q16 0 28 -14z" />
    <glyph glyph-name="iacute" unicode="&#xed;" horiz-adv-x="250" 
d="M91 30v408q0 21 11 29t23 8q7 0 14 -2t13.5 -11t6.5 -24v-408q0 -21 -11 -29t-23 -8q-7 0 -14 2t-13.5 11t-6.5 24zM111 610l79 91q12 14 28 14q13 -1 21.5 -9.5t8.5 -21.5q0 -12 -11 -24l-81 -89q-13 -14 -28 -14q-12 0 -20 8.5t-8 19.5q0 13 11 25z" />
    <glyph glyph-name="icircumflex" unicode="&#xee;" horiz-adv-x="250" 
d="M91 30v408q0 21 11 29t23 8q7 0 14 -2t13.5 -11t6.5 -24v-408q0 -21 -11 -29t-23 -8q-7 0 -14 2t-13.5 11t-6.5 24zM212 569l-85 90l-85 -90q-11 -12 -23 -12q-11 0 -18.5 7t-7.5 18t10 22l78 85q24 26 46 26t46 -26l78 -85q10 -11 10 -22t-7.5 -18t-18.5 -7
q-12 0 -23 12z" />
    <glyph glyph-name="idieresis" unicode="&#xef;" horiz-adv-x="250" 
d="M91 30v408q0 21 11 29t23 8q7 0 14 -2t13.5 -11t6.5 -24v-408q0 -21 -11 -29t-23 -8q-7 0 -14 2t-13.5 11t-6.5 24zM-21 647q0 20 14.5 35.5t36.5 15.5t36.5 -15.5t14.5 -35.5t-14.5 -35.5t-36.5 -15.5t-36.5 15.5t-14.5 35.5zM171 647q0 20 14.5 35.5t36.5 15.5
t36.5 -15.5t14.5 -35.5t-14.5 -35.5t-36.5 -15.5t-36.5 15.5t-14.5 35.5z" />
    <glyph glyph-name="eth" unicode="&#xf0;" horiz-adv-x="611" 
d="M426 699l-74 -39q90 -86 141.5 -191.5t51.5 -216.5q0 -48 -13.5 -92.5t-41.5 -84t-78 -63.5t-116 -24q-108 0 -178 70t-70 176t70 176t178 70q80 0 150 -58l2 2q-58 117 -156 205l-97 -50q-8 -4 -16 -4q-10 0 -17 7t-7 17q0 15 16 23l83 42q-31 27 -61 50q-18 14 -18 29
q0 13 9 22t22 9t28 -12q32 -24 79 -66l89 46q8 4 16 4q10 0 17 -7t7 -17q0 -15 -16 -23zM120 234q0 -80 48.5 -133t127.5 -53q80 0 128.5 53t48.5 133t-48.5 133t-128.5 53q-79 0 -127.5 -53t-48.5 -133z" />
    <glyph glyph-name="ntilde" unicode="&#xf1;" horiz-adv-x="581" 
d="M153 440l2 -52h2q19 40 64.5 66t95.5 26q87 0 132.5 -52t45.5 -141v-257q0 -21 -11 -29t-23 -8q-7 0 -14 2t-13.5 11t-6.5 24v229q0 79 -28.5 121.5t-98.5 42.5q-59 0 -100.5 -47.5t-41.5 -135.5v-210q0 -21 -11 -29t-23 -8q-7 0 -14 2t-13.5 11t-6.5 24v335q0 43 -2 75
q-1 20 9.5 27.5t22.5 7.5q32 0 33 -35zM362 634q25 0 39 36q7 20 25 20q26 0 26 -26q0 -10 -5 -23q-26 -62 -85 -62q-25 0 -71 24q-44 23 -66 23q-25 0 -39 -36q-8 -20 -25 -20q-26 0 -26 26q0 10 5 23q26 62 85 62q24 0 72 -24q50 -23 65 -23z" />
    <glyph glyph-name="ograve" unicode="&#xf2;" horiz-adv-x="611" 
d="M555 234q0 -106 -70.5 -176t-179.5 -70q-108 0 -178.5 70t-70.5 176t70.5 176t178.5 70q109 0 179.5 -70t70.5 -176zM483 234q0 81 -49 135t-129 54q-79 0 -128 -54t-49 -135q0 -80 49 -134t128 -54q80 0 129 53.5t49 134.5zM244 701l79 -91q11 -12 11 -25
q0 -11 -8 -19.5t-20 -8.5q-15 0 -28 14l-81 89q-11 12 -11 24q0 13 8.5 21.5t21.5 9.5q16 0 28 -14z" />
    <glyph glyph-name="oacute" unicode="&#xf3;" horiz-adv-x="611" 
d="M555 234q0 -106 -70.5 -176t-179.5 -70q-108 0 -178.5 70t-70.5 176t70.5 176t178.5 70q109 0 179.5 -70t70.5 -176zM483 234q0 81 -49 135t-129 54q-79 0 -128 -54t-49 -135q0 -80 49 -134t128 -54q80 0 129 53.5t49 134.5zM285 610l79 91q12 14 28 14q13 -1 21.5 -9.5
t8.5 -21.5q0 -12 -11 -24l-81 -89q-13 -14 -28 -14q-12 0 -20 8.5t-8 19.5q0 13 11 25z" />
    <glyph glyph-name="ocircumflex" unicode="&#xf4;" horiz-adv-x="611" 
d="M555 234q0 -106 -70.5 -176t-179.5 -70q-108 0 -178.5 70t-70.5 176t70.5 176t178.5 70q109 0 179.5 -70t70.5 -176zM483 234q0 81 -49 135t-129 54q-79 0 -128 -54t-49 -135q0 -80 49 -134t128 -54q80 0 129 53.5t49 134.5zM390 569l-85 90l-85 -90q-11 -12 -23 -12
q-11 0 -18.5 7t-7.5 18t10 22l78 85q24 26 46 26t46 -26l78 -85q10 -11 10 -22t-7.5 -18t-18.5 -7q-12 0 -23 12z" />
    <glyph glyph-name="otilde" unicode="&#xf5;" horiz-adv-x="611" 
d="M555 234q0 -106 -70.5 -176t-179.5 -70q-108 0 -178.5 70t-70.5 176t70.5 176t178.5 70q109 0 179.5 -70t70.5 -176zM483 234q0 81 -49 135t-129 54q-79 0 -128 -54t-49 -135q0 -80 49 -134t128 -54q80 0 129 53.5t49 134.5zM374 634q25 0 39 36q7 20 25 20q26 0 26 -26
q0 -10 -5 -23q-26 -62 -85 -62q-25 0 -71 24q-44 23 -66 23q-25 0 -39 -36q-8 -20 -25 -20q-26 0 -26 26q0 10 5 23q26 62 85 62q24 0 72 -24q50 -23 65 -23z" />
    <glyph glyph-name="odieresis" unicode="&#xf6;" horiz-adv-x="611" 
d="M555 234q0 -106 -70.5 -176t-179.5 -70q-108 0 -178.5 70t-70.5 176t70.5 176t178.5 70q109 0 179.5 -70t70.5 -176zM483 234q0 81 -49 135t-129 54q-79 0 -128 -54t-49 -135q0 -80 49 -134t128 -54q80 0 129 53.5t49 134.5zM158 647q0 20 14.5 35.5t36.5 15.5
t36.5 -15.5t14.5 -35.5t-14.5 -35.5t-36.5 -15.5t-36.5 15.5t-14.5 35.5zM350 647q0 20 14.5 35.5t36.5 15.5t36.5 -15.5t14.5 -35.5t-14.5 -35.5t-36.5 -15.5t-36.5 15.5t-14.5 35.5z" />
    <glyph glyph-name="divide" unicode="&#xf7;" horiz-adv-x="666" 
d="M387 465q0 -22 -15.5 -38t-38.5 -16t-38.5 16t-15.5 38t15.5 38t38.5 16t38.5 -16t15.5 -38zM387 141q0 -22 -15.5 -38t-38.5 -16t-38.5 16t-15.5 38t15.5 38t38.5 16t38.5 -16t15.5 -38zM562 273h-458q-33 0 -33 30t33 30h458q33 0 33 -30t-33 -30z" />
    <glyph glyph-name="oslash" unicode="&#xf8;" horiz-adv-x="611" 
d="M555 234q0 -106 -71 -176t-180 -70q-92 0 -157 52l-52 -53q-9 -9 -18 -9t-15.5 6t-6.5 16t9 19l50 52q-58 67 -58 163q0 106 70 176t178 70q91 0 159 -52l52 53q9 9 18 9t15.5 -6t6.5 -16t-9 -19l-51 -52q60 -68 60 -163zM125 234q0 -73 34 -118l262 269q-40 40 -116 40
q-81 0 -130.5 -54.5t-49.5 -136.5zM486 234q0 74 -36 117l-262 -269q49 -39 115 -39q82 0 132.5 54.5t50.5 136.5z" />
    <glyph glyph-name="ugrave" unicode="&#xf9;" horiz-adv-x="581" 
d="M491 438v-335q0 -43 2 -75q1 -20 -9.5 -27.5t-22.5 -7.5q-32 0 -33 35q-2 38 -2 52h-2q-19 -40 -64.5 -66t-95.5 -26q-87 0 -132.5 52t-45.5 141v257q0 21 11 29t23 8q7 0 14 -2t13.5 -11t6.5 -24v-229q0 -79 28.5 -121.5t98.5 -42.5q59 0 100.5 47.5t41.5 135.5v210
q0 21 11 29t23 8q7 0 14 -2t13.5 -11t6.5 -24zM236 701l79 -91q11 -12 11 -25q0 -11 -8 -19.5t-20 -8.5q-15 0 -28 14l-81 89q-11 12 -11 24q0 13 8.5 21.5t21.5 9.5q16 0 28 -14z" />
    <glyph glyph-name="uacute" unicode="&#xfa;" horiz-adv-x="581" 
d="M491 438v-335q0 -43 2 -75q1 -20 -9.5 -27.5t-22.5 -7.5q-32 0 -33 35q-2 38 -2 52h-2q-19 -40 -64.5 -66t-95.5 -26q-87 0 -132.5 52t-45.5 141v257q0 21 11 29t23 8q7 0 14 -2t13.5 -11t6.5 -24v-229q0 -79 28.5 -121.5t98.5 -42.5q59 0 100.5 47.5t41.5 135.5v210
q0 21 11 29t23 8q7 0 14 -2t13.5 -11t6.5 -24zM262 610l79 91q12 14 28 14q13 -1 21.5 -9.5t8.5 -21.5q0 -12 -11 -24l-81 -89q-13 -14 -28 -14q-12 0 -20 8.5t-8 19.5q0 13 11 25z" />
    <glyph glyph-name="ucircumflex" unicode="&#xfb;" horiz-adv-x="581" 
d="M491 438v-335q0 -43 2 -75q1 -20 -9.5 -27.5t-22.5 -7.5q-32 0 -33 35q-2 38 -2 52h-2q-19 -40 -64.5 -66t-95.5 -26q-87 0 -132.5 52t-45.5 141v257q0 21 11 29t23 8q7 0 14 -2t13.5 -11t6.5 -24v-229q0 -79 28.5 -121.5t98.5 -42.5q59 0 100.5 47.5t41.5 135.5v210
q0 21 11 29t23 8q7 0 14 -2t13.5 -11t6.5 -24zM374 569l-85 90l-85 -90q-11 -12 -23 -12q-11 0 -18.5 7t-7.5 18t10 22l78 85q24 26 46 26t46 -26l78 -85q10 -11 10 -22t-7.5 -18t-18.5 -7q-12 0 -23 12z" />
    <glyph glyph-name="udieresis" unicode="&#xfc;" horiz-adv-x="581" 
d="M491 438v-335q0 -43 2 -75q1 -20 -9.5 -27.5t-22.5 -7.5q-32 0 -33 35q-2 38 -2 52h-2q-19 -40 -64.5 -66t-95.5 -26q-87 0 -132.5 52t-45.5 141v257q0 21 11 29t23 8q7 0 14 -2t13.5 -11t6.5 -24v-229q0 -79 28.5 -121.5t98.5 -42.5q59 0 100.5 47.5t41.5 135.5v210
q0 21 11 29t23 8q7 0 14 -2t13.5 -11t6.5 -24zM142 647q0 20 14.5 35.5t36.5 15.5t36.5 -15.5t14.5 -35.5t-14.5 -35.5t-36.5 -15.5t-36.5 15.5t-14.5 35.5zM334 647q0 20 14.5 35.5t36.5 15.5t36.5 -15.5t14.5 -35.5t-14.5 -35.5t-36.5 -15.5t-36.5 15.5t-14.5 35.5z" />
    <glyph glyph-name="yacute" unicode="&#xfd;" horiz-adv-x="488" 
d="M460 425l-221 -546q-24 -59 -57 -89t-90 -30q-25 0 -40 4q-25 7 -25 30q0 12 8 20.5t21 8.5q4 0 16 -2q8 -1 17 -1q32 0 52.5 20.5t36.5 62.5l38 98l-186 422q-4 11 -4 19q0 14 10.5 23.5t24.5 9.5q23 0 34 -27l156 -375h2l143 375q10 27 33 27q15 0 25 -9t10 -23
q0 -7 -4 -18zM225 610l79 91q12 14 28 14q13 -1 21.5 -9.5t8.5 -21.5q0 -12 -11 -24l-81 -89q-13 -14 -28 -14q-12 0 -20 8.5t-8 19.5q0 13 11 25z" />
    <glyph glyph-name="thorn" unicode="&#xfe;" horiz-adv-x="637" 
d="M581 234q0 -105 -67 -175.5t-175 -70.5q-52 0 -100 24t-77 67h-2v-289q0 -21 -11 -29t-23 -8q-7 0 -14 2t-13.5 11t-6.5 24v936q0 21 11 29t23 8q7 0 14 -2t13.5 -11t6.5 -24v-339h2q29 44 77 68.5t100 24.5q108 0 175 -70.5t67 -175.5zM509 234q0 81 -47.5 135
t-129.5 54q-78 0 -129 -54t-51 -135t51 -134.5t129 -53.5q82 0 129.5 53.5t47.5 134.5z" />
    <glyph glyph-name="ydieresis" unicode="&#xff;" horiz-adv-x="488" 
d="M460 425l-221 -546q-24 -59 -57 -89t-90 -30q-25 0 -40 4q-25 7 -25 30q0 12 8 20.5t21 8.5q4 0 16 -2q8 -1 17 -1q32 0 52.5 20.5t36.5 62.5l38 98l-186 422q-4 11 -4 19q0 14 10.5 23.5t24.5 9.5q23 0 34 -27l156 -375h2l143 375q10 27 33 27q15 0 25 -9t10 -23
q0 -7 -4 -18zM105 647q0 20 14.5 35.5t36.5 15.5t36.5 -15.5t14.5 -35.5t-14.5 -35.5t-36.5 -15.5t-36.5 15.5t-14.5 35.5zM297 647q0 20 14.5 35.5t36.5 15.5t36.5 -15.5t14.5 -35.5t-14.5 -35.5t-36.5 -15.5t-36.5 15.5t-14.5 35.5z" />
    <glyph glyph-name="dotlessi" unicode="&#x131;" horiz-adv-x="250" 
d="M91 30v408q0 21 11 29t23 8q7 0 14 -2t13.5 -11t6.5 -24v-408q0 -21 -11 -29t-23 -8q-7 0 -14 2t-13.5 11t-6.5 24z" />
    <glyph glyph-name="Lslash" unicode="&#x141;" horiz-adv-x="510" 
d="M94 43v199l-41 -35q-12 -10 -22 -10q-11 0 -18.5 7t-7.5 19t12 23l77 66v363q0 22 11.5 31t24.5 9q8 0 15 -2.5t14 -12t7 -25.5v-314l175 152q13 10 22 10q11 0 18.5 -7t7.5 -19t-12 -23l-211 -183v-227h302q20 0 27.5 -10.5t7.5 -21.5t-7.5 -21.5t-27.5 -10.5h-331
q-43 0 -43 43z" />
    <glyph glyph-name="lslash" unicode="&#x142;" horiz-adv-x="252" 
d="M92 331l-42 -43q-10 -10 -21 -10t-18 7t-7 18q0 10 9 20l79 80v323q0 37 33 37t33 -37v-268l41 43q10 10 21 10t18 -7t7 -18q0 -10 -9 -20l-78 -80v-356q0 -37 -33 -37t-33 37v301z" />
    <glyph glyph-name="OE" unicode="&#x152;" horiz-adv-x="977" 
d="M448 644q-77 0 -138.5 -24.5t-99.5 -66t-58 -92.5t-20 -107t20 -107t58 -92.5t99.5 -66t138.5 -24.5h65v580h-65zM890 644h-305v-244h281q20 0 27.5 -10t7.5 -21t-7.5 -21.5t-27.5 -10.5h-281v-273h317q20 0 27.5 -10.5t7.5 -21.5t-7.5 -21.5t-27.5 -10.5h-474
q-68 0 -133 22.5t-119 65t-87 112t-33 154.5t33 154.5t87 112t119 65t133 22.5h462q20 0 27.5 -10.5t7.5 -21.5t-7.5 -21.5t-27.5 -10.5z" />
    <glyph glyph-name="oe" unicode="&#x153;" horiz-adv-x="994" 
d="M483 234q0 81 -49.5 135t-129.5 54q-79 0 -128.5 -54.5t-49.5 -134.5t49 -134t129 -54t129.5 54t49.5 134zM550 270h319q-3 68 -43.5 110.5t-111.5 42.5q-66 0 -112.5 -45.5t-51.5 -107.5zM901 216h-354q2 -71 51.5 -120.5t121.5 -49.5q79 0 134 61q12 13 26 13
q13 0 22 -8t9 -22q0 -13 -10 -24q-71 -78 -182 -78q-67 0 -120 30t-84 84q-32 -54 -86.5 -84t-124.5 -30q-108 0 -178 70t-70 176t70 176t178 70q70 0 124 -30t86 -84q31 53 83 83.5t116 30.5q101 0 163 -63t62 -166q0 -35 -37 -35z" />
    <glyph glyph-name="Scaron" unicode="&#x160;" horiz-adv-x="564" 
d="M127 110q66 -66 147 -66q61 0 109 36.5t48 100.5q0 29 -10.5 51.5t-23.5 36.5t-40.5 27.5t-45 19.5t-53.5 17q-42 13 -70.5 26t-58.5 35t-45.5 56.5t-15.5 80.5q0 65 35.5 110.5t85 65t105.5 19.5q114 0 176 -62q12 -12 12 -27q0 -14 -9.5 -23.5t-24.5 -9.5t-32 15
q-52 46 -125 46q-59 0 -105 -35t-46 -98q0 -26 9.5 -47t20.5 -33t36.5 -25t40 -18l47.5 -16l44.5 -14.5t40 -15.5t41 -20.5t32 -25.5t29 -34t16 -42t7.5 -55q0 -99 -69 -151.5t-162 -52.5q-117 0 -194 74q-15 15 -15 32q0 14 10 24.5t25 10.5t28 -13zM201 903l85 -90l85 90
q11 12 23 12q11 0 18.5 -7t7.5 -18t-10 -22l-78 -85q-24 -26 -46 -26t-46 26l-78 85q-10 11 -10 22t7.5 18t18.5 7q12 0 23 -12z" />
    <glyph glyph-name="scaron" unicode="&#x161;" horiz-adv-x="444" 
d="M325 379q-41 44 -101 44q-41 0 -70 -18.5t-29 -54.5q0 -32 26 -50t86 -30q83 -17 122.5 -50t39.5 -87q0 -74 -51.5 -109.5t-124.5 -35.5q-99 0 -162 63q-13 13 -13 28q0 14 9 23t23 9t29 -15q47 -50 113 -50q48 0 79 19.5t31 62.5q0 35 -32.5 54t-105.5 36q-26 6 -45 13
t-41.5 21t-35 37.5t-12.5 54.5q0 67 48.5 101.5t118.5 34.5q86 0 142 -56q13 -13 13 -27q0 -13 -9 -22t-22 -9q-14 0 -26 13zM145 703l85 -90l85 90q11 12 23 12q11 0 18.5 -7t7.5 -18t-10 -22l-78 -85q-24 -26 -46 -26t-46 26l-78 85q-10 11 -10 22t7.5 18t18.5 7
q12 0 23 -12z" />
    <glyph glyph-name="Ydieresis" unicode="&#x178;" horiz-adv-x="602" 
d="M580 658l-243 -353v-272q0 -22 -11.5 -31t-24.5 -9q-8 0 -15 2.5t-14 12t-7 25.5v272l-240 348q-9 14 -9 26q0 16 11 26t27 10q20 0 34 -22l215 -328l218 330q13 20 32 20q14 0 24.5 -9t10.5 -24q0 -12 -8 -24zM156 847q0 20 14.5 35.5t36.5 15.5t36.5 -15.5t14.5 -35.5
t-14.5 -35.5t-36.5 -15.5t-36.5 15.5t-14.5 35.5zM348 847q0 20 14.5 35.5t36.5 15.5t36.5 -15.5t14.5 -35.5t-14.5 -35.5t-36.5 -15.5t-36.5 15.5t-14.5 35.5z" />
    <glyph glyph-name="Zcaron" unicode="&#x17d;" horiz-adv-x="572" 
d="M513 0h-450q-22 0 -30.5 12t-8.5 24q0 14 17 38l404 570h-375q-20 0 -27.5 10.5t-7.5 21.5t7.5 21.5t27.5 10.5h433q22 0 30.5 -12t8.5 -24q0 -14 -17 -38l-403 -570h391q20 0 27.5 -10.5t7.5 -21.5t-7.5 -21.5t-27.5 -10.5zM202 903l85 -90l85 90q11 12 23 12
q11 0 18.5 -7t7.5 -18t-10 -22l-78 -85q-24 -26 -46 -26t-46 26l-78 85q-10 11 -10 22t7.5 18t18.5 7q12 0 23 -12z" />
    <glyph glyph-name="zcaron" unicode="&#x17e;" horiz-adv-x="442" 
d="M385 0h-329q-18 0 -25 9.5t-7 20.5q0 14 14 32l277 349h-245q-32 0 -32 29q0 10 7 19t25 9h306q18 0 25 -9.5t7 -20.5q0 -14 -14 -32l-277 -347h268q19 0 26 -9.5t7 -19.5q0 -30 -33 -30zM140 703l85 -90l85 90q11 12 23 12q11 0 18.5 -7t7.5 -18t-10 -22l-78 -85
q-24 -26 -46 -26t-46 26l-78 85q-10 11 -10 22t7.5 18t18.5 7q12 0 23 -12z" />
    <glyph glyph-name="florin" unicode="&#x192;" horiz-adv-x="580" 
d="M256 13q-13 -67 -47.5 -109.5t-107.5 -42.5q-27 0 -48 7q-25 9 -25 30q0 12 8 21t21 9q7 0 21 -4q10 -3 25 -3q42 0 59.5 28.5t26.5 77.5l63 338h-85q-17 0 -23.5 8.5t-6.5 18.5t6.5 18.5t23.5 8.5h96l27 144q29 157 152 157q35 0 64 -12q23 -10 23 -28q0 -13 -7.5 -21.5
t-21.5 -8.5q-6 0 -18 4q-16 6 -36 6q-71 0 -90 -116l-22 -125h85q17 0 23.5 -8.5t6.5 -18.5t-6.5 -18.5t-23.5 -8.5h-96z" />
    <glyph glyph-name="circumflex" unicode="&#x2c6;" 
d="M205 569l-85 90l-85 -90q-11 -12 -23 -12q-11 0 -18.5 7t-7.5 18t10 22l78 85q24 26 46 26t46 -26l78 -85q10 -11 10 -22t-7.5 -18t-18.5 -7q-12 0 -23 12z" />
    <glyph glyph-name="caron" unicode="&#x2c7;" 
d="M35 703l85 -90l85 90q11 12 23 12q11 0 18.5 -7t7.5 -18t-10 -22l-78 -85q-24 -26 -46 -26t-46 26l-78 85q-10 11 -10 22t7.5 18t18.5 7q12 0 23 -12z" />
    <glyph glyph-name="uni02C9" unicode="&#x2c9;" 
d="M7 854h226q17 0 23.5 -8.5t6.5 -18.5t-6.5 -18.5t-23.5 -8.5h-226q-17 0 -23.5 8.5t-6.5 18.5t6.5 18.5t23.5 8.5z" />
    <glyph glyph-name="breve" unicode="&#x2d8;" 
d="M120 630q69 0 92 62q9 23 27 23q12 0 18.5 -7.5t6.5 -17.5q0 -8 -3 -18q-15 -49 -53 -72.5t-88 -23.5t-88 23.5t-53 72.5q-3 10 -3 18q0 10 6.5 17.5t18.5 7.5q18 0 27 -23q23 -62 92 -62z" />
    <glyph glyph-name="dotaccent" unicode="&#x2d9;" 
d="M168 648q0 -20 -14.5 -34t-33.5 -14t-33.5 14t-14.5 34t14.5 34t33.5 14t33.5 -14t14.5 -34z" />
    <glyph glyph-name="ring" unicode="&#x2da;" 
d="M216 650q0 -40 -28.5 -67.5t-67.5 -27.5t-67.5 27.5t-28.5 67.5t28.5 67.5t67.5 27.5t67.5 -27.5t28.5 -67.5zM180 650q0 25 -17.5 42t-42.5 17t-42.5 -17t-17.5 -42t17.5 -42t42.5 -17t42.5 17t17.5 42z" />
    <glyph glyph-name="ogonek" unicode="&#x2db;" 
d="M194 -199q-33 -24 -74 -24q-36 0 -63 24t-27 61q0 67 98 147h50q-33 -33 -48 -49.5t-27.5 -38.5t-12.5 -42q0 -21 14 -34.5t36 -13.5q15 0 31 9q9 5 16 5q21 0 21 -21q0 -13 -14 -23z" />
    <glyph glyph-name="tilde" unicode="&#x2dc;" 
d="M188 634q25 0 39 36q7 20 25 20q26 0 26 -26q0 -10 -5 -23q-26 -62 -85 -62q-25 0 -71 24q-44 23 -66 23q-25 0 -39 -36q-8 -20 -25 -20q-26 0 -26 26q0 10 5 23q26 62 85 62q24 0 72 -24q50 -23 65 -23z" />
    <glyph glyph-name="hungarumlaut" unicode="&#x2dd;" 
d="M-40 610l75 91q12 14 29 14q29 -2 29 -30q0 -13 -11 -25l-77 -89q-13 -14 -27 -14q-13 0 -21 8t-8 20q0 13 11 25zM131 610l75 91q12 14 29 14q29 -2 29 -30q0 -13 -11 -25l-77 -89q-13 -14 -27 -14q-13 0 -21 8t-8 20q0 13 11 25z" />
    <glyph glyph-name="uni0394" unicode="&#x394;" horiz-adv-x="670" 
d="M568 62l-236 579l-233 -579h469zM382 679l255 -613q8 -20 8 -31q0 -12 -9.5 -23.5t-33.5 -11.5h-533q-24 0 -33.5 11.5t-9.5 23.5q0 11 8 31l250 613q16 40 49 40t49 -40z" />
    <glyph glyph-name="uni03A9" unicode="&#x3a9;" horiz-adv-x="744" 
d="M275 186q23 -6 23 -33v-119q0 -34 -34 -34h-192q-32 0 -32 29t32 29h172v82q-92 26 -144.5 102t-52.5 174q0 131 94 218t226 87t225 -86.5t93 -217.5q0 -99 -52 -175t-145 -102v-82h172q32 0 32 -29t-32 -29h-192q-34 0 -34 34v119q0 26 23 33q80 22 120.5 83.5
t40.5 145.5q0 106 -72.5 175.5t-179.5 69.5t-179.5 -69.5t-72.5 -175.5q0 -87 42 -148t119 -81z" />
    <glyph glyph-name="uni03BC" unicode="&#x3bc;" horiz-adv-x="556" 
d="M476 30q1 -21 -10.5 -29t-24.5 -8q-7 0 -14 2t-13.5 11t-6.5 24v46h-2q-56 -88 -157 -88q-69 0 -110 29v-215q0 -37 -33 -37t-33 37v636q0 37 33 37t33 -37v-229q0 -88 28 -124.5t99 -36.5q62 0 102 48t40 132v210q0 37 33 37t33 -37v-335q0 -21 3 -73z" />
    <glyph glyph-name="pi" unicode="&#x3c0;" horiz-adv-x="563" 
d="M450 104q0 -17 1.5 -27t8.5 -17.5t20 -7.5q6 0 15 3t15 3q26 0 26 -27q0 -17 -20 -26q-26 -11 -50 -11q-23 0 -38.5 7t-23.5 16t-12 27t-5 31t-1 36v298h-220v-380q0 -20 -10 -28t-22 -8t-22 8t-10 28v380h-44q-13 0 -21 6t-10 12t-2 12t2 12t10 11.5t21 5.5h442
q13 0 21 -5.5t10 -11.5t2 -12t-2 -12t-10 -12t-21 -6h-50v-305z" />
    <glyph glyph-name="endash" unicode="&#x2013;" horiz-adv-x="400" 
d="M345 214h-290q-32 0 -32 29q0 10 7 19t25 9h290q18 0 25 -9t7 -19q0 -29 -32 -29z" />
    <glyph glyph-name="emdash" unicode="&#x2014;" horiz-adv-x="600" 
d="M545 214h-490q-32 0 -32 29q0 10 7 19t25 9h490q18 0 25 -9t7 -19q0 -29 -32 -29z" />
    <glyph glyph-name="quoteleft" unicode="&#x2018;" horiz-adv-x="222" 
d="M172 669l-55 -177q-7 -26 -31 -26q-13 0 -22.5 8.5t-9.5 22.5q0 8 3 17l56 175q8 26 31 26q13 0 22 -7.5t9 -20.5q0 -8 -3 -18z" />
    <glyph glyph-name="quoteright" unicode="&#x2019;" horiz-adv-x="222" 
d="M49 512l55 177q7 26 31 26q13 0 22.5 -8.5t9.5 -22.5q0 -8 -3 -17l-56 -175q-8 -26 -31 -26q-13 0 -22 7.5t-9 20.5q0 8 3 18z" />
    <glyph glyph-name="quotesinglbase" unicode="&#x201a;" horiz-adv-x="222" 
d="M49 -101l55 177q7 26 31 26q13 0 22.5 -8.5t9.5 -22.5q0 -8 -3 -17l-56 -175q-8 -26 -31 -26q-13 0 -22 7.5t-9 20.5q0 8 3 18z" />
    <glyph glyph-name="quotedblleft" unicode="&#x201c;" horiz-adv-x="387" 
d="M172 669l-55 -177q-7 -26 -31 -26q-13 0 -22.5 8.5t-9.5 22.5q0 8 3 17l56 175q8 26 31 26q13 0 22 -7.5t9 -20.5q0 -8 -3 -18zM337 669l-55 -177q-7 -26 -31 -26q-13 0 -22.5 8.5t-9.5 22.5q0 8 3 17l56 175q8 26 31 26q13 0 22 -7.5t9 -20.5q0 -8 -3 -18z" />
    <glyph glyph-name="quotedblright" unicode="&#x201d;" horiz-adv-x="387" 
d="M50 512l55 177q7 26 31 26q13 0 22.5 -8.5t9.5 -22.5q0 -8 -3 -17l-56 -175q-8 -26 -31 -26q-13 0 -22 7.5t-9 20.5q0 8 3 18zM215 512l55 177q7 26 31 26q13 0 22.5 -8.5t9.5 -22.5q0 -8 -3 -17l-56 -175q-8 -26 -31 -26q-13 0 -22 7.5t-9 20.5q0 8 3 18z" />
    <glyph glyph-name="quotedblbase" unicode="&#x201e;" horiz-adv-x="387" 
d="M50 -101l55 177q7 26 31 26q13 0 22.5 -8.5t9.5 -22.5q0 -8 -3 -17l-56 -175q-8 -26 -31 -26q-13 0 -22 7.5t-9 20.5q0 8 3 18zM215 -101l55 177q7 26 31 26q13 0 22.5 -8.5t9.5 -22.5q0 -8 -3 -17l-56 -175q-8 -26 -31 -26q-13 0 -22 7.5t-9 20.5q0 8 3 18z" />
    <glyph glyph-name="dagger" unicode="&#x2020;" horiz-adv-x="556" 
d="M489 444h-178v-540q0 -37 -33 -37t-33 37v540h-178q-33 0 -33 30t33 30h178v174q0 37 33 37t33 -37v-174h178q33 0 33 -30t-33 -30z" />
    <glyph glyph-name="daggerdbl" unicode="&#x2021;" horiz-adv-x="556" 
d="M480 66h-169v-162q0 -37 -33 -37t-33 37v162h-169q-33 0 -33 30t33 30h169v330h-169q-33 0 -33 30t33 30h169v162q0 37 33 37t33 -37v-162h169q33 0 33 -30t-33 -30h-169v-330h169q33 0 33 -30t-33 -30z" />
    <glyph glyph-name="bullet" unicode="&#x2022;" horiz-adv-x="500" 
d="M73 354q0 74 51.5 125.5t125.5 51.5t125.5 -51.5t51.5 -125.5t-51.5 -125.5t-125.5 -51.5t-125.5 51.5t-51.5 125.5z" />
    <glyph glyph-name="ellipsis" unicode="&#x2026;" horiz-adv-x="1000" 
d="M221 48q0 -22 -15.5 -38t-38.5 -16t-38.5 16t-15.5 38t15.5 38t38.5 16t38.5 -16t15.5 -38zM554 48q0 -22 -15.5 -38t-38.5 -16t-38.5 16t-15.5 38t15.5 38t38.5 16t38.5 -16t15.5 -38zM887 48q0 -22 -15.5 -38t-38.5 -16t-38.5 16t-15.5 38t15.5 38t38.5 16t38.5 -16
t15.5 -38z" />
    <glyph glyph-name="perthousand" unicode="&#x2030;" horiz-adv-x="1000" 
d="M331 566q0 -63 -45 -108.5t-108 -45.5t-108 45.5t-45 108.5t45 108.5t108 45.5t108 -45.5t45 -108.5zM277 566q0 41 -29 70.5t-70 29.5t-70 -29.5t-29 -70.5t29 -70.5t70 -29.5t70 29.5t29 70.5zM625 142q0 -63 -45 -108.5t-108 -45.5t-108 45.5t-45 108.5t45 108.5
t108 45.5t108 -45.5t45 -108.5zM571 142q0 41 -29 70.5t-70 29.5t-70 -29.5t-29 -70.5t29 -70.5t70 -29.5t70 29.5t29 70.5zM975 142q0 -63 -45 -108.5t-108 -45.5t-108 45.5t-45 108.5t45 108.5t108 45.5t108 -45.5t45 -108.5zM921 142q0 41 -29 70.5t-70 29.5t-70 -29.5
t-29 -70.5t29 -70.5t70 -29.5t70 29.5t29 70.5zM87 19l424 699q11 17 27 17q12 0 20.5 -7.5t8.5 -20.5q0 -9 -6 -19l-424 -699q-11 -17 -27 -17q-12 0 -20.5 7.5t-8.5 20.5q0 9 6 19z" />
    <glyph glyph-name="guilsinglleft" unicode="&#x2039;" horiz-adv-x="315" 
d="M184 54l-109 162q-9 13 -9 24t9 24l109 162q11 16 26 16q12 0 20 -7.5t8 -19.5q0 -10 -7 -22l-100 -153l100 -153q7 -12 7 -22q0 -12 -8 -19.5t-20 -7.5q-15 0 -26 16z" />
    <glyph glyph-name="guilsinglright" unicode="&#x203a;" horiz-adv-x="315" 
d="M240 216l-109 -162q-11 -16 -26 -16q-12 0 -20 7.5t-8 19.5q0 10 7 22l100 153l-100 153q-7 12 -7 22q0 12 8 19.5t20 7.5q15 0 26 -16l109 -162q9 -13 9 -24t-9 -24z" />
    <glyph glyph-name="fraction" unicode="&#x2044;" horiz-adv-x="100" 
d="M-190 21l423 697q11 17 26 17q12 0 21 -7.5t9 -20.5q0 -8 -6 -19l-423 -697q-11 -17 -26 -17q-12 0 -21 7.5t-9 20.5q0 8 6 19z" />
    <glyph glyph-name="Euro" unicode="&#x20ac;" horiz-adv-x="580" 
d="M484 646q-43 17 -100 17q-85 0 -142.5 -51.5t-78.5 -142.5h267q18 0 25 -9t7 -18q0 -10 -7 -19t-25 -9h-276q-5 -33 -5 -65q0 -25 4 -57h224q18 0 25 -9t7 -18q0 -10 -7 -19t-25 -9h-217q16 -87 78 -139.5t146 -52.5q62 0 114 26q10 5 19 5q12 0 21 -8.5t9 -22.5
q0 -19 -21 -30q-63 -33 -151 -33q-115 0 -191.5 75t-95.5 180h-42q-18 0 -25 9t-7 19q0 9 7 18t25 9h35q-3 42 -3 56q0 34 4 66h-35q-18 0 -25 9t-7 19q0 9 7 18t25 9h43q27 121 107 189t190 68q67 0 119 -20q28 -10 28 -32q0 -14 -8.5 -23t-22.5 -9q-8 0 -19 4z" />
    <glyph glyph-name="afii61289" unicode="&#x2113;" horiz-adv-x="500" 
d="M340 588q0 38 -15 61.5t-38 23.5q-25 0 -43 -30t-18 -86v-222q114 132 114 253zM285 -14q-57 0 -92 33t-35 95v114l-43 -46q-8 -8 -17 -8q-10 0 -16.5 6t-6.5 16t9 19l74 72v259q0 81 36.5 128t92.5 47q49 0 79.5 -34.5t30.5 -93.5q0 -142 -171 -318v-150q0 -47 22 -67
t53 -20q36 0 72 25q11 8 19 8q21 0 21 -22q0 -10 -11 -19q-54 -44 -117 -44z" />
    <glyph glyph-name="trademark" unicode="&#x2122;" horiz-adv-x="1000" 
d="M208 654h-113q-30 0 -30 27t30 27h283q30 0 30 -27t-30 -27h-110v-332q0 -13 -6 -21t-12 -10t-12 -2t-12 2t-12 10t-6 21v332zM487 322v354q0 20 11.5 28.5t23.5 8.5q24 0 37 -28l150 -316l147 316q13 28 37 28q7 0 14 -2.5t14 -11.5t7 -23v-354q0 -13 -6 -21t-12 -10
t-12 -2t-12 2t-12 10t-6 21v254h-1l-125 -262q-12 -26 -34 -26t-34 26l-126 262h-1v-254q0 -13 -6 -21t-12 -10t-12 -2t-12 2t-12 10t-6 21z" />
    <glyph glyph-name="Omega" unicode="&#x2126;" horiz-adv-x="744" 
d="M275 186q23 -6 23 -33v-119q0 -34 -34 -34h-192q-32 0 -32 29t32 29h172v82q-92 26 -144.5 102t-52.5 174q0 131 94 218t226 87t225 -86.5t93 -217.5q0 -99 -52 -175t-145 -102v-82h172q32 0 32 -29t-32 -29h-192q-34 0 -34 34v119q0 26 23 33q80 22 120.5 83.5
t40.5 145.5q0 106 -72.5 175.5t-179.5 69.5t-179.5 -69.5t-72.5 -175.5q0 -87 42 -148t119 -81z" />
    <glyph glyph-name="estimated" unicode="&#x212e;" horiz-adv-x="605" 
d="M561 259h-404v-181q59 -59 145 -59q122 0 193 120l35 -21q-46 -72 -98 -103.5t-130 -31.5q-115 0 -186.5 79t-71.5 197q0 119 71 197.5t187 78.5q115 0 186.5 -77t72.5 -199zM157 295h291v145q-63 60 -147 60t-144 -60v-145z" />
    <glyph glyph-name="partialdiff" unicode="&#x2202;" horiz-adv-x="496" 
d="M120 634q-11 -7 -21 -7q-11 0 -19 7.5t-8 20.5q0 15 15 26q54 40 123 40q68 0 118.5 -33t76.5 -88.5t38 -114t12 -122.5q0 -50 -4.5 -96t-19.5 -99t-38.5 -91t-65.5 -63.5t-97 -25.5q-90 0 -144.5 66t-54.5 158q0 90 52.5 151.5t141.5 61.5q97 0 166 -84q0 9 0.5 26
t0.5 26q0 61 -16.5 120.5t-59 106t-103.5 46.5q-44 0 -93 -32zM386 278q-68 91 -155 91q-64 0 -100.5 -46.5t-36.5 -112.5t36.5 -117.5t100.5 -51.5q41 0 72 23.5t47.5 61.5t25 75.5t10.5 76.5z" />
    <glyph glyph-name="Delta" unicode="&#x2206;" horiz-adv-x="670" 
d="M568 62l-236 579l-233 -579h469zM382 679l255 -613q8 -20 8 -31q0 -12 -9.5 -23.5t-33.5 -11.5h-533q-24 0 -33.5 11.5t-9.5 23.5q0 11 8 31l250 613q16 40 49 40t49 -40z" />
    <glyph glyph-name="product" unicode="&#x220f;" horiz-adv-x="711" 
d="M641 745v-929q0 -37 -33 -37t-33 37v908h-438v-908q0 -37 -33 -37t-33 37v929q0 41 41 41h488q41 0 41 -41z" />
    <glyph glyph-name="summation" unicode="&#x2211;" horiz-adv-x="604" 
d="M551 -214h-495q-20 0 -29 10.5t-9 23.5t17 37l319 432l-305 426q-17 24 -17 37t9 23.5t29 10.5h469q19 0 26.5 -10t7.5 -21t-7.5 -21t-26.5 -10h-417l291 -406q11 -15 11 -28t-11 -28l-310 -415h448q19 0 26.5 -10t7.5 -20q0 -11 -7.5 -21t-26.5 -10z" />
    <glyph glyph-name="minus" unicode="&#x2212;" horiz-adv-x="666" 
d="M562 273h-458q-33 0 -33 30t33 30h458q33 0 33 -30t-33 -30z" />
    <glyph glyph-name="uni2215" unicode="&#x2215;" horiz-adv-x="100" 
d="M-190 21l423 697q11 17 26 17q12 0 21 -7.5t9 -20.5q0 -8 -6 -19l-423 -697q-11 -17 -26 -17q-12 0 -21 7.5t-9 20.5q0 8 6 19z" />
    <glyph glyph-name="uni2219" unicode="&#x2219;" horiz-adv-x="260" 
d="M184 314q0 -22 -15.5 -38t-38.5 -16t-38.5 16t-15.5 38t15.5 38t38.5 16t38.5 -16t15.5 -38z" />
    <glyph glyph-name="radical" unicode="&#x221a;" horiz-adv-x="493" 
d="M108 169l142 -299l185 896q6 27 30 27q31 0 31 -30q0 -5 -2 -15l-196 -933q-7 -36 -42 -36q-27 0 -39 26l-155 321l-21 -10q-10 -5 -18 -5q-11 0 -18.5 8.5t-7.5 20.5q0 17 16 24l45 22q10 5 20 5q19 0 30 -22z" />
    <glyph glyph-name="infinity" unicode="&#x221e;" horiz-adv-x="741" 
d="M700 252q0 -64 -38.5 -106t-101.5 -42q-36 0 -73.5 18.5t-59 36.5t-56.5 52q-9 -7 -33 -28.5t-36.5 -31t-34 -23t-42.5 -19t-44 -5.5q-62 0 -101 41.5t-39 103.5q0 63 38 105.5t100 42.5q36 0 75 -20t59 -37.5t58 -54.5l22.5 21.5l24.5 23l23 20.5t27.5 20l27 14t31 11
t31.5 3q63 0 102.5 -41.5t39.5 -104.5zM643 249q0 40 -22 66t-61 26q-26 0 -57 -17.5t-48.5 -32.5t-45.5 -43q30 -27 47 -41t48 -29.5t59 -15.5q37 0 58.5 24.5t21.5 62.5zM333 249q-3 2 -18 15l-21 18l-20.5 16.5t-24 17t-22.5 12t-25 9.5t-24 3q-37 0 -58.5 -26.5
t-21.5 -63.5q0 -39 22.5 -63.5t61.5 -24.5q62 0 151 87z" />
    <glyph glyph-name="integral" unicode="&#x222b;" horiz-adv-x="543" 
d="M406 737q0 -16 -10 -25.5t-26 -9.5q-18 0 -30.5 15t-22.5 15q-21 0 -27.5 -36.5t-6.5 -144.5v-524q0 -122 -27 -181t-95 -59q-24 0 -42 11.5t-18 34.5q0 14 9.5 23.5t23.5 9.5q17 0 28.5 -14t21.5 -14q11 0 17.5 13t11 51.5t4.5 105.5v545q0 121 25 177t94 56
q27 0 48.5 -12t21.5 -37z" />
    <glyph glyph-name="approxequal" unicode="&#x2248;" horiz-adv-x="666" 
d="M194 338q-51 0 -69 -60q-6 -22 -24 -22q-25 0 -25 24q0 8 3 18q29 99 116 99q45 0 143 -36q97 -37 136 -37q51 0 69 60q6 22 24 22q25 0 25 -24q0 -8 -3 -18q-29 -99 -116 -99q-48 0 -145 37q-98 36 -134 36zM194 167q-51 0 -69 -60q-6 -22 -24 -22q-25 0 -25 24
q0 7 3 18q29 99 116 99q45 0 143 -36q97 -37 136 -37q51 0 69 60q6 22 24 22q25 0 25 -24q0 -7 -3 -18q-29 -99 -116 -99q-48 0 -145 37q-98 36 -134 36z" />
    <glyph glyph-name="notequal" unicode="&#x2260;" horiz-adv-x="666" 
d="M481 466l-51 -96h128q33 0 33 -30t-33 -30h-160l-69 -130h229q33 0 33 -30t-33 -30h-261l-63 -119q-10 -19 -27 -19q-12 0 -20.5 7.5t-8.5 20.5q0 10 5 19l48 91h-123q-33 0 -33 30t33 30h155l68 130h-223q-33 0 -33 30t33 30h255l66 124q10 19 27 19q13 0 21.5 -7.5
t8.5 -20.5q0 -10 -5 -19z" />
    <glyph glyph-name="lessequal" unicode="&#x2264;" horiz-adv-x="666" 
d="M558 6h-450q-33 0 -33 30q0 6 2 11.5t10 11.5t21 6h450q19 0 26 -9.5t7 -19.5q0 -30 -33 -30zM541 124l-434 166q-32 12 -32 38t32 38l434 168q12 5 21 5q13 0 21 -8.5t8 -21.5q0 -22 -23 -30l-396 -151l396 -149q23 -8 23 -29q0 -13 -8 -22t-21 -9q-8 0 -21 5z" />
    <glyph glyph-name="greaterequal" unicode="&#x2265;" horiz-adv-x="666" 
d="M558 6h-450q-33 0 -33 30q0 6 2 11.5t10 11.5t21 6h450q19 0 26 -9.5t7 -19.5q0 -30 -33 -30zM559 290l-434 -166q-13 -5 -21 -5q-13 0 -21 9t-8 22q0 21 23 29l396 149l-396 151q-23 8 -23 30q0 13 8 21.5t21 8.5q8 0 21 -5l434 -168q32 -12 32 -38t-32 -38z" />
    <glyph glyph-name="lozenge" unicode="&#x25ca;" horiz-adv-x="593" 
d="M433 356l-137 325l-136 -325l136 -325zM486 328l-146 -333q-16 -37 -45 -37q-28 0 -44 37l-144 333q-7 16 -7 28t7 28l144 333q16 37 44 37q29 0 45 -37l146 -333q7 -16 7 -28t-7 -28z" />
    <glyph glyph-name="uniF8FF" unicode="&#xf8ff;" horiz-adv-x="512" 
d="M222 146v8q0 18 9 25t19 7t19 -7t9 -25v-8q0 -18 -9 -25t-19 -7t-19 7t-9 25zM50 50h412v617h-412v-617zM0 32v654q0 32 31 32h450q31 0 31 -32v-654q0 -32 -31 -32h-450q-31 0 -31 32zM223 254q0 50 12.5 78t46.5 59q31 29 39.5 47.5t8.5 41.5q0 35 -21.5 57t-52.5 22
q-61 0 -79 -75q-6 -23 -26 -23q-11 0 -18 7.5t-7 17.5q0 5 2 14q24 109 131 109q54 0 89 -34t35 -91q0 -35 -13 -63t-52 -65q-31 -30 -39 -46t-8 -56q0 -27 -24 -27t-24 27z" />
    <glyph glyph-name="grave.cap" 
d="M81 901l79 -91q11 -12 11 -25q0 -11 -8 -19.5t-20 -8.5q-15 0 -28 14l-81 89q-11 12 -11 24q0 13 8.5 21.5t21.5 9.5q16 0 28 -14z" />
    <glyph glyph-name="acute.cap" 
d="M80 810l79 91q12 14 28 14q13 -1 21.5 -9.5t8.5 -21.5q0 -12 -11 -24l-81 -89q-13 -14 -28 -14q-12 0 -20 8.5t-8 19.5q0 13 11 25z" />
    <glyph glyph-name="circumflex.cap" 
d="M205 769l-85 90l-85 -90q-11 -12 -23 -12q-11 0 -18.5 7t-7.5 18t10 22l78 85q24 26 46 26t46 -26l78 -85q10 -11 10 -22t-7.5 -18t-18.5 -7q-12 0 -23 12z" />
    <glyph glyph-name="caron.cap" 
d="M35 903l85 -90l85 90q11 12 23 12q11 0 18.5 -7t7.5 -18t-10 -22l-78 -85q-24 -26 -46 -26t-46 26l-78 85q-10 11 -10 22t7.5 18t18.5 7q12 0 23 -12z" />
    <glyph glyph-name="caron.alt" 
d="M95 561l48 130q9 24 31 24q13 0 22 -8t9 -22q0 -8 -4 -19l-49 -127q-9 -23 -29 -23q-13 0 -22 8t-9 21q0 7 3 16z" />
    <glyph glyph-name="tilde.cap" 
d="M188 834q25 0 39 36q7 20 25 20q26 0 26 -26q0 -10 -5 -23q-26 -62 -85 -62q-25 0 -71 24q-44 23 -66 23q-25 0 -39 -36q-8 -20 -25 -20q-26 0 -26 26q0 10 5 23q26 62 85 62q24 0 72 -24q50 -23 65 -23z" />
    <glyph glyph-name="dieresis.cap" 
d="M-27 847q0 20 14.5 35.5t36.5 15.5t36.5 -15.5t14.5 -35.5t-14.5 -35.5t-36.5 -15.5t-36.5 15.5t-14.5 35.5zM165 847q0 20 14.5 35.5t36.5 15.5t36.5 -15.5t14.5 -35.5t-14.5 -35.5t-36.5 -15.5t-36.5 15.5t-14.5 35.5z" />
    <glyph glyph-name="macron.cap" 
d="M7 854h226q17 0 23.5 -8.5t6.5 -18.5t-6.5 -18.5t-23.5 -8.5h-226q-17 0 -23.5 8.5t-6.5 18.5t6.5 18.5t23.5 8.5z" />
    <glyph glyph-name="breve.cap" 
d="M120 830q69 0 92 62q9 23 27 23q12 0 18.5 -7.5t6.5 -17.5q0 -8 -3 -18q-15 -49 -53 -72.5t-88 -23.5t-88 23.5t-53 72.5q-3 10 -3 18q0 10 6.5 17.5t18.5 7.5q18 0 27 -23q23 -62 92 -62z" />
    <glyph glyph-name="ring.cap" 
d="M216 850q0 -40 -28.5 -67.5t-67.5 -27.5t-67.5 27.5t-28.5 67.5t28.5 67.5t67.5 27.5t67.5 -27.5t28.5 -67.5zM180 850q0 25 -17.5 42t-42.5 17t-42.5 -17t-17.5 -42t17.5 -42t42.5 -17t42.5 17t17.5 42z" />
    <glyph glyph-name="hungarumlaut.cap" 
d="M-40 810l75 91q12 14 29 14q29 -2 29 -30q0 -13 -11 -25l-77 -89q-13 -14 -27 -14q-13 0 -21 8t-8 20q0 13 11 25zM131 810l75 91q12 14 29 14q29 -2 29 -30q0 -13 -11 -25l-77 -89q-13 -14 -27 -14q-13 0 -21 8t-8 20q0 13 11 25z" />
    <glyph glyph-name="exclam.sc" horiz-adv-x="286" 
d="M196 47q0 -22 -15 -37.5t-38 -15.5t-38 15.5t-15 37.5t15 37.5t38 15.5t38 -15.5t15 -37.5zM178 498v-307q0 -22 -11 -31t-24 -9q-8 0 -15 2.5t-13.5 12t-6.5 25.5v307q0 22 11 31t24 9q8 0 15 -2.5t13.5 -12t6.5 -25.5z" />
    <glyph glyph-name="dollar.sc" horiz-adv-x="484" 
d="M261 239v-184q36 3 59 26t23 61q0 70 -82 97zM214 318v160q-35 -2 -56.5 -21.5t-21.5 -55.5q0 -34 19.5 -53t58.5 -30zM214 -41v41q-76 3 -134 53q-15 13 -15 28q0 13 8.5 22t21.5 9q14 0 35 -19q39 -36 84 -38v197q-67 19 -105 52t-38 92q0 62 40 96.5t103 38.5v38
q0 27 24 27q23 0 23 -27v-38q64 -3 107 -36q15 -12 15 -27q0 -13 -8 -21.5t-21 -8.5q-14 0 -29 13q-33 26 -64 26v-173q76 -23 113 -62t37 -99q0 -59 -43 -100t-107 -43v-41q0 -27 -23 -27q-24 0 -24 27z" />
    <glyph glyph-name="percent.sc" horiz-adv-x="660" 
d="M310 409q0 -56 -39 -95t-96 -39t-96 39t-39 95t39 95t96 39t96 -39t39 -95zM254 409q0 33 -23.5 55.5t-55.5 22.5t-55.5 -22.5t-23.5 -55.5t23.5 -55.5t55.5 -22.5t55.5 22.5t23.5 55.5zM621 122q0 -56 -39 -95t-96 -39t-96 39t-39 95t39 95t96 39t96 -39t39 -95z
M565 122q0 33 -23.5 55.5t-55.5 22.5t-55.5 -22.5t-23.5 -55.5t23.5 -55.5t55.5 -22.5t55.5 22.5t23.5 55.5zM510 510l-313 -518q-10 -17 -25 -17q-10 0 -19 7t-9 18q0 9 6 19l314 518q10 17 25 17q10 0 18.5 -7t8.5 -18q0 -8 -6 -19z" />
    <glyph glyph-name="ampersand.sc" horiz-adv-x="558" 
d="M494 240l-68 -114l74 -72q13 -13 13 -28q0 -13 -9.5 -23t-23.5 -10q-15 0 -28 13l-64 64q-66 -82 -170 -82q-71 0 -119.5 41t-48.5 111q0 94 114 155q-55 63 -55 125q0 55 38.5 89t97.5 34q61 0 97 -31.5t36 -87.5q0 -81 -114 -139l115 -113l57 100q12 21 31 21
q13 0 23 -9.5t10 -23.5q0 -9 -6 -20zM219 47q79 0 123 68l-137 137q-83 -42 -83 -113q0 -41 27 -66.5t70 -25.5zM177 417q0 -41 45 -91q88 42 88 98q0 28 -18.5 45t-45.5 17t-48 -19.5t-21 -49.5z" />
    <glyph glyph-name="zero.sc" horiz-adv-x="484" 
d="M422 265q0 -55 -9.5 -102t-29.5 -87.5t-56 -64t-85 -23.5q-50 0 -86 23.5t-56 64t-29 87.5t-9 102t9 102t29 88t56 64.5t86 23.5q49 0 85 -23.5t56 -64t29.5 -88t9.5 -102.5zM346 265q0 40 -5 76t-16.5 69t-32.5 52.5t-50 19.5t-50.5 -19.5t-32.5 -52.5t-16 -69t-5 -76
t5 -75.5t16 -68.5t32.5 -52t50.5 -19q55 0 79.5 63.5t24.5 151.5z" />
    <glyph glyph-name="one.sc" horiz-adv-x="484" 
d="M315 497v-465q0 -22 -11 -30.5t-24 -8.5t-24 8.5t-11 30.5v410l-61 -53q-13 -12 -26 -12t-22 9t-9 23q0 15 15 28l96 82q23 19 41 19q13 0 24.5 -9t11.5 -32z" />
    <glyph glyph-name="two.sc" horiz-adv-x="484" 
d="M408 394q0 -79 -85 -164l-169 -167h232q20 0 27.5 -10t7.5 -21t-7.5 -21.5t-27.5 -10.5h-277q-27 0 -37 12.5t-10 26.5q0 20 21 41l195 196q59 59 59 117q0 40 -25 63.5t-65 23.5q-64 0 -88 -59q-13 -32 -36 -32q-14 0 -24.5 8.5t-10.5 24.5q0 9 5 22q41 99 154 99
q71 0 116 -38.5t45 -110.5z" />
    <glyph glyph-name="three.sc" horiz-adv-x="484" 
d="M402 151q0 -76 -49.5 -119.5t-124.5 -43.5q-101 0 -153 81q-8 13 -8 26q0 14 10 23.5t24 9.5q20 0 35 -25q31 -52 92 -52q42 0 73 27t31 73q0 50 -33 73t-87 23h-8q-19 0 -26.5 10t-7.5 21t7.5 21t26.5 10h8q49 0 78 21.5t29 64.5q0 38 -28 62t-65 24q-48 0 -81 -41
q-12 -16 -29 -16q-14 0 -23 8.5t-9 22.5q0 13 10 25q51 63 135 63q68 0 114 -38.5t46 -106.5q0 -41 -24.5 -72.5t-63.5 -45.5q45 -13 73 -48t28 -81z" />
    <glyph glyph-name="four.sc" horiz-adv-x="484" 
d="M283 185v248h-2l-159 -248h161zM397 124h-48v-94q0 -37 -33 -37t-33 37v94h-197q-24 0 -33 12t-9 25q0 14 14 37l201 309q20 31 47 31q15 0 29 -11t14 -39v-303h48q19 0 26.5 -10t7.5 -20q0 -11 -7.5 -21t-26.5 -10z" />
    <glyph glyph-name="five.sc" horiz-adv-x="484" 
d="M136 98q29 -46 86 -46q50 0 81 31t31 81q0 52 -33 83.5t-84 31.5q-25 0 -54 -9q-21 -7 -30 -7q-30 0 -30 33l3 193q0 42 42 42h214q19 0 26.5 -10t7.5 -21t-7.5 -21t-26.5 -10h-188l-4 -140q27 9 58 9q82 0 129.5 -46t47.5 -124t-50 -129t-131 -51q-95 0 -145 72
q-9 13 -9 25q0 15 9.5 24t24.5 9q20 0 32 -20z" />
    <glyph glyph-name="six.sc" horiz-adv-x="484" 
d="M308 482l-112 -170q25 12 56 12q71 0 118 -44.5t47 -118.5q0 -76 -48.5 -124.5t-125.5 -48.5q-78 0 -127 47.5t-49 124.5q0 64 48 142l137 216q12 20 31 20q14 0 24 -9t10 -23q0 -10 -9 -24zM137 160q0 -47 30 -77.5t76 -30.5t75 30.5t29 77.5q0 46 -29 76.5t-75 30.5
q-48 0 -77 -30.5t-29 -76.5z" />
    <glyph glyph-name="seven.sc" horiz-adv-x="484" 
d="M407 466l-205 -447q-12 -26 -34 -26q-16 0 -26 9t-10 25q0 10 5 21l197 419h-226q-20 0 -27.5 10.5t-7.5 21.5t7.5 21.5t27.5 10.5h267q22 0 31 -11.5t9 -24.5t-8 -29z" />
    <glyph glyph-name="eight.sc" horiz-adv-x="484" 
d="M395 397q0 -39 -20.5 -69.5t-53.5 -44.5v-2q43 -17 68 -52.5t25 -84.5q0 -71 -48.5 -113.5t-123.5 -42.5q-76 0 -124.5 42.5t-48.5 113.5q0 49 24.5 84.5t67.5 52.5v2q-32 14 -52.5 44.5t-20.5 69.5q0 65 44.5 105.5t109.5 40.5q64 0 108.5 -40.5t44.5 -105.5zM139 151
q0 -43 28.5 -71t74.5 -28t74 28t28 71t-28.5 70t-73.5 27t-74 -27t-29 -70zM156 394q0 -37 25 -59.5t61 -22.5q35 0 60 22.5t25 59.5q0 38 -24 62t-61 24t-61.5 -24t-24.5 -62z" />
    <glyph glyph-name="nine.sc" horiz-adv-x="484" 
d="M368 229l-137 -216q-13 -20 -31 -20q-14 0 -24 9t-10 23q0 11 9 24l112 170q-25 -12 -56 -12q-71 0 -118 44.5t-47 118.5q0 76 48.5 124.5t125.5 48.5q78 0 127 -47.5t49 -124.5q0 -64 -48 -142zM346 371q0 47 -30 77.5t-76 30.5t-75 -30.5t-29 -77.5q0 -46 29 -76.5
t75 -30.5q48 0 77 30.5t29 76.5z" />
    <glyph glyph-name="question.sc" horiz-adv-x="380" 
d="M243 47q0 -22 -15 -37.5t-38 -15.5t-38 15.5t-15 37.5t15 37.5t38 15.5t38 -15.5t15 -37.5zM112 432q-12 -29 -35 -29q-14 0 -23.5 8.5t-9.5 22.5q0 10 5 22q38 87 145 87q70 0 110.5 -38.5t40.5 -94.5q0 -42 -16 -71t-54 -59q-31 -25 -43.5 -45t-12.5 -46q0 -38 -34 -38
t-34 38q0 34 12.5 60t46.5 56l28 25q37 33 37 76q0 30 -23 53.5t-61 23.5q-58 0 -79 -51z" />
    <glyph glyph-name="a.sc" horiz-adv-x="534" 
d="M448 18l-49 115h-269l-50 -116q-11 -24 -33 -24q-14 0 -23.5 9t-9.5 23q0 10 5 21l203 455q16 37 46 37q29 0 45 -37l201 -454q4 -9 4 -19q0 -14 -10 -24.5t-26 -10.5q-24 0 -34 25zM266 450l-110 -256h218z" />
    <glyph glyph-name="b.sc" horiz-adv-x="516" 
d="M261 0h-129q-42 0 -42 41v449q0 41 42 41h137q69 0 117.5 -32t48.5 -102q0 -86 -82 -117v-2q49 -10 78.5 -42.5t29.5 -85.5q0 -72 -56 -111t-144 -39zM160 469v-163h99q46 0 76 21t30 63q0 79 -118 79h-87zM160 245v-182h95q134 0 134 91t-127 91h-102z" />
    <glyph glyph-name="c.sc" horiz-adv-x="559" 
d="M463 102q16 17 31 17q14 0 23.5 -9.5t9.5 -23.5q0 -15 -13 -28q-70 -70 -180 -70q-121 0 -199.5 78t-78.5 200q0 123 79.5 200t201.5 77q103 0 167 -58q14 -13 14 -28q0 -14 -10 -24.5t-25 -10.5q-14 0 -30 15q-48 43 -116 43q-92 0 -148.5 -61.5t-56.5 -152.5
q0 -92 56 -153t147 -61q81 0 128 50z" />
    <glyph glyph-name="d.sc" horiz-adv-x="612" 
d="M271 0h-139q-42 0 -42 41v449q0 41 42 41h139q53 0 102 -15.5t91 -46.5t67 -83.5t25 -119.5q0 -65 -25.5 -117.5t-67 -84t-91 -48t-101.5 -16.5zM160 469v-406h96q101 0 163 55.5t62 147.5q0 94 -61.5 148.5t-163.5 54.5h-96z" />
    <glyph glyph-name="e.sc" horiz-adv-x="499" 
d="M410 0h-278q-42 0 -42 41v449q0 41 42 41h268q20 0 27.5 -10t7.5 -21t-7.5 -21t-27.5 -10h-240v-163h224q20 0 27.5 -10t7.5 -20q0 -11 -7.5 -21t-27.5 -10h-224v-182h250q20 0 28 -10t8 -21q0 -32 -36 -32z" />
    <glyph glyph-name="f.sc" horiz-adv-x="469" 
d="M375 240h-215v-208q0 -22 -11 -30.5t-24 -8.5t-24 8.5t-11 30.5v458q0 41 42 41h259q20 0 27.5 -10t7.5 -21t-7.5 -21t-27.5 -10h-231v-168h215q20 0 27.5 -10t7.5 -20q0 -11 -7.5 -21t-27.5 -10z" />
    <glyph glyph-name="g.sc" horiz-adv-x="617" 
d="M537 248v-182q0 -18 -8 -29t-29 -19q-76 -30 -162 -30q-124 0 -203 78t-79 200q0 123 79.5 200t201.5 77q105 0 170 -49q17 -13 17 -30q0 -14 -9 -24t-24 -10q-12 0 -24 9q-54 41 -129 41q-93 0 -149.5 -61.5t-56.5 -152.5q0 -92 56.5 -153t150.5 -61q80 0 128 28v149
h-92q-19 0 -26.5 10t-7.5 21q0 10 7.5 20t26.5 10h120q42 0 42 -42z" />
    <glyph glyph-name="h.sc" horiz-adv-x="615" 
d="M525 32q0 -22 -11 -30.5t-24 -8.5t-24 8.5t-11 30.5v213h-295v-213q0 -22 -11 -30.5t-24 -8.5t-24 8.5t-11 30.5v467q0 22 11 30.5t24 8.5t24 -8.5t11 -30.5v-193h295v193q0 22 11 30.5t24 8.5t24 -8.5t11 -30.5v-467z" />
    <glyph glyph-name="i.sc" horiz-adv-x="250" 
d="M160 499v-467q0 -22 -11 -30.5t-24 -8.5t-24 8.5t-11 30.5v467q0 22 11 30.5t24 8.5t24 -8.5t11 -30.5z" />
    <glyph glyph-name="j.sc" horiz-adv-x="400" 
d="M34 65q-5 10 -5 20q0 14 9.5 23.5t24.5 9.5q20 0 34 -24q25 -42 69 -42q82 0 82 114v333q0 22 11 30.5t24 8.5t24 -8.5t11 -30.5v-336q0 -31 -6 -58.5t-21 -55.5t-46 -44.5t-75 -16.5q-96 0 -136 77z" />
    <glyph glyph-name="k.sc" horiz-adv-x="523" 
d="M425 7l-263 269h-2v-244q0 -22 -11 -30.5t-24 -8.5t-24 8.5t-11 30.5v467q0 22 11 30.5t24 8.5t24 -8.5t11 -30.5v-203h2l251 230q13 12 27 12t23.5 -9t9.5 -24t-14 -28l-216 -189l233 -233q13 -13 13 -28q0 -14 -9.5 -24t-24.5 -10q-17 0 -30 14z" />
    <glyph glyph-name="l.sc" horiz-adv-x="421" 
d="M370 0h-238q-42 0 -42 41v458q0 22 11 30.5t24 8.5t24 -8.5t11 -30.5v-436h210q20 0 28 -10t8 -21q0 -32 -36 -32z" />
    <glyph glyph-name="m.sc" horiz-adv-x="724" 
d="M634 32q0 -22 -11 -30.5t-24 -8.5t-24 8.5t-11 30.5v352h-2l-158 -359q-14 -32 -42 -32t-42 32l-159 359h-1v-352q0 -22 -11 -30.5t-24 -8.5t-24 8.5t-11 30.5v459q0 26 13.5 36.5t28.5 10.5q31 0 47 -38l184 -422h2l180 422q16 38 47 38q15 0 28.5 -10.5t13.5 -36.5
v-459z" />
    <glyph glyph-name="n.sc" horiz-adv-x="613" 
d="M421 36l-260 385h-1v-389q0 -22 -11 -30.5t-24 -8.5t-24 8.5t-11 30.5v452q0 30 14 42t31 12q27 0 56 -43l260 -377h2v381q0 22 11 30.5t24 8.5t24 -8.5t11 -30.5v-452q0 -30 -14 -42t-31 -12q-28 0 -57 43z" />
    <glyph glyph-name="o.sc" horiz-adv-x="672" 
d="M616 267q0 -121 -80 -200t-201 -79q-120 0 -199.5 79t-79.5 200t79 198.5t200 77.5q122 0 201.5 -77.5t79.5 -198.5zM540 267q0 90 -56.5 152.5t-148.5 62.5q-91 0 -147 -62t-56 -153t56 -153.5t147 -62.5q92 0 148.5 62.5t56.5 153.5z" />
    <glyph glyph-name="p.sc" horiz-adv-x="487" 
d="M90 32v458q0 41 42 41h123q87 0 137 -40.5t50 -116.5t-53 -117t-138 -41h-91v-184q0 -22 -11 -30.5t-24 -8.5t-24 8.5t-11 30.5zM160 275h87q57 0 90.5 25.5t33.5 73.5q0 95 -124 95h-87v-194z" />
    <glyph glyph-name="q.sc" horiz-adv-x="672" 
d="M132 270q0 -90 54.5 -148.5t144.5 -58.5q89 0 144 59t55 148t-55 150.5t-144 61.5q-88 0 -143.5 -61.5t-55.5 -150.5zM612 0h-281q-121 0 -198 74.5t-77 195.5q0 119 78.5 196t196.5 77t195.5 -77t77.5 -196q0 -139 -109 -205v-2h117q20 0 28 -10t8 -21q0 -32 -36 -32z
" />
    <glyph glyph-name="r.sc" horiz-adv-x="497" 
d="M160 32q0 -22 -11 -30.5t-24 -8.5t-24 8.5t-11 30.5v458q0 41 42 41h126q84 0 135.5 -35t51.5 -111q0 -57 -35.5 -93.5t-94.5 -45.5l127 -193q9 -15 9 -25q0 -15 -9.5 -25t-25.5 -10q-20 0 -33 20l-142 224h-81v-205zM160 469v-171h87q127 0 127 87q0 84 -122 84h-92z
" />
    <glyph glyph-name="s.sc" horiz-adv-x="450" 
d="M213 -12q-87 0 -145 50q-18 15 -18 32q0 13 9.5 23t23.5 10t26 -11q49 -43 105 -43q43 0 76.5 24t33.5 69q0 23 -8.5 39.5t-29.5 28.5t-37 18t-52 17q-65 20 -102 52t-37 97q0 73 53.5 111t126.5 38q72 0 124 -38q18 -13 18 -30q0 -14 -9.5 -23.5t-23.5 -9.5t-28 12
q-37 29 -85 29q-42 0 -73.5 -22t-31.5 -64q0 -22 7.5 -37t26 -26t32 -16.5t43.5 -14.5l45.5 -15t40 -18.5t38 -27.5t23 -38t10.5 -55q0 -78 -53 -119.5t-129 -41.5z" />
    <glyph glyph-name="t.sc" horiz-adv-x="438" 
d="M183 32v437h-143q-20 0 -27.5 10t-7.5 21t7.5 21t27.5 10h358q20 0 27.5 -10t7.5 -21t-7.5 -21t-27.5 -10h-145v-437q0 -22 -11 -30.5t-24 -8.5t-24 8.5t-11 30.5z" />
    <glyph glyph-name="u.sc" horiz-adv-x="572" 
d="M490 499v-300q0 -88 -52 -149.5t-152 -61.5q-101 0 -152.5 61.5t-51.5 149.5v300q0 22 11 30.5t24 8.5t24 -8.5t11 -30.5v-295q0 -65 32 -108.5t102 -43.5t102 44t32 108v295q0 22 11 30.5t24 8.5t24 -8.5t11 -30.5z" />
    <glyph glyph-name="v.sc" horiz-adv-x="497" 
d="M478 481l-180 -447q-16 -41 -50 -41t-50 41l-179 447q-5 13 -5 23q0 14 10 24t25 10q24 0 35 -27l164 -427h2l163 427q10 27 34 27q16 0 26 -10t10 -24q0 -10 -5 -23z" />
    <glyph glyph-name="w.sc" horiz-adv-x="766" 
d="M735 486l-136 -454q-11 -39 -47 -39t-47 39l-121 399h-1l-123 -399q-11 -39 -47 -39t-47 39l-135 454q-3 10 -3 18q0 15 10.5 24.5t25.5 9.5q27 0 36 -32l115 -404h2l118 391q13 45 48 45t49 -45l118 -391h2l114 404q8 32 36 32q15 0 25.5 -9.5t10.5 -24.5q0 -8 -3 -18z
" />
    <glyph glyph-name="x.sc" horiz-adv-x="490" 
d="M405 11l-160 216l-159 -216q-13 -18 -31 -18q-15 0 -25 10t-10 24q0 13 9 25l172 228l-149 199q-10 14 -10 26q0 14 10 23.5t25 9.5q18 0 31 -18l137 -190l136 191q12 17 29 17q14 0 24 -9.5t10 -23.5q0 -12 -9 -24l-147 -201l174 -228q9 -12 9 -25q0 -14 -10 -24
t-25 -10q-18 0 -31 18z" />
    <glyph glyph-name="y.sc" horiz-adv-x="468" 
d="M447 482l-179 -252v-198q0 -22 -11 -30.5t-24 -8.5t-24 8.5t-11 30.5v198l-176 252q-8 11 -8 23q0 14 10 23.5t24 9.5q18 0 30 -18l156 -232l156 232q13 18 31 18q15 0 24.5 -9t9.5 -23q0 -13 -8 -24z" />
    <glyph glyph-name="z.sc" horiz-adv-x="498" 
d="M416 0h-331q-22 0 -30.5 11.5t-8.5 23.5q0 17 17 39l290 395h-266q-20 0 -27.5 10t-7.5 21t7.5 21t27.5 10h321q22 0 30.5 -12t8.5 -24q0 -14 -17 -38l-291 -394h277q20 0 28 -10t8 -21q0 -32 -36 -32z" />
    <glyph glyph-name="agrave.sc" horiz-adv-x="534" 
d="M448 18l-49 115h-269l-50 -116q-11 -24 -33 -24q-14 0 -23.5 9t-9.5 23q0 10 5 21l203 455q16 37 46 37q29 0 45 -37l201 -454q4 -9 4 -19q0 -14 -10 -24.5t-26 -10.5q-24 0 -34 25zM266 450l-110 -256h218zM196 731l79 -91q11 -12 11 -25q0 -11 -8 -19.5t-20 -8.5
q-15 0 -28 14l-81 89q-11 12 -11 24q0 13 8.5 21.5t21.5 9.5q16 0 28 -14z" />
    <glyph glyph-name="aacute.sc" horiz-adv-x="534" 
d="M448 18l-49 115h-269l-50 -116q-11 -24 -33 -24q-14 0 -23.5 9t-9.5 23q0 10 5 21l203 455q16 37 46 37q29 0 45 -37l201 -454q4 -9 4 -19q0 -14 -10 -24.5t-26 -10.5q-24 0 -34 25zM266 450l-110 -256h218zM261 640l79 91q12 14 28 14q13 -1 21.5 -9.5t8.5 -21.5
q0 -12 -11 -24l-81 -89q-13 -14 -28 -14q-12 0 -20 8.5t-8 19.5q0 13 11 25z" />
    <glyph glyph-name="acircumflex.sc" horiz-adv-x="534" 
d="M448 18l-49 115h-269l-50 -116q-11 -24 -33 -24q-14 0 -23.5 9t-9.5 23q0 10 5 21l203 455q16 37 46 37q29 0 45 -37l201 -454q4 -9 4 -19q0 -14 -10 -24.5t-26 -10.5q-24 0 -34 25zM266 450l-110 -256h218zM352 599l-85 90l-85 -90q-11 -12 -23 -12q-11 0 -18.5 7
t-7.5 18t10 22l78 85q24 26 46 26t46 -26l78 -85q10 -11 10 -22t-7.5 -18t-18.5 -7q-12 0 -23 12z" />
    <glyph glyph-name="atilde.sc" horiz-adv-x="534" 
d="M448 18l-49 115h-269l-50 -116q-11 -24 -33 -24q-14 0 -23.5 9t-9.5 23q0 10 5 21l203 455q16 37 46 37q29 0 45 -37l201 -454q4 -9 4 -19q0 -14 -10 -24.5t-26 -10.5q-24 0 -34 25zM266 450l-110 -256h218zM335 669q25 0 39 36q8 20 25 20q26 0 26 -26q0 -11 -5 -23
q-26 -62 -85 -62q-25 0 -71 24q-44 23 -66 23q-25 0 -39 -36q-7 -20 -25 -20q-26 0 -26 26q0 11 5 23q26 62 85 62q24 0 72 -24q50 -23 65 -23z" />
    <glyph glyph-name="adieresis.sc" horiz-adv-x="534" 
d="M448 18l-49 115h-269l-50 -116q-11 -24 -33 -24q-14 0 -23.5 9t-9.5 23q0 10 5 21l203 455q16 37 46 37q29 0 45 -37l201 -454q4 -9 4 -19q0 -14 -10 -24.5t-26 -10.5q-24 0 -34 25zM266 450l-110 -256h218zM120 677q0 20 14.5 35.5t36.5 15.5t36.5 -15.5t14.5 -35.5
t-14.5 -35.5t-36.5 -15.5t-36.5 15.5t-14.5 35.5zM312 677q0 20 14.5 35.5t36.5 15.5t36.5 -15.5t14.5 -35.5t-14.5 -35.5t-36.5 -15.5t-36.5 15.5t-14.5 35.5z" />
    <glyph glyph-name="aring.sc" horiz-adv-x="534" 
d="M448 18l-49 115h-269l-50 -116q-11 -24 -33 -24q-14 0 -23.5 9t-9.5 23q0 10 5 21l203 455q16 37 46 37q29 0 45 -37l201 -454q4 -9 4 -19q0 -14 -10 -24.5t-26 -10.5q-24 0 -34 25zM266 450l-110 -256h218zM363 680q0 -40 -28.5 -67.5t-67.5 -27.5t-67.5 27.5
t-28.5 67.5t28.5 67.5t67.5 27.5t67.5 -27.5t28.5 -67.5zM327 680q0 25 -17.5 42t-42.5 17t-42.5 -17t-17.5 -42t17.5 -42t42.5 -17t42.5 17t17.5 42z" />
    <glyph glyph-name="ae.sc" horiz-adv-x="779" 
d="M3 51l308 457q16 23 45 23h324q20 0 27.5 -10t7.5 -21t-7.5 -21t-27.5 -10h-240v-163h224q20 0 27.5 -10t7.5 -20q0 -11 -7.5 -21t-27.5 -10h-224v-182h250q20 0 28 -10t8 -21q0 -32 -36 -32h-278q-42 0 -42 41v102h-225l-86 -130q-13 -20 -32 -20q-13 0 -23 9t-10 23
q0 12 9 26zM360 469l-175 -265h185v265h-10z" />
    <glyph glyph-name="ccedilla.sc" horiz-adv-x="559" 
d="M229 -170q8 0 26 -6q20 -6 42 -6q61 0 61 39q0 35 -45 35q-11 0 -24.5 -3t-20.5 -3q-22 0 -22 20q0 8 6 18l42 67q-106 12 -172 87.5t-66 187.5q0 123 79.5 200t201.5 77q103 0 167 -58q14 -13 14 -28q0 -14 -10 -24.5t-25 -10.5q-14 0 -30 15q-48 43 -116 43
q-92 0 -148.5 -61.5t-56.5 -152.5q0 -92 56 -153t147 -61q81 0 128 50q16 17 31 17q14 0 23.5 -9.5t9.5 -23.5q0 -15 -13 -28q-67 -67 -171 -70l-37 -58q12 3 31 3q33 0 56.5 -18.5t23.5 -56.5q0 -45 -34.5 -66.5t-83.5 -21.5q-38 0 -72 12q-21 7 -21 25q0 23 23 23z" />
    <glyph glyph-name="eth.sc" horiz-adv-x="612" 
d="M271 0h-139q-42 0 -42 41v210h-50q-30 0 -30 26t30 26h50v187q0 41 42 41h139q53 0 102 -15.5t91 -46.5t67 -83.5t25 -119.5q0 -65 -25.5 -117.5t-67 -84t-91 -48t-101.5 -16.5zM160 469v-166h122q30 0 30 -26t-30 -26h-122v-188h96q101 0 163 55.5t62 147.5
q0 94 -61.5 148.5t-163.5 54.5h-96z" />
    <glyph glyph-name="egrave.sc" horiz-adv-x="499" 
d="M410 0h-278q-42 0 -42 41v449q0 41 42 41h268q20 0 27.5 -10t7.5 -21t-7.5 -21t-27.5 -10h-240v-163h224q20 0 27.5 -10t7.5 -20q0 -11 -7.5 -21t-27.5 -10h-224v-182h250q20 0 28 -10t8 -21q0 -32 -36 -32zM211 731l79 -91q11 -12 11 -25q0 -11 -8 -19.5t-20 -8.5
q-15 0 -28 14l-81 89q-11 12 -11 24q0 13 8.5 21.5t21.5 9.5q16 0 28 -14z" />
    <glyph glyph-name="eacute.sc" horiz-adv-x="499" 
d="M410 0h-278q-42 0 -42 41v449q0 41 42 41h268q20 0 27.5 -10t7.5 -21t-7.5 -21t-27.5 -10h-240v-163h224q20 0 27.5 -10t7.5 -20q0 -11 -7.5 -21t-27.5 -10h-224v-182h250q20 0 28 -10t8 -21q0 -32 -36 -32zM239 640l79 91q12 14 28 14q13 -1 21.5 -9.5t8.5 -21.5
q0 -12 -11 -24l-81 -89q-13 -14 -28 -14q-12 0 -20 8.5t-8 19.5q0 13 11 25z" />
    <glyph glyph-name="ecircumflex.sc" horiz-adv-x="499" 
d="M410 0h-278q-42 0 -42 41v449q0 41 42 41h268q20 0 27.5 -10t7.5 -21t-7.5 -21t-27.5 -10h-240v-163h224q20 0 27.5 -10t7.5 -20q0 -11 -7.5 -21t-27.5 -10h-224v-182h250q20 0 28 -10t8 -21q0 -32 -36 -32zM345 599l-85 90l-85 -90q-11 -12 -23 -12q-11 0 -18.5 7
t-7.5 18t10 22l78 85q24 26 46 26t46 -26l78 -85q10 -11 10 -22t-7.5 -18t-18.5 -7q-12 0 -23 12z" />
    <glyph glyph-name="edieresis.sc" horiz-adv-x="499" 
d="M410 0h-278q-42 0 -42 41v449q0 41 42 41h268q20 0 27.5 -10t7.5 -21t-7.5 -21t-27.5 -10h-240v-163h224q20 0 27.5 -10t7.5 -20q0 -11 -7.5 -21t-27.5 -10h-224v-182h250q20 0 28 -10t8 -21q0 -32 -36 -32zM116 677q0 20 14.5 35.5t36.5 15.5t36.5 -15.5t14.5 -35.5
t-14.5 -35.5t-36.5 -15.5t-36.5 15.5t-14.5 35.5zM308 677q0 20 14.5 35.5t36.5 15.5t36.5 -15.5t14.5 -35.5t-14.5 -35.5t-36.5 -15.5t-36.5 15.5t-14.5 35.5z" />
    <glyph glyph-name="igrave.sc" horiz-adv-x="250" 
d="M160 499v-467q0 -22 -11 -30.5t-24 -8.5t-24 8.5t-11 30.5v467q0 22 11 30.5t24 8.5t24 -8.5t11 -30.5zM61 731l79 -91q11 -12 11 -25q0 -11 -8 -19.5t-20 -8.5q-15 0 -28 14l-81 89q-11 12 -11 24q0 13 8.5 21.5t21.5 9.5q16 0 28 -14z" />
    <glyph glyph-name="iacute.sc" horiz-adv-x="250" 
d="M160 499v-467q0 -22 -11 -30.5t-24 -8.5t-24 8.5t-11 30.5v467q0 22 11 30.5t24 8.5t24 -8.5t11 -30.5zM113 640l79 91q12 14 28 14q13 -1 21.5 -9.5t8.5 -21.5q0 -12 -11 -24l-81 -89q-13 -14 -28 -14q-12 0 -20 8.5t-8 19.5q0 13 11 25z" />
    <glyph glyph-name="icircumflex.sc" horiz-adv-x="250" 
d="M160 499v-467q0 -22 -11 -30.5t-24 -8.5t-24 8.5t-11 30.5v467q0 22 11 30.5t24 8.5t24 -8.5t11 -30.5zM209 599l-85 90l-85 -90q-11 -12 -23 -12q-11 0 -18.5 7t-7.5 18t10 22l78 85q24 26 46 26t46 -26l78 -85q10 -11 10 -22t-7.5 -18t-18.5 -7q-12 0 -23 12z" />
    <glyph glyph-name="idieresis.sc" horiz-adv-x="250" 
d="M160 499v-467q0 -22 -11 -30.5t-24 -8.5t-24 8.5t-11 30.5v467q0 22 11 30.5t24 8.5t24 -8.5t11 -30.5zM-23 677q0 20 14.5 35.5t36.5 15.5t36.5 -15.5t14.5 -35.5t-14.5 -35.5t-36.5 -15.5t-36.5 15.5t-14.5 35.5zM169 677q0 20 14.5 35.5t36.5 15.5t36.5 -15.5
t14.5 -35.5t-14.5 -35.5t-36.5 -15.5t-36.5 15.5t-14.5 35.5z" />
    <glyph glyph-name="lslash.sc" horiz-adv-x="421" 
d="M10 244l80 65v190q0 22 11 30.5t24 8.5t24 -8.5t11 -30.5v-132l83 69q12 11 23 11t19 -7.5t8 -19.5t-12 -23l-121 -100v-234h210q20 0 28 -10t8 -21q0 -32 -36 -32h-238q-42 0 -42 41v198l-42 -34q-13 -11 -24 -11t-18.5 7.5t-7.5 19.5q0 13 12 23z" />
    <glyph glyph-name="ntilde.sc" horiz-adv-x="613" 
d="M421 36l-260 385h-1v-389q0 -22 -11 -30.5t-24 -8.5t-24 8.5t-11 30.5v452q0 30 14 42t31 12q27 0 56 -43l260 -377h2v381q0 22 11 30.5t24 8.5t24 -8.5t11 -30.5v-452q0 -30 -14 -42t-31 -12q-28 0 -57 43zM374 669q25 0 39 36q7 20 25 20q26 0 26 -26q0 -11 -5 -23
q-26 -62 -85 -62q-25 0 -71 24q-44 23 -66 23q-25 0 -39 -36q-8 -20 -25 -20q-26 0 -26 26q0 11 5 23q26 62 85 62q24 0 72 -24q50 -23 65 -23z" />
    <glyph glyph-name="ograve.sc" horiz-adv-x="672" 
d="M616 267q0 -121 -80 -200t-201 -79q-120 0 -199.5 79t-79.5 200t79 198.5t200 77.5q122 0 201.5 -77.5t79.5 -198.5zM540 267q0 90 -56.5 152.5t-148.5 62.5q-91 0 -147 -62t-56 -153t56 -153.5t147 -62.5q92 0 148.5 62.5t56.5 153.5zM280 731l79 -91q11 -12 11 -25
q0 -11 -8 -19.5t-20 -8.5q-15 0 -28 14l-81 89q-11 12 -11 24q0 13 8.5 21.5t21.5 9.5q16 0 28 -14z" />
    <glyph glyph-name="oacute.sc" horiz-adv-x="672" 
d="M616 267q0 -121 -80 -200t-201 -79q-120 0 -199.5 79t-79.5 200t79 198.5t200 77.5q122 0 201.5 -77.5t79.5 -198.5zM540 267q0 90 -56.5 152.5t-148.5 62.5q-91 0 -147 -62t-56 -153t56 -153.5t147 -62.5q92 0 148.5 62.5t56.5 153.5zM309 640l79 91q12 14 28 14
q13 -1 21.5 -9.5t8.5 -21.5q0 -12 -11 -24l-81 -89q-13 -14 -28 -14q-12 0 -20 8.5t-8 19.5q0 13 11 25z" />
    <glyph glyph-name="ocircumflex.sc" horiz-adv-x="672" 
d="M616 267q0 -121 -80 -200t-201 -79q-120 0 -199.5 79t-79.5 200t79 198.5t200 77.5q122 0 201.5 -77.5t79.5 -198.5zM540 267q0 90 -56.5 152.5t-148.5 62.5q-91 0 -147 -62t-56 -153t56 -153.5t147 -62.5q92 0 148.5 62.5t56.5 153.5zM421 599l-85 90l-85 -90
q-11 -12 -23 -12q-11 0 -18.5 7t-7.5 18t10 22l78 85q24 26 46 26t46 -26l78 -85q10 -11 10 -22t-7.5 -18t-18.5 -7q-12 0 -23 12z" />
    <glyph glyph-name="otilde.sc" horiz-adv-x="672" 
d="M616 267q0 -121 -80 -200t-201 -79q-120 0 -199.5 79t-79.5 200t79 198.5t200 77.5q122 0 201.5 -77.5t79.5 -198.5zM540 267q0 90 -56.5 152.5t-148.5 62.5q-91 0 -147 -62t-56 -153t56 -153.5t147 -62.5q92 0 148.5 62.5t56.5 153.5zM403 669q25 0 39 36q7 20 25 20
q26 0 26 -26q0 -11 -5 -23q-26 -62 -85 -62q-25 0 -71 24q-44 23 -66 23q-25 0 -39 -36q-8 -20 -25 -20q-26 0 -26 26q0 11 5 23q26 62 85 62q24 0 72 -24q50 -23 65 -23z" />
    <glyph glyph-name="odieresis.sc" horiz-adv-x="672" 
d="M616 267q0 -121 -80 -200t-201 -79q-120 0 -199.5 79t-79.5 200t79 198.5t200 77.5q122 0 201.5 -77.5t79.5 -198.5zM540 267q0 90 -56.5 152.5t-148.5 62.5q-91 0 -147 -62t-56 -153t56 -153.5t147 -62.5q92 0 148.5 62.5t56.5 153.5zM187 677q0 20 14.5 35.5t36.5 15.5
t36.5 -15.5t14.5 -35.5t-14.5 -35.5t-36.5 -15.5t-36.5 15.5t-14.5 35.5zM379 677q0 20 14.5 35.5t36.5 15.5t36.5 -15.5t14.5 -35.5t-14.5 -35.5t-36.5 -15.5t-36.5 15.5t-14.5 35.5z" />
    <glyph glyph-name="oslash.sc" horiz-adv-x="672" 
d="M616 266q0 -122 -80 -200t-201 -78q-111 0 -186 63l-62 -64q-9 -9 -18 -9t-15.5 6t-6.5 16t9 19l62 64q-62 76 -62 183q0 123 79 200t200 77q105 0 178 -56l53 55q9 9 18 9t15.5 -6t6.5 -16t-9 -19l-51 -53q70 -78 70 -191zM132 266q0 -74 37 -131l295 302
q-54 46 -129 46q-91 0 -147 -63t-56 -154zM540 266q0 80 -45 139l-297 -304q56 -51 137 -51q92 0 148.5 62t56.5 154z" />
    <glyph glyph-name="oe.sc" horiz-adv-x="777" 
d="M336 63h32v406h-32q-86 0 -142 -58t-56 -145t56 -145t142 -58zM688 0h-352q-114 0 -193 74.5t-79 191.5t79 191t193 74h342q20 0 27.5 -10t7.5 -21t-7.5 -21t-27.5 -10h-240v-163h224q20 0 27.5 -10t7.5 -20q0 -11 -7.5 -21t-27.5 -10h-224v-182h250q20 0 28 -10t8 -21
q0 -32 -36 -32z" />
    <glyph glyph-name="scaron.sc" horiz-adv-x="450" 
d="M213 -12q-87 0 -145 50q-18 15 -18 32q0 13 9.5 23t23.5 10t26 -11q49 -43 105 -43q43 0 76.5 24t33.5 69q0 23 -8.5 39.5t-29.5 28.5t-37 18t-52 17q-65 20 -102 52t-37 97q0 73 53.5 111t126.5 38q72 0 124 -38q18 -13 18 -30q0 -14 -9.5 -23.5t-23.5 -9.5t-28 12
q-37 29 -85 29q-42 0 -73.5 -22t-31.5 -64q0 -22 7.5 -37t26 -26t32 -16.5t43.5 -14.5l45.5 -15t40 -18.5t38 -27.5t23 -38t10.5 -55q0 -78 -53 -119.5t-129 -41.5zM236 643l85 90q11 12 23 12q11 0 18.5 -7t7.5 -18t-10 -22l-78 -85q-24 -26 -46 -26t-46 26l-78 85
q-10 11 -10 22t7.5 18t18.5 7q12 0 23 -12z" />
    <glyph glyph-name="germandbls.sc" horiz-adv-x="901" 
d="M216 -12q-87 0 -145 50q-18 15 -18 32q0 13 9.5 23t23.5 10t26 -11q49 -43 105 -43q43 0 76.5 24t33.5 69q0 23 -8.5 39.5t-29.5 28.5t-37 18t-52 17q-65 20 -102 52t-37 97q0 73 53.5 111t126.5 38q72 0 124 -38q18 -13 18 -30q0 -14 -9.5 -23.5t-23.5 -9.5t-28 12
q-37 29 -85 29q-42 0 -73.5 -22t-31.5 -64q0 -22 7.5 -37t26 -26t32 -16.5t43.5 -14.5l45.5 -15t40 -18.5t38 -27.5t23 -38t10.5 -55q0 -78 -53 -119.5t-129 -41.5zM664 -12q-87 0 -145 50q-18 15 -18 32q0 13 9.5 23t23.5 10t26 -11q49 -43 105 -43q43 0 76.5 24t33.5 69
q0 23 -8.5 39.5t-29.5 28.5t-37 18t-52 17q-65 20 -102 52t-37 97q0 73 53.5 111t126.5 38q72 0 124 -38q18 -13 18 -30q0 -14 -9.5 -23.5t-23.5 -9.5t-28 12q-37 29 -85 29q-42 0 -73.5 -22t-31.5 -64q0 -22 7.5 -37t26 -26t32 -16.5t43.5 -14.5l45.5 -15t40 -18.5
t38 -27.5t23 -38t10.5 -55q0 -78 -53 -119.5t-129 -41.5z" />
    <glyph glyph-name="thorn.sc" horiz-adv-x="491" 
d="M91 32v467q0 22 11 30.5t24 8.5t24 -8.5t11 -30.5v-73h96q189 0 189 -144q0 -71 -49.5 -110.5t-143.5 -39.5h-92v-100q0 -22 -11 -30.5t-24 -8.5t-24 8.5t-11 30.5zM161 193h87q127 0 127 89q0 42 -29 62t-97 20h-88v-171z" />
    <glyph glyph-name="ugrave.sc" horiz-adv-x="572" 
d="M490 499v-300q0 -88 -52 -149.5t-152 -61.5q-101 0 -152.5 61.5t-51.5 149.5v300q0 22 11 30.5t24 8.5t24 -8.5t11 -30.5v-295q0 -65 32 -108.5t102 -43.5t102 44t32 108v295q0 22 11 30.5t24 8.5t24 -8.5t11 -30.5zM230 731l79 -91q11 -12 11 -25q0 -11 -8 -19.5
t-20 -8.5q-15 0 -28 14l-81 89q-11 12 -11 24q0 13 8.5 21.5t21.5 9.5q16 0 28 -14z" />
    <glyph glyph-name="uacute.sc" horiz-adv-x="572" 
d="M490 499v-300q0 -88 -52 -149.5t-152 -61.5q-101 0 -152.5 61.5t-51.5 149.5v300q0 22 11 30.5t24 8.5t24 -8.5t11 -30.5v-295q0 -65 32 -108.5t102 -43.5t102 44t32 108v295q0 22 11 30.5t24 8.5t24 -8.5t11 -30.5zM265 640l79 91q12 14 28 14q13 -1 21.5 -9.5
t8.5 -21.5q0 -12 -11 -24l-81 -89q-13 -14 -28 -14q-12 0 -20 8.5t-8 19.5q0 13 11 25z" />
    <glyph glyph-name="ucircumflex.sc" horiz-adv-x="572" 
d="M490 499v-300q0 -88 -52 -149.5t-152 -61.5q-101 0 -152.5 61.5t-51.5 149.5v300q0 22 11 30.5t24 8.5t24 -8.5t11 -30.5v-295q0 -65 32 -108.5t102 -43.5t102 44t32 108v295q0 22 11 30.5t24 8.5t24 -8.5t11 -30.5zM373 599l-85 90l-85 -90q-11 -12 -23 -12
q-11 0 -18.5 7t-7.5 18t10 22l78 85q24 26 46 26t46 -26l78 -85q10 -11 10 -22t-7.5 -18t-18.5 -7q-12 0 -23 12z" />
    <glyph glyph-name="udieresis.sc" horiz-adv-x="572" 
d="M490 499v-300q0 -88 -52 -149.5t-152 -61.5q-101 0 -152.5 61.5t-51.5 149.5v300q0 22 11 30.5t24 8.5t24 -8.5t11 -30.5v-295q0 -65 32 -108.5t102 -43.5t102 44t32 108v295q0 22 11 30.5t24 8.5t24 -8.5t11 -30.5zM141 677q0 20 14.5 35.5t36.5 15.5t36.5 -15.5
t14.5 -35.5t-14.5 -35.5t-36.5 -15.5t-36.5 15.5t-14.5 35.5zM333 677q0 20 14.5 35.5t36.5 15.5t36.5 -15.5t14.5 -35.5t-14.5 -35.5t-36.5 -15.5t-36.5 15.5t-14.5 35.5z" />
    <glyph glyph-name="yacute.sc" horiz-adv-x="468" 
d="M447 482l-179 -252v-198q0 -22 -11 -30.5t-24 -8.5t-24 8.5t-11 30.5v198l-176 252q-8 11 -8 23q0 14 10 23.5t24 9.5q18 0 30 -18l156 -232l156 232q13 18 31 18q15 0 24.5 -9t9.5 -23q0 -13 -8 -24zM201 640l79 91q12 14 28 14q13 -1 21.5 -9.5t8.5 -21.5
q0 -12 -11 -24l-81 -89q-13 -14 -28 -14q-12 0 -20 8.5t-8 19.5q0 13 11 25z" />
    <glyph glyph-name="ydieresis.sc" horiz-adv-x="468" 
d="M447 482l-179 -252v-198q0 -22 -11 -30.5t-24 -8.5t-24 8.5t-11 30.5v198l-176 252q-8 11 -8 23q0 14 10 23.5t24 9.5q18 0 30 -18l156 -232l156 232q13 18 31 18q15 0 24.5 -9t9.5 -23q0 -13 -8 -24zM88 677q0 20 14.5 35.5t36.5 15.5t36.5 -15.5t14.5 -35.5
t-14.5 -35.5t-36.5 -15.5t-36.5 15.5t-14.5 35.5zM280 677q0 20 14.5 35.5t36.5 15.5t36.5 -15.5t14.5 -35.5t-14.5 -35.5t-36.5 -15.5t-36.5 15.5t-14.5 35.5z" />
    <glyph glyph-name="zcaron.sc" horiz-adv-x="498" 
d="M416 0h-331q-22 0 -30.5 11.5t-8.5 23.5q0 17 17 39l290 395h-266q-20 0 -27.5 10t-7.5 21t7.5 21t27.5 10h321q22 0 30.5 -12t8.5 -24q0 -14 -17 -38l-291 -394h277q20 0 28 -10t8 -21q0 -32 -36 -32zM254 643l85 90q11 12 23 12q11 0 18.5 -7t7.5 -18t-10 -22l-78 -85
q-24 -26 -46 -26t-46 26l-78 85q-10 11 -10 22t7.5 18t18.5 7q12 0 23 -12z" />
    <glyph glyph-name="grave.sc" 
d="M81 731l79 -91q11 -12 11 -25q0 -11 -8 -19.5t-20 -8.5q-15 0 -28 14l-81 89q-11 12 -11 24q0 13 8.5 21.5t21.5 9.5q16 0 28 -14z" />
    <glyph glyph-name="acute.sc" 
d="M80 640l79 91q12 14 28 14q13 -1 21.5 -9.5t8.5 -21.5q0 -12 -11 -24l-81 -89q-13 -14 -28 -14q-12 0 -20 8.5t-8 19.5q0 13 11 25z" />
    <glyph glyph-name="circumflex.sc" 
d="M205 599l-85 90l-85 -90q-11 -12 -23 -12q-11 0 -18.5 7t-7.5 18t10 22l78 85q24 26 46 26t46 -26l78 -85q10 -11 10 -22t-7.5 -18t-18.5 -7q-12 0 -23 12z" />
    <glyph glyph-name="caron.sc" 
d="M120 643l85 90q11 12 23 12q11 0 18.5 -7t7.5 -18t-10 -22l-78 -85q-24 -26 -46 -26t-46 26l-78 85q-10 11 -10 22t7.5 18t18.5 7q12 0 23 -12z" />
    <glyph glyph-name="tilde.sc" 
d="M188 669q25 0 39 36q7 20 25 20q26 0 26 -26q0 -11 -5 -23q-26 -62 -85 -62q-25 0 -71 24q-44 23 -66 23q-25 0 -39 -36q-8 -20 -25 -20q-26 0 -26 26q0 11 5 23q26 62 85 62q24 0 72 -24q50 -23 65 -23z" />
    <glyph glyph-name="dieresis.sc" 
d="M-27 677q0 20 14.5 35.5t36.5 15.5t36.5 -15.5t14.5 -35.5t-14.5 -35.5t-36.5 -15.5t-36.5 15.5t-14.5 35.5zM165 677q0 20 14.5 35.5t36.5 15.5t36.5 -15.5t14.5 -35.5t-14.5 -35.5t-36.5 -15.5t-36.5 15.5t-14.5 35.5z" />
    <glyph glyph-name="macron.sc" 
d="M7 684h226q17 0 23.5 -8.5t6.5 -18.5t-6.5 -18.5t-23.5 -8.5h-226q-17 0 -23.5 8.5t-6.5 18.5t6.5 18.5t23.5 8.5z" />
    <glyph glyph-name="breve.sc" 
d="M120 660q69 0 92 62q9 23 27 23q12 0 18.5 -7.5t6.5 -17.5q0 -8 -3 -18q-15 -49 -53 -72.5t-88 -23.5t-88 23.5t-53 72.5q-3 10 -3 18q0 10 6.5 17.5t18.5 7.5q18 0 27 -23q23 -62 92 -62z" />
    <glyph glyph-name="ring.sc" 
d="M216 680q0 -40 -28.5 -67.5t-67.5 -27.5t-67.5 27.5t-28.5 67.5t28.5 67.5t67.5 27.5t67.5 -27.5t28.5 -67.5zM180 680q0 25 -17.5 42t-42.5 17t-42.5 -17t-17.5 -42t17.5 -42t42.5 -17t42.5 17t17.5 42z" />
    <glyph glyph-name="hungarumlaut.sc" 
d="M-40 640l75 91q12 14 29 14q29 -2 29 -30q0 -13 -11 -25l-77 -89q-13 -14 -27 -14q-13 0 -21 8t-8 20q0 13 11 25zM131 640l75 91q12 14 29 14q29 -2 29 -30q0 -13 -11 -25l-77 -89q-13 -14 -27 -14q-13 0 -21 8t-8 20q0 13 11 25z" />
    <glyph glyph-name="exclamdown.sc" horiz-adv-x="286" 
d="M90 484q0 22 15 37.5t38 15.5t38 -15.5t15 -37.5t-15 -37.5t-38 -15.5t-38 15.5t-15 37.5zM108 33v307q0 22 11 31t24 9q8 0 15 -2.5t13.5 -12t6.5 -25.5v-307q0 -22 -11 -31t-24 -9q-8 0 -15 2.5t-13.5 12t-6.5 25.5z" />
    <glyph glyph-name="questiondown.sc" horiz-adv-x="380" 
d="M139 484q0 22 15 37.5t38 15.5t38 -15.5t15 -37.5t-15 -37.5t-38 -15.5t-38 15.5t-15 37.5zM270 99q12 29 35 29q14 0 23.5 -8.5t9.5 -22.5q0 -9 -5 -22q-38 -87 -145 -87q-70 0 -110.5 38.5t-40.5 94.5q0 42 16 71t54 59q31 25 43.5 45t12.5 46q0 38 34 38t34 -38
q0 -34 -12.5 -60t-46.5 -56l-28 -25q-37 -33 -37 -76q0 -30 23 -53.5t61 -23.5q58 0 79 51z" />
    <glyph glyph-name="Euro.sc" horiz-adv-x="484" 
d="M295 -12q-86 0 -140 55t-66 129h-31q-29 0 -29 26t29 26h24v5q0 5 -0.5 11t-0.5 9q0 26 2 46h-25q-29 0 -29 26t29 26h32q19 90 78.5 143t140.5 53q57 0 97 -20q20 -10 20 -29q0 -13 -8.5 -22t-21.5 -9q-8 0 -20 5q-30 12 -68 12q-55 0 -94 -34t-54 -99h185q29 0 29 -26
t-29 -26h-193q-2 -17 -2 -41q0 -18 2 -30h157q29 0 29 -26t-29 -26h-148q9 -50 46.5 -86.5t88.5 -36.5q46 0 81 19q13 7 22 7q13 0 21 -8.5t8 -20.5q0 -18 -18 -29q-48 -29 -115 -29z" />
    <glyph glyph-name="cent.sc" horiz-adv-x="484" 
d="M260 51v366q-64 -11 -101 -61.5t-37 -121.5t37 -121.5t101 -61.5zM308 -11v-41q0 -27 -24 -27t-24 27v43q-97 10 -153.5 77.5t-56.5 165.5t56.5 165.5t153.5 77.5v43q0 27 24 27t24 -27v-41q82 -3 137 -57q13 -13 13 -27q0 -13 -9 -21.5t-22 -8.5q-14 0 -34 19
q-35 32 -85 35v-370q51 3 93 41q13 13 26 13t22 -8.5t9 -21.5q0 -14 -12 -26q-53 -53 -138 -58z" />
    <glyph glyph-name="sterling.sc" horiz-adv-x="484" 
d="M399 521q22 -12 22 -31q0 -13 -9 -22t-22 -9q-12 0 -25 9q-23 16 -55 16q-45 0 -69.5 -32t-24.5 -94v-56h93q32 0 32 -29t-32 -29h-93v-181h158q20 0 28 -10t8 -21q0 -32 -36 -32h-268q-36 0 -36 32q0 7 2 13t11 12t23 6h40v181h-38q-32 0 -32 29t32 29h38v62
q0 83 45 131t122 48q48 0 86 -22z" />
    <glyph glyph-name="florin.sc" horiz-adv-x="484" 
d="M344 284h-68l-37 -236q-21 -134 -127 -134q-27 0 -53 11q-21 9 -21 28q0 11 7.5 20t20.5 9q6 0 22 -6q12 -4 23 -4q47 0 59 75l37 237h-57q-30 0 -30 26t30 26h62l18 105q9 50 39 76t72 26q31 0 59 -14q20 -10 20 -28q0 -12 -8 -20.5t-21 -8.5q-8 0 -20 6q-13 7 -26 7
q-39 0 -48 -54l-16 -95h63q30 0 30 -26t-30 -26z" />
    <glyph glyph-name="yen.sc" horiz-adv-x="484" 
d="M435 487l-148 -202h85q29 0 29 -26t-29 -26h-95v-66h95q29 0 29 -26t-29 -26h-95v-85q0 -37 -33 -37t-33 37v85h-95q-29 0 -29 26t29 26h95v66h-95q-29 0 -29 26t29 26h83l-147 200q-8 12 -8 23q0 12 9 21t23 9q16 0 29 -18l140 -199l138 199q12 18 29 18q13 0 21.5 -8.5
t8.5 -20.5t-7 -22z" />
    <glyph glyph-name="perthousand.sc" horiz-adv-x="972" 
d="M310 409q0 -56 -39 -95t-96 -39t-96 39t-39 95t39 95t96 39t96 -39t39 -95zM254 409q0 33 -23.5 55.5t-55.5 22.5t-55.5 -22.5t-23.5 -55.5t23.5 -55.5t55.5 -22.5t55.5 22.5t23.5 55.5zM621 122q0 -56 -39 -95t-96 -39t-96 39t-39 95t39 95t96 39t96 -39t39 -95z
M565 122q0 33 -23.5 55.5t-55.5 22.5t-55.5 -22.5t-23.5 -55.5t23.5 -55.5t55.5 -22.5t55.5 22.5t23.5 55.5zM934 122q0 -56 -39 -95t-96 -39t-96 39t-39 95t39 95t96 39t96 -39t39 -95zM878 122q0 33 -23.5 55.5t-55.5 22.5t-55.5 -22.5t-23.5 -55.5t23.5 -55.5t55.5 -22.5
t55.5 22.5t23.5 55.5zM510 510l-313 -518q-10 -17 -25 -17q-10 0 -19 7t-9 18q0 9 6 19l314 518q10 17 25 17q10 0 18.5 -7t8.5 -18q0 -8 -6 -19z" />
    <glyph glyph-name="zero.onum" horiz-adv-x="689" 
d="M627 267q0 -123 -80.5 -201.5t-203.5 -78.5q-121 0 -201 79t-80 201q0 123 79.5 200.5t201.5 77.5q124 0 204 -77t80 -201zM550 267q0 93 -56.5 153.5t-150.5 60.5q-93 0 -148.5 -60.5t-55.5 -153.5t56 -154.5t148 -61.5q93 0 150 61.5t57 154.5z" />
    <glyph glyph-name="one.onum" horiz-adv-x="385" 
d="M182 441l-74 -63q-13 -12 -27 -12q-13 0 -22 9t-9 23q0 15 15 28l108 90q25 21 43 21q37 0 37 -40v-465q0 -22 -11.5 -30.5t-24.5 -8.5q-12 0 -23.5 8.5t-11.5 30.5v409z" />
    <glyph glyph-name="two.onum" horiz-adv-x="512" 
d="M118 416q-12 -18 -29 -18q-14 0 -23 8.5t-9 22.5q0 11 8 23q65 93 182 93q91 0 143.5 -44.5t52.5 -124.5q0 -39 -15 -73t-51 -69t-67 -58.5t-91 -64.5l-66 -45v-3h271q20 0 27.5 -10t7.5 -21t-7.5 -21.5t-27.5 -10.5h-335q-25 0 -34.5 12t-9.5 25q0 23 24 40l66 46
q75 52 105.5 75t68 57t50 60.5t12.5 58.5q0 50 -33.5 79.5t-91.5 29.5q-81 0 -128 -67z" />
    <glyph glyph-name="three.onum" horiz-adv-x="527" 
d="M108 -166q-32 5 -32 32q0 14 9 23t24 9q1 0 24.5 -2.5t48.5 -2.5q96 0 152.5 44t56.5 129q0 70 -48 110t-130 40q-29 0 -57 -5.5t-32 -5.5q-12 0 -21 8.5t-9 22.5q0 16 14 27q168 129 248 203v4h-257q-19 0 -26.5 10t-7.5 21q0 10 7.5 20t26.5 10h302q26 0 36.5 -13
t10.5 -28q0 -23 -22 -42q-88 -78 -220 -179v-4q22 5 42 5q91 0 153.5 -55.5t62.5 -143.5q0 -115 -78.5 -178t-201.5 -63q-47 0 -76 4z" />
    <glyph glyph-name="four.onum" horiz-adv-x="569" 
d="M516 8h-89v-145q0 -22 -11 -31t-23 -9q-8 0 -15 2.5t-13.5 12t-6.5 25.5v145h-276q-25 0 -35 12.5t-10 26.5t15 40l263 444q12 21 31 21q14 0 23 -8.5t9 -21.5q0 -11 -6 -22l-256 -430h242v222q0 22 11 31t24 9q7 0 14 -2.5t13.5 -12t6.5 -25.5v-222h89q19 0 26.5 -10
t7.5 -21t-7.5 -21t-26.5 -10z" />
    <glyph glyph-name="five.onum" horiz-adv-x="519" 
d="M96 -165q-31 4 -31 32q0 13 8.5 22t22.5 9q4 0 27 -3t50 -3q96 0 148.5 45t52.5 131q0 75 -49.5 113.5t-125.5 38.5q-28 0 -57 -5.5t-31 -5.5q-10 0 -20 7t-8 25l28 247q4 43 44 43h264q20 0 28.5 -10.5t8.5 -21.5q0 -7 -2.5 -13.5t-11.5 -13t-23 -6.5h-244l-25 -198
q35 10 73 10q96 0 159.5 -55t63.5 -152q0 -117 -74 -179t-193 -62q-45 0 -83 5z" />
    <glyph glyph-name="six.onum" horiz-adv-x="585" 
d="M452 210q0 72 -43.5 118t-114.5 46t-116.5 -46t-45.5 -119q0 -70 45 -117t115 -47t115 46.5t45 118.5zM396 648q-155 -133 -221 -263l3 -2q47 49 132 49q92 0 153.5 -62.5t61.5 -157.5q0 -101 -66 -165t-167 -64q-103 0 -168.5 64.5t-65.5 171.5q0 113 88 245.5
t206 233.5q14 11 28 11q13 0 22 -9t9 -23q0 -16 -15 -29z" />
    <glyph glyph-name="seven.onum" horiz-adv-x="516" 
d="M469 462q-161 -324 -282 -618q-11 -27 -35 -27q-16 0 -27 9t-11 25q0 10 5 22q139 316 278 593h-318q-20 0 -28.5 10.5t-8.5 22.5q0 6 2.5 12.5t11.5 13t23 6.5h355q24 0 33.5 -12.5t9.5 -26.5q0 -13 -8 -30z" />
    <glyph glyph-name="eight.onum" horiz-adv-x="576" 
d="M516 191q0 -94 -65.5 -150.5t-162.5 -56.5t-162.5 56.5t-65.5 150.5q0 67 38 117t100 67v2q-52 19 -82.5 62.5t-30.5 98.5q0 83 58.5 134.5t144.5 51.5t144 -51t58 -134q0 -55 -30.5 -99.5t-82.5 -62.5v-2q64 -17 101.5 -67t37.5 -117zM288 664q-56 0 -93 -36t-37 -92
q0 -55 37 -92.5t93 -37.5q55 0 93 38t38 92q0 55 -38 91.5t-93 36.5zM442 195q0 65 -44 107.5t-110 42.5t-110 -42.5t-44 -107.5q0 -66 42.5 -108t111.5 -42q68 0 111 42t43 108z" />
    <glyph glyph-name="nine.onum" horiz-adv-x="585" 
d="M527 309q0 -113 -88 -245.5t-206 -233.5q-14 -11 -28 -11q-13 0 -22 9t-9 23q0 16 15 29q159 136 221 259l-3 2q-50 -45 -132 -45q-92 0 -153.5 62.5t-61.5 157.5q0 101 66 165t167 64q103 0 168.5 -64.5t65.5 -171.5zM454 319q0 70 -45.5 117t-115.5 47t-114.5 -46.5
t-44.5 -118.5t43 -118t114 -46t117 46.5t46 118.5z" />
    </font>
</defs>
</svg>
