<svg id="Layer_1" data-name="Layer 1" xmlns="http://www.w3.org/2000/svg" viewBox="0 0 42.56 48.86"><defs><style>.cls-1{fill:#010101;stroke:#010101;stroke-miterlimit:10;stroke-width:2px;}</style></defs><title>cart</title><path class="cls-1" d="M41.55,46.32,38,12.4a1.38,1.38,0,0,0-1.39-1.24H29.91V9.63a8.63,8.63,0,1,0-17.26,0v1.53H6A1.38,1.38,0,0,0,4.57,12.4L1,46.32a1.39,1.39,0,0,0,1.38,1.54H40.17a1.36,1.36,0,0,0,1-.46A1.33,1.33,0,0,0,41.55,46.32ZM15.44,9.63a5.84,5.84,0,1,1,11.68,0v1.53H15.44ZM3.94,45.08,7.21,14h5.44V17a1.4,1.4,0,0,0,2.79,0V14H27.12V17a1.4,1.4,0,0,0,2.79,0V14h5.44l3.27,31.13Z"/></svg>